<svg xmlns="http://www.w3.org/2000/svg" version="1.1" width="600px" height="600px" viewBox="0 0 200 200" style="overflow:hidden!important;"><defs id="SvgjsDefs17640"></defs><g id="svga-group-wrapper"><g id="svga-group-backs-single"><path id="SvgjsPath18114" d="M0 0h200v200H0V0z" fill="#ce6130" stroke-width="none" opacity="1"></path><path id="SvgjsPath18115" d="M0 0h18.2v200H0V0zm36.4 0h18.2v200H36.4V0zm36.3 0h18.2v200H72.7V0zm36.4 0h18.2v200h-18.2V0zm36.3 0h18.2v200h-18.2V0zm36.4 0H200v200h-18.2V0z" fill="#bf4d19" stroke-width="none" opacity="1"></path></g><g id="svga-group-humanwrap-move" transform="matrix(1,0,0,1,0,0)"><g id="svga-group-humanwrap" transform="matrix(1,0,0,1,0,0)"><g id="svga-group-hair-back-move" transform="matrix(1,0,0,1,0,0)"><g id="svga-group-hair-back" transform="matrix(1,0,0,1,0,0)"><path id="SvgjsPath18350" d="M104.4 32.9S87 15.4 57 33.5s-24.1 62-14.9 79.8 6.2 36.5-6 35.2c0 0 1.3 8.4 15.7 8.7 0 0 6 4.3 15.7 1.4 0 0 1.6 4.3 12.2 1.4s40.6-1.1 40.6-1.1 7 3.8 14.1.8c0 0 11.1 2.7 16-2.2 0 0 11.9 3 16.2-6 0 0-11.6-.3-11.9-10.8s2.2-15.2 8.4-27.9 5.7-40.9-4.6-57.7-28.4-23.8-38.2-24.4-15.9 2.2-15.9 2.2z" fill="#221b23" stroke-width="none" opacity="1" stroke="none"></path><path id="SvgjsPath18351" d="M106.2 35.4s13.8-7.5 35.1 5.4 24.3 44.8 22.7 58.5-15.4 28-13.8 39.4c1.6 11.3 8.6 14 12.9 14 0 0-9.4 4.3-13.8-4.3s-4.1-14.3 2.2-24.8 12.4-22.9 10.5-35.1-7.6-33.7-20.5-43.4c-12.9-9.7-24.2-11-35.3-9.7zm1.1 2.6s21.9-1.1 34.9 13.1c10.6 11.6 14.6 21.5 14.4 42.4-.2 15.3-10.5 29.3-13.5 37.4S140.5 152 148 156c0 0-8.1.2-10.7-11.4s8.4-25.3 11.9-30.4c3.5-5.1 5.2-22.5 3.1-34.2-2.5-13.7-5.9-22.3-20.5-32.1S107.3 38 107.3 38zm-4.8-3.6s-8.1-4-26.3-2.3C58 33.9 42.8 51.3 42.1 71.8s4.3 38.4 11.9 52.5-1 28.8-11.1 28.5c0 0 13.6-8.1 9.6-23s-10.4-18.9-12.4-45.2S44.6 48 53 40.6s24.7-16 49.5-6.2zm-1.3 3.3S80 30.9 63.3 48.3s-18.9 42.4-12.4 56.1 15.9 30.6 14.9 39.9-12.4 12.1-12.4 12.1 10.4-7.6 7.8-21-11.9-25.3-14.9-36.9c-3-11.6-3-25 4-39.7s23.4-30.7 50.9-21.1z" fill="#2a232b" stroke-width="none" opacity="1" stroke="none"></path><path id="SvgjsPath18352" d="M80.8 42.8s-22.6 3-27.4 30.2 4.8 42.1 9.1 49.2c4.3 7.1 9.1 14.4 8.9 22.1S68.1 157 68.1 157s5.8-4.6 6.3-12.4-3.8-18-5.6-22.6c-1.8-4.6-10.1-49.2-3.6-61.3s11-15.7 15.6-17.9zm36.1 2s12 3.8 19.1 12.2 12.4 24.6 9.1 38.8-15.5 37.8-15.7 44.6c-.2 6.8 1.6 13.2 5 19.4 0 0-9.3-4.9-8.8-18.1.5-13.2 7.1-27.6 9.9-36.5 0 0 4.7-23.7-2.3-37.8-7-14.1-17.1-22.8-17.1-22.8l.8.2zM73.9 158s4.4-7.7 3.4-23.1c0 0 3.3 4.3 3.9 13.2.7 8.9-7.3 9.9-7.3 9.9zm50.5-21.6s-2.6 12.2 1.6 22c0 0-5.8-2.6-6.7-10.6-.8-7.9 5.1-11.4 5.1-11.4z" fill="#1b141c" stroke-width="none" opacity="1" stroke="none"></path></g></g><g id="svga-group-humanbody-back"><path id="SvgjsPath17944" d="m168.5 219.5-1.7-21.5s.7-9-8.8-15.3-23.4-10.1-29.5-14.2c-6.1-4.1-9.2-4.5-9-16.9s.9-40.3.9-40.3H79.6s.7 27.9.9 40.3c.2 12.4-2.9 12.8-9 16.9-6.1 4.1-20 7.9-29.5 14.2S33.2 198 33.2 198l-1.6 21.5h136.9z" fill="#b2713b" stroke-width="none" opacity="1" stroke="none"></path></g><g id="svga-group-chinshadow-single"><path id="SvgjsPath18183" d="M100 161.2c7.93 0 14.73-1.36 19.73-3.84-.19-1.57-.27-3.46-.23-5.76.2-12.4.9-40.3.9-40.3H79.6s.7 27.9.9 40.3c.04 2.29-.04 4.18-.23 5.75 5.06 2.49 11.79 3.85 19.73 3.85z" fill="#934d13" stroke-width="none" opacity="0.65" stroke="none"></path></g><g id="svga-group-humanbody-front"><path id="SvgjsPath17945" d="M73.8 175.9c5.1 2.9 11.8 5.2 17.6 5.7.4 0 .4-.6.1-.7-2.8-1.1-5.9-1.7-8.8-2.6-2.9-.9-5.8-2-8.8-2.7-.1-.1-.3.2-.1.3zm35.2 6.2c5.3-.6 11.3-3 15.9-5.8.3-.2.1-.6-.2-.5-2.6.9-5.2 2-7.8 2.9-2.6.9-5.4 1.5-8 2.5-.5.1-.5.9.1.9z" fill="#934d13" stroke-width="none" opacity="1" stroke="none"></path><path id="SvgjsPath17946" d="m168.4 219.4-2.1-21.4c0-2.2-.5-4.5-1.5-6.6-.9-2.1-2.3-3.9-3.9-5.5s-3.5-2.8-5.5-4c-2-1.2-4.1-2.2-6.2-3.1-4.2-1.9-8.6-3.6-12.9-5.4-2.2-.9-4.3-1.9-6.4-3-1.1-.6-2.1-1.2-3-1.9-1-.6-2-1.2-3-1.9s-2-1.5-2.8-2.6c-.8-1-1.3-2.2-1.7-3.4-.7-2.4-.8-4.8-.8-7.2 0-4.7.2-9.4.3-14.1.2-9.4.6-18.7.9-28l.6.6-20.4-.2-20.4-.1.3-.3.7 28c.1 4.7.3 9.3.4 14 0 2.4-.1 4.7-.8 7.1-.3 1.2-.9 2.3-1.6 3.3-.8 1-1.7 1.8-2.7 2.5s-2 1.3-2.9 2c-.9.6-1.9 1.3-3 1.9-2.1 1.2-4.2 2.1-6.4 3.1-4.3 1.9-8.6 3.6-12.8 5.6-2.1 1-4.2 2.1-6.1 3.2-2 1.2-3.8 2.4-5.4 4-1.6 1.6-2.9 3.4-3.8 5.4-.4 1-.8 2.1-1 3.1-.2 1.1-.4 2.2-.3 3.2v.2l-1.5 21.5-1-1.1 34 .1c11.3 0 22.7.1 34.1.2l34.2.3 34.4.5zm.2.2-34 .4-34.2.3c-11.4.1-22.9.2-34.4.2l-34.4.1h-1.1l.1-1.1 1.7-21.5v.1c-.1-5.1 2.2-9.8 5.7-13.3 1.7-1.7 3.8-3.1 5.8-4.3 2-1.2 4.2-2.2 6.3-3.2 4.3-2 8.7-3.7 13-5.4 2.1-.9 4.3-1.8 6.3-2.9 1-.5 1.9-1.1 3-1.8 1-.6 2-1.2 2.9-1.9.9-.6 1.8-1.4 2.4-2.2.7-.9 1.2-1.9 1.5-2.9.6-2.1.8-4.5.8-6.8 0-4.6-.1-9.3-.2-14l-.6-28v-.3h.3l20.4-.1 20.4-.2h.6v.6c-.1 9.3-.2 18.7-.4 28-.1 4.7-.2 9.4-.2 14 .1 2.3.2 4.6.8 6.7.3 1.1.8 2 1.4 2.9.6.8 1.4 1.6 2.4 2.2.9.6 1.9 1.3 2.9 1.9 1 .7 1.9 1.3 2.9 1.8 2 1.1 4.1 2.1 6.3 3 4.3 1.8 8.6 3.6 12.9 5.6 2.1 1 4.2 2.1 6.2 3.3 2 1.2 4 2.6 5.7 4.3 3.4 3.4 5.6 8.1 5.4 13v-.1l1.4 21.6zm-112.8-.4 1.9-13.8.1 13.8h-2zm88.6 0-1.9-13.8-.1 13.8h2z" fill="#843e04" stroke-width="none" opacity="1" stroke="none"></path></g><g id="svga-group-clothes-single"><path id="SvgjsPath18320" d="m122.4 220 2.7-26.8s-14.3 16-25 19.1c0 0-16.5-9.3-26.3-19.1l3.9 26.8h44.7z" fill="#efefef" stroke-width="none" opacity="1"></path><path id="SvgjsPath18321" d="M125.3 192.9c-.2-.2-.4-.1-.6 0a147.859 147.859 0 0 1-11.5 10.9c-2 1.7-4.1 3.3-6.3 4.8-2.2 1.4-4.5 2.7-6.9 3.5-2.3-1.3-4.6-2.7-6.9-4.2-2.3-1.5-4.5-3-6.7-4.6-4.4-3.2-8.6-6.6-12.4-10.4-.1-.1-.2-.1-.3-.1-.2 0-.3.2-.3.4.6 4.5 1.2 8.9 1.8 13.4.6 4.5 1.2 8.9 1.9 13.4 0 .2.3.4.5.4h11.3l11.2-.1 11.2-.1 11.1-.2 1.6-13.3 1.5-13.5c0-.1-.1-.2-.2-.3zm-1.9 13.5-1.1 13.5-11.3-.2-11.2-.1-11.2-.1H77.9c-.6-4.3-1.3-8.6-1.9-13-.6-4.1-1.2-8.2-1.9-12.3 3.7 3.5 7.8 6.6 11.9 9.5 2.2 1.6 4.5 3.1 6.8 4.5s4.6 2.9 7 4.3h.1c2.6-.8 4.9-2 7.2-3.4s4.4-3 6.5-4.6c2.1-1.7 4.1-3.4 6-5.3 1.6-1.5 3.2-3.2 4.7-4.8-.2 4-.5 8-.9 12z" fill="#18360f" stroke-width="none" opacity="1"></path><path id="SvgjsPath18322" d="M75.7 167.9s1.2-3.7 1.7-6.4c.6-2.7.4-9.3.4-9.3s-1.9 4.1-4.6 6.4-13.2 9.1-13.2 9.1l2.3 1.6S37.7 178 36 179.2c-1.7 1.2-1.9 3.7-1.9 3.7l-2.1.6c-4.1 16.8-4.1 36.6-4.1 36.6h54.5s-2.3-16.6-3.3-23c-.9-6.5-3.4-29.2-3.4-29.2zm92.7 15.5-2.1-.6s-.2-2.5-1.9-3.7c-1.7-1.2-26.3-9.9-26.3-9.9l2.3-1.6s-10.4-6.8-13.2-9.1c-2.7-2.3-4.6-6.4-4.6-6.4s-.2 6.6.4 9.3 1.7 6.4 1.7 6.4-2.5 22.6-3.5 29c-1 6.4-3.3 23-3.3 23h54.5c0 .2 0-19.5-4-36.4z" fill="#335529" stroke-width="none" opacity="1"></path><path id="SvgjsPath18323" d="M140.3 179c-1.8-1.9-4.2-3.2-6.2-5-2-1.8-3.6-3.9-5.4-5.9-.2-.2-.6.1-.4.3 1.3 2.5 3.1 4.7 5.1 6.7 1.7 1.7 3.9 3.9 6.3 4.7-5.2 9.5-8.4 21.2-9.6 31.9 0 .2.3.3.4.1 1.2-5.5 2.2-11 3.9-16.4 1.6-5.4 4.1-10.4 6.1-15.7.1-.1 0-.2-.1-.3.1-.1 0-.2-.1-.4zm-2-11.9c-2.1-1.2-4.3-2.2-6.3-3.6-2.2-1.5-4.2-3.3-6.1-5.2-.2-.2-.4.1-.2.2 3.1 3.9 7.5 7.8 12.4 9.1.3.2.5-.3.2-.5zm18.9 10.5c-5.7-2.4-11.6-4.6-17.5-6.4-.2-.1-.3.2-.1.3 3.5 1.7 7.1 3.3 10.7 4.8 4.6 1.9 10.2 3.1 12.7 7.8.2.4.8.1.7-.3-.6-3.5-3.5-5-6.5-6.2zm9.5 8.4c-.1-.4-.7-.3-.7.1.7 5.4 1.9 10.6 2.5 16 .6 5.4.4 10.9 1.1 16.2 0 .4.5.4.6 0 1.2-9.9-.4-22.8-3.5-32.3zm-92.6-16.9c.5-1 .6-2.2.8-3.3.3-1.2.7-2.4 1-3.6.1-.2-.2-.3-.3-.1-.7 1-1.1 2.1-1.6 3.2-.4 1.1-.9 2.4-.8 3.6.1.4.7.7.9.2zm-.3 1.6c0-.1-.2-.1-.2 0-.1 6.5 1.2 13.2 2.2 19.7 1 7.1 2.1 14.3 4 21.3 0 .1.1 0 .1 0-.7-6.6-1.8-13.1-2.8-19.6-1.2-7-1.5-14.4-3.3-21.4zm-5.1 0c-2.8 3.1-5.4 5.9-8.8 8.3-.4.3-.3.9.1 1 1.4 4.4 3.4 8.5 4.8 12.9 1.4 4.5 2.3 9.2 3.5 13.7.1.3.5.2.5-.1-.5-8.7-3.2-19.2-7.9-26.7 3.3-2.3 6.5-5.2 8.4-8.7 0-.4-.4-.7-.6-.4zm-32.6 11.1c1.3 5.7 3.9 11.4 5.9 16.9.1.3.5.2.5-.1-1.1-5.6-2.6-12.2-5.6-17.1-.4-.4-.9-.1-.8.3z" fill="#44643a" stroke-width="none" opacity="1"></path><path id="SvgjsPath18324" d="M80.7 200.4c-.3-2.2-.6-4.3-.9-6.5-1.1-8.6-2.2-17.3-3.4-25.9.4-1.2.7-2.5 1-3.7.1-.3.2-.6.2-.9.3-.4.9-1.1 1.3-2 .6-1.4 1.1-3.8 1.2-6.2s0-4.8 0-4.8-2.4 1.1-2.5 1.8c-.9 1.8-1.9 3.4-3.2 4.9-1.2 1.5-2.9 2.6-4.5 3.8-3 2.1-6 4.1-9.2 6-.3.2-.6.3-.9.5l-.1.1c-.2.2-.1.5.1.6.4.3.8.6 1.2.8l.2.2c-4.8 1.6-9.6 3.2-14.4 4.9-2.5.9-5.1 1.8-7.6 2.8l-1.9.8-1 .4c-.3.2-.7.3-1 .6-.7.5-1.2 1.2-1.5 1.9-.2.5-.4 1.1-.5 1.6l-1.6.4c-.3.1-.5.3-.6.6-1.4 6-2.2 12.2-2.8 18.3-.2 3.1-.5 6.1-.5 9.2 0 1.5-.1 3.1-.1 4.6v4.6l27 .6 13.8.2c4.6.1 9.2.1 13.8.1h.2c.6-.1 1-.6.9-1.2l-1.8-13-.9-6.1zM28 219.9c.1-.1 0-.3.1-.5v-.6l.1-1.1.1-2.3c.1-1.5.2-3.1.4-4.6.3-3.1.6-6.1 1-9.1s.9-6.1 1.4-9.1c.5-2.9 1.1-5.7 1.8-8.5l1.6-.4h.1c.5 1.2 1.1 2.4 1.5 3.7l.9 2.2.8 2.3c1 3 1.9 6.1 2.6 9.2.8 3.1 1.4 6.2 2 9.4.3 1.6.5 3.2.7 4.8.2 1.4.4 2.9.5 4.4l-15.6.2zm41-.8-13.5.2-12 .3c0-3.1-.2-6.2-.6-9.2-.4-3.2-1-6.4-1.7-9.5-.8-3.1-1.7-6.2-2.9-9.2-1-2.8-2.3-5.4-3.8-8 .2-.1.4-.4.4-.6.1-1.1.6-2.3 1.4-2.9.2-.2.4-.2.7-.4l.9-.4 1.9-.8 7.5-2.9 15-5.7c1.2.6 2.5 1.1 3.9 1.5-.5.4-1 .9-1.5 1.3-1.2 1-2.5 2-3.7 3-1.3.9-2.6 1.8-3.9 2.6-.4.2-.5.7-.4 1.1 1.3 3.3 2.6 6.6 3.8 9.9 1.2 3.3 2.3 6.7 3.5 10.1 1.1 3.4 2.1 6.8 3.1 10.2.9 3.1 1.6 6.3 2.4 9.5-.2-.1-.3-.1-.5-.1zm.6 0c-.3-3.3-.7-6.5-1.3-9.7-.7-3.5-1.5-7-2.5-10.5s-2.1-6.9-3.3-10.3c-1.2-3.1-2.4-6.2-3.8-9.3 1.2-.8 2.2-1.6 3.3-2.5 1.2-1 2.4-2.1 3.6-3.3 2.3-2.3 4.5-4.6 6.5-7.1-1.9 1.7-3.7 3.3-5.6 4.9-1.2-.9-2.4-1.6-3.7-2.3 0 0 0-.1-.1-.1l-1.1-.7c-.2-.1-.4-.3-.7-.4.1-.1.2-.1.3-.2 3-2 6-4.1 9-6.2 1.6-1.2 3.3-2.3 4.7-3.8 1-1.2 1.9-2.5 2.7-3.8 0 2.2-.1 4.4-.3 6.5-.2 1.3-.5 2.5-.9 3.8-.4 1.3-.8 2.5-1.2 3.8v.2c.8 8.7 1.8 17.4 2.8 26.1.2 2.2.5 4.4.8 6.5l.9 6.5 1.7 11.8c-4 0-7.9 0-11.8.1zm102.9-8.3c-.1-3.1-.3-6.1-.6-9.2-.5-6.1-1.4-12.3-2.8-18.3-.1-.3-.3-.5-.6-.6l-1.6-.4c-.1-.6-.2-1.1-.5-1.6-.3-.7-.8-1.4-1.5-1.9-.3-.3-.7-.4-1.1-.6l-1-.4-1.9-.8c-2.5-1-5.1-1.9-7.6-2.8-4.8-1.7-9.6-3.3-14.4-4.9l.2-.2c.4-.3.8-.5 1.2-.8.2-.1.3-.4.1-.6 0-.1-.1-.1-.1-.1-.3-.2-.6-.4-.9-.5-3.1-1.9-6.2-3.9-9.1-6-1.6-1.2-3.3-2.3-4.5-3.8-1.3-1.5-2.3-3.2-3.2-4.9 0-.1-.1-.1-.1-.1-.5-.6-2.4-1.1-2.4-1.1-.1 2.9-.1 7.4.5 9.7.4 1.7 1.8 3.6 2.4 4.5.3 1 .5 2 .8 2.9-1.2 8.6-2.3 17.2-3.4 25.9-.3 2.2-.6 4.3-.9 6.5l-1 6.5-1.8 13c-.1.6.3 1.1.9 1.2h.2c4.6 0 9.2 0 13.8-.1l13.8-.2 27-.6c.1-.3 0-.5.1-.6v-4c.1-2.1.1-3.6 0-5.1zm-53.4 8.1 1.7-11.8.9-6.5c.3-2.2.6-4.3.8-6.5 1-8.7 1.9-17.4 2.8-26.1v-.2c-.4-1.2-.8-2.5-1.2-3.8-.3-1.3-.7-2.5-.9-3.8-.2-2.1-.3-4.3-.3-6.5.8 1.4 1.7 2.6 2.7 3.8 1.3 1.6 3.1 2.7 4.7 3.8 3 2.1 6 4.1 9 6.2.1.1.2.1.3.2-.2.1-.4.3-.7.4l-1.1.7-.1.1c-1.3.7-2.5 1.4-3.7 2.3-1.9-1.6-3.8-3.2-5.6-4.9 2 2.5 4.2 4.9 6.5 7.1 1.1 1.1 2.3 2.2 3.6 3.3 1.1.9 2.1 1.7 3.3 2.5-1.4 3.1-2.6 6.1-3.8 9.3-1.2 3.4-2.4 6.8-3.3 10.3-1 3.4-1.8 7-2.5 10.5-.6 3.2-1.1 6.5-1.3 9.7-4 0-7.9 0-11.8-.1zm25.8.4-13.5-.2h-.5c.8-3.2 1.5-6.3 2.4-9.5.9-3.4 2-6.9 3.1-10.2 1.1-3.4 2.2-6.8 3.5-10.1 1.2-3.3 2.5-6.7 3.9-9.9.2-.4 0-.9-.4-1.1-1.3-.7-2.6-1.6-3.9-2.6-1.3-.9-2.5-1.9-3.7-3-.5-.4-1-.9-1.5-1.3 1.3-.4 2.6-1 3.9-1.5l15 5.7 7.5 2.9 1.9.8.9.4c.3.1.5.2.7.4.8.6 1.3 1.8 1.4 2.9 0 .3.2.5.4.6-1.4 2.6-2.7 5.2-3.8 8-1.2 3-2.1 6.1-2.9 9.2-.7 3.1-1.4 6.3-1.7 9.5-.4 3.1-.6 6.1-.6 9.2l-12.1-.2zm12 .3c.2-1.5.3-2.9.6-4.4.2-1.6.5-3.2.7-4.8.6-3.2 1.2-6.3 1.9-9.4.7-3.1 1.6-6.2 2.6-9.2l.8-2.3.9-2.2c.4-1.2 1-2.4 1.5-3.7h.1l1.6.4c.6 2.8 1.3 5.6 1.8 8.5.5 3 1 6 1.4 9.1.4 3 .7 6.1.9 9.1.1 1.5.3 3.1.4 4.6l.1 2.3.1 1.1v.6c0 .2 0 .4.1.5l-15.5-.2z" fill="#18360f" stroke-width="none" opacity="1"></path></g><g id="svga-group-head" transform="matrix(1,0,0,1,0,0)"><g id="svga-group-ears-left-move" transform="matrix(1,0,0,1,0,0)"><g id="svga-group-ears-left" transform="matrix(1,0,0,1,0,0)"><path id="SvgjsPath18137" d="M65.1 101.2s-1.7-4.8-3.2-7.5-3.4-6-6.3-6.8c-2.9-.8-3.8 3.7-2.7 7.8 1.1 4.1 4 13.1 4.7 16.6s1.7 7.7 3.4 7.1 6.8-7.1 4.1-17.2z" fill="#b2713b" stroke-width="none" opacity="1" stroke="none"></path><path id="SvgjsPath18138" d="M65.9 105.9c.1 1.6.1 3.2-.1 4.8-.5 3.1-1.8 6-3.8 7.9l-.4.3c-.2.1-.3.2-.5.3-.4.1-.9 0-1.3-.3-.7-.6-1.1-1.4-1.4-2.2-.6-1.6-.9-3.1-1.2-4.7-.3-1.5-.7-3-1.1-4.6l-1.2-4.6c-.4-1.5-.8-3-1.3-4.6l-.5-2.2c-.2-.8-.4-1.5-.6-2.3-.2-.8-.2-1.6-.2-2.4s.1-1.6.3-2.4.6-1.5 1.1-2c.6-.5 1.3-.6 2-.4 1.3.3 2.5 1.1 3.5 2.2s1.8 2.5 2.5 3.8c.7 1.4 1.3 2.8 1.9 4.3.6 1.5 1.1 2.9 1.6 4.4.3 1.6.6 3.1.7 4.7zM61.1 93c-.8-1.3-1.6-2.4-2.5-3.4s-2-1.7-3.1-2c-.5-.2-1-.1-1.5.2-.4.3-.8.8-1 1.5-.4 1.3-.5 2.9-.2 4.5.1.8.3 1.5.5 2.3s.4 1.5.7 2.3c.5 1.5 1 3 1.4 4.5.5 1.5 1 3 1.4 4.5.5 1.5.9 3 1.2 4.6.3 1.5.7 3.1 1.2 4.4.3.7.6 1.3.9 1.5.2.1.3.2.5.1.1 0 .2-.1.3-.2l.3-.3c.9-.8 1.6-1.9 2.3-3.1.6-1.2 1.1-2.5 1.5-3.9.7-2.8.6-6.1-.2-9.2-.9-3-2.1-5.8-3.7-8.3z" fill="#a35e26" stroke-width="none" opacity="1" stroke="none"></path><path id="SvgjsPath18139" d="M53.8 89.9c1.8-.8 3.4 1.3 4.6 3.1 1.5 2.3 2.5 5.2 2.8 8.2v.2c0 .2 0 .5.1.7 0 .2-.2.2-.2 0-.1-.4-.2-.8-.3-1.3 0-.1-.1-.2-.2-.3-1.2-.6-1.7-.3-1.7.8 0 .7.1 1.4.3 2.1.3 1.1.8 2.2 1.2 3.3.1.2-.2.4-.3.2-.9-1.5-2.4-5-1.4-6.8.5-.9 1.3-.8 1.8-.2-.5-1.9-1.1-4.1-2.1-5.9-2 4.2-.9 8.7.1 13.4 0 .2-.2.3-.2.1-1.3-4.4-2.6-10.1 0-13.7-1.1-2.1-2.6-3.7-4.5-3.6-.1.1-.2-.2 0-.3z" fill="#934d13" stroke-width="none" opacity="1" stroke="none"></path><path id="SvgjsPath18140" d="M61.1 108.8c.1 1.1 0 2.2-.5 3-.1.1-.2 0-.1-.1.3-.9.6-1.8.5-2.9-.1-.1 0-.2.1 0z" fill="#934d13" stroke-width="none" opacity="1" stroke="none"></path></g></g><g id="svga-group-ears-right-move" transform="matrix(1,0,0,1,0,0)"><g id="svga-group-ears-right" transform="matrix(1,0,0,1,0,0)"><path id="SvgjsPath18141" d="M134.9 101.2s1.7-4.8 3.2-7.5 3.4-6 6.3-6.8c2.9-.8 3.8 3.7 2.7 7.8-1.1 4.1-4 13.1-4.7 16.6s-1.7 7.7-3.4 7.1-6.8-7.1-4.1-17.2z" fill="#b2713b" stroke-width="none" opacity="1" stroke="none"></path><path id="SvgjsPath18142" d="M134.9 101.2c.5-1.5 1.1-2.9 1.6-4.4s1.2-2.9 1.9-4.3 1.5-2.7 2.5-3.8c1-1.1 2.2-2 3.5-2.2.7-.2 1.4 0 2 .4.6.5.9 1.2 1.1 2 .2.8.3 1.6.3 2.4s-.1 1.6-.2 2.4c-.1.8-.4 1.6-.6 2.3l-.6 2.3c-.4 1.5-.8 3-1.3 4.6l-1.2 4.6c-.4 1.5-.8 3-1.1 4.6s-.6 3.2-1.2 4.7c-.3.8-.6 1.6-1.4 2.2-.4.3-.9.4-1.3.3-.2-.1-.3-.2-.5-.3l-.4-.3c-2-1.9-3.3-4.8-3.8-7.9-.3-1.6-.3-3.2-.1-4.8.1-1.7.4-3.2.8-4.8zm.1.1c-.8 3-.9 6.3-.2 9.2.4 1.4.9 2.7 1.5 3.9.6 1.2 1.4 2.3 2.3 3.1l.3.3c.1 0 .2.1.3.2.2.1.3 0 .5-.1.3-.3.7-.9.9-1.5.5-1.3.9-2.9 1.2-4.4.3-1.6.8-3.1 1.2-4.6.5-1.5 1-3 1.4-4.5.5-1.5 1-3 1.4-4.5.2-.7.5-1.5.7-2.3s.4-1.5.5-2.3c.3-1.5.2-3.1-.2-4.5-.2-.6-.6-1.2-1-1.5s-1-.3-1.5-.2c-1.1.3-2.1 1.1-3.1 2-.9 1-1.7 2.2-2.5 3.4-1.4 2.5-2.6 5.3-3.7 8.3z" fill="#a35e26" stroke-width="none" opacity="1" stroke="none"></path><path id="SvgjsPath18143" d="M146.2 89.9c-1.8-.8-3.4 1.3-4.6 3.1-1.5 2.3-2.5 5.2-2.8 8.2v.2c0 .2 0 .5-.1.7 0 .2.2.2.2 0 .1-.4.2-.8.3-1.3 0-.1.1-.2.2-.3 1.2-.6 1.7-.3 1.7.8 0 .7-.1 1.4-.3 2.1-.3 1.1-.8 2.2-1.2 3.3-.1.2.2.4.3.2.9-1.5 2.4-5 1.4-6.8-.5-.9-1.3-.8-1.8-.2.5-1.9 1.1-4.1 2.1-5.9 2 4.2.9 8.7-.1 13.4 0 .2.2.3.2.1 1.3-4.4 2.6-10.1 0-13.7 1.1-2.1 2.6-3.7 4.5-3.6.1.1.2-.2 0-.3z" fill="#934d13" stroke-width="none" opacity="1" stroke="none"></path><path id="SvgjsPath18144" d="M138.9 108.8c-.1 1.1 0 2.2.5 3 .1.1.2 0 .1-.1-.3-.9-.6-1.8-.5-2.9.1-.1 0-.2-.1 0z" fill="#934d13" stroke-width="none" opacity="1" stroke="none"></path></g></g><g id="svga-group-faceshape-wrap" transform="matrix(1,0,0,1,0,0)"><g id="svga-group-faceshape-single"><path id="SvgjsPath18173" d="M141 85.4c-1.2-28.5-19.71-43.67-41.01-43.67C78.59 41.73 60.2 56.9 59 85.4c0 0-.2 10.7 2.2 23.9s7.5 22.3 10.9 29.6 13.96 10.88 27.96 10.88 24.54-3.58 27.84-10.88c3.4-7.3 8.5-16.3 10.9-29.6 2.5-13.2 2.2-23.9 2.2-23.9z" fill="#b2713b" stroke-width="none" opacity="1" stroke="none"></path><path id="SvgjsPath18174" d="M72.1 138.9c3.4 7.3 13.9 11.5 27.9 11.5s24.6-4.2 27.9-11.5c3.3-7.3 8.5-16.3 10.9-29.6 2.4-13.2 2.2-23.9 2.2-23.9-1.2-28.5-19.7-44.1-41-44.1S60.2 57 59 85.4c0 0-.2 10.7 2.2 23.9 2.4 13.3 7.5 22.3 10.9 29.6zM60 91.64c-.1-1.61-.2-3.23-.2-4.84v-1.22l.1-1.21.1-1.21.1-1.21.1-1.21c0-.4.1-.81.2-1.21l.2-1.21c.1-.4.1-.81.2-1.21.6-3.13 1.4-6.26 2.6-9.18 1.2-2.93 2.7-5.75 4.5-8.38 1.8-2.62 3.9-4.95 6.3-6.96 2.4-2.02 5-3.73 7.8-5.05.3-.2.7-.3 1-.5.4-.2.7-.3 1.1-.5l1.1-.4c.2-.1.4-.1.5-.2l.5-.2 1.1-.4 1.1-.3c.7-.2 1.5-.4 2.2-.61 3-.71 6-1.01 9.1-1.01h2.2l1.1.1c.4 0 .8 0 1.1.1.8.1 1.5.2 2.3.3.4.1.8.1 1.1.2l1.1.2c.8.1 1.5.3 2.2.5.4.1.7.2 1.1.3s.7.2 1.1.3c.7.3 1.4.5 2.2.81.4.1.7.3 1.1.4l1 .5c2.8 1.31 5.4 2.93 7.8 4.84 2.4 1.92 4.6 4.14 6.6 6.66 1.9 2.52 3.6 5.25 4.9 8.17 2.6 5.85 3.9 12.31 4.2 18.77 0 3.23-.2 6.46-.5 9.69s-.8 6.46-1.4 9.59c-.2.81-.3 1.61-.5 2.42l-.5 2.32-.6 2.32-.7 2.32c-.9 3.03-2.1 6.06-3.3 8.98-1.3 2.93-2.7 5.75-4.2 8.68l-2.2 4.34-1.1 2.22s-.9 1.41-1 1.61c-1.6 2.12-4 3.84-6.6 5.05-2.7 1.21-5.6 2.02-8.6 2.52s-6.1.71-9.2.81c-3.1 0-6.2-.1-9.2-.61-3-.4-6-1.11-8.7-2.32-2.7-1.11-5.2-2.72-7-4.74-.4-.5-.8-1.11-1.1-1.61-.3-.5-.7-1.31-1-2.12l-2.2-4.34c-1.4-2.93-2.8-5.75-4-8.68-.6-1.51-1.2-2.93-1.7-4.44l-.4-1.11-.4-1.11c-.1-.4-.3-.71-.4-1.11l-.3-1.11c-.9-3.03-1.6-6.16-2.2-9.29-.6-3.13-1.1-6.36-1.4-9.59-.1-1.49-.3-3-.4-4.62z" fill="#843e04" stroke-width="none" opacity="1" stroke="none"></path></g></g><g id="svga-group-mouth-single-move" transform="matrix(1,0,0,1,0,0)"><g id="svga-group-mouth-single" transform="matrix(1,0,0,1,0,0)"><path id="SvgjsPath18124" d="M84.5 124.5c.2 0 5.6 6.5 8.5 8 2.9 1.4 9 2 12.5.7s9.5-9.1 9.5-9.1-6.4 1.8-9.9 2.2c-3.5.4-11.7-.2-15-.7s-5.6-1.1-5.6-1.1z" fill="#000000" stroke-width="none" opacity="1" transform="translate(0 3)"></path><path id="SvgjsPath18125" d="M90 125.6c-3.3-.5-5.5-1.1-5.5-1.1.1 0 1.7 1.9 3.6 3.8 2.2.9 5.1 2 7.5 2.4 4.6.7 10.4.2 15.2-2.1.3-.1.6-.3.8-.4 1.9-2.1 3.4-4 3.4-4s-6.4 1.8-9.9 2.2c-3.6.3-11.8-.3-15.1-.8z" fill="#ffffff" stroke-width="none" opacity="1" transform="translate(0 3)"></path><path id="SvgjsPath18126" d="M116.9 123.3c-.1-.1-.1-.2-.2-.3-.3-.3-.6-.6-1-.6-.3 0-.5.4-.3.6 0 .1.1.1.1.2-2.4.4-4.8 1.2-7.2 1.6-2.9.5-5.9.6-8.8.7-1.3.1-7.09-.46-8.69-.66-2.4-.4-4.61-.94-7.01-1.24v-.5c-.1-.1-.2-.2-.3-.2-.4 0-.5.3-.7.6-.2.3-.3.6-.4.8-.2.5.4.9.8.4.1-.1.2-.3.3-.4 3.1 2.3 5.2 5.4 8.1 7.7 2.8 2.3 5.8 2.9 9.4 3 3.5.1 6.8-.8 9.2-3.5 1.1-1.2 1.9-2.5 2.9-3.8s2.1-2.3 3.2-3.4c.1.2.2.4.4.5.2.1.4.1.5-.1.3-.2 0-1-.3-1.4zm-6.5 5.1c-2.7 3-5.5 4.3-9.6 4.6s-7.5-.4-10.5-3.3c-1.5-1.4-2.8-3.1-4.4-4.4 1.8.6 3.9.9 5.6 1.2 1.4.3 6.11.92 8.4.9 2.8.1 5.6-.5 8.4-1.1 1.7-.3 3.4-.7 5-1.2-1.1 1-2 2.3-2.9 3.3z" fill="#E2929B" stroke-width="none" opacity="1" transform="translate(0 3)" stroke="none"></path></g></g><g id="svga-group-eyes-left-move" transform="matrix(1,0,0,1,0,0)"><g id="svga-group-eyes-left" transform="matrix(1,0,0,1,0,0)"><g id="svga-group-eyesback-left"><path id="SvgjsPath18233" d="M91.7 99.7s-3.6 1.3-5.4 1.5-4.8.3-8.2-.1-5.6-1.1-5.6-1.1 1.3-3 4-5c2.8-1.9 6.2-2.4 9-1.6 2.7.8 4.9 3.3 5.3 4.5l.9 1.8z" fill="#ffffff" stroke-width="none" opacity="1"></path></g><g id="svga-group-eyesiriswrapper-left" transform="matrix(1,0,0,1,0,0)"><g id="svga-group-eyesiriscontrol-left" transform="matrix(1,0,0,1,0,0)"><g id="svga-group-eyesiris-left" transform="matrix(1,0,0,1,0,0)"><path id="SvgjsPath18187" d="M82 91c3 0 5.4 2.4 5.4 5.4s-2.4 5.4-5.4 5.4-5.4-2.4-5.4-5.4S79 91 82 91z" fill="#9fae70" stroke-width="none" opacity="1"></path><path id="SvgjsPath18188" d="M82 91.3c2.8 0 5.2 2.3 5.2 5.2s-2.3 5.2-5.2 5.2c-2.8 0-5.2-2.3-5.2-5.2s2.3-5.2 5.2-5.2m0-.5c-3.1 0-5.7 2.6-5.7 5.7s2.6 5.7 5.7 5.7 5.7-2.6 5.7-5.7c0-3.2-2.6-5.7-5.7-5.7z" fill="#7c8f40" stroke-width="none" opacity="1"></path><path id="SvgjsPath18189" d="M79.1 98c0 1.3.5 2.5 1.4 3.4.5.2 1 .2 1.5.2 2.8 0 5.2-2.3 5.2-5.2 0-1.1-.3-2-.9-2.8-.7-.4-1.5-.6-2.3-.6-2.7 0-4.9 2.2-4.9 5z" fill="#b2bd8d" stroke-width="none" opacity="1"></path><path id="SvgjsPath18190" d="M82 93.6c1.5 0 2.8 1.3 2.8 2.8s-1.3 2.8-2.8 2.8-2.8-1.3-2.8-2.8 1.3-2.8 2.8-2.8z" fill="#000000" stroke-width="none" opacity="1"></path><path id="SvgjsPath18191" d="M80.8 93.5c.8 0 1.4.6 1.4 1.4s-.6 1.4-1.4 1.4-1.4-.6-1.4-1.4.6-1.4 1.4-1.4zm2.7 4c.5 0 .9.4.9.9s-.4.9-.9.9-.9-.4-.9-.9.4-.9.9-.9z" fill="#ffffff" stroke-width="none" opacity="1"></path></g></g></g><g id="svga-group-eyesfront-left"><path id="SvgjsPath18241" d="M70.7 98c0 6.9 4.9 12.5 11 12.5s11-5.6 11-12.5-4.9-12.5-11-12.5-11 5.6-11 12.5zm1.9 1.9s1.3-3 4-5c2.8-1.9 6.2-2.4 9-1.6 2.7.8 4.9 3.3 5.3 4.5.5 1.2.8 1.8.8 1.8s-3.6 1.3-5.4 1.5-4.8.3-8.2-.1c-3.3-.3-5.5-1.1-5.5-1.1z" fill="#b2713b" stroke-width="none" opacity="1" stroke="none"></path><path id="SvgjsPath18242" d="M92.5 99.2c-1.7-4-4.8-7.2-9.3-7.8-4.8-.6-9.3 2.5-11.2 6.8 0 .1-.2 0-.2-.1 1.8-4.4 6.3-7.3 11.1-7 4.4.3 8.8 3.6 9.6 8.1.1 0 .1 0 0 0z" fill="#a35e26" stroke-width="none" opacity="1" stroke="none"></path><path id="SvgjsPath18243" d="M69.6 98.6c.9 0 1.8.1 2.7.2.3-.5.6-.9.9-1.4-.9-.4-1.7-.9-2.4-1.5-.1-.1 0-.3.1-.2.9.3 1.8.8 2.6 1.3.3-.4.6-.8 1-1.1-.7-.5-1.4-1-1.9-1.7-.1-.1 0-.3.2-.2.7.4 1.4 1 2 1.6.5-.4.9-.8 1.5-1.2-.6-.7-1.1-1.4-1.7-2.1-.1-.1.1-.3.2-.2.7.6 1.3 1.3 1.8 2.1.3-.2.7-.4 1.1-.6-.3-.5-.6-1-.9-1.6-.1-.2.1-.3.2-.2.5.4.8 1 1 1.6.5-.2.9-.4 1.4-.5-.2-.6-.4-1.1-.5-1.7 0-.2.1-.4.2-.2.2.6.4 1.2.5 1.9.5-.2 1.1-.3 1.7-.3-.1-.5-.2-1-.2-1.5 0-.2.2-.2.3 0 .2.5.2 1 .2 1.5.4 0 .7-.1 1.1-.1 4.9-.1 8 2.8 9.5 7.3.1.3-.3.3-.4.1-1.7-4.4-5.2-6.9-10-6.3-3.9.4-6.8 2.8-8.5 6.1 5.7 1.3 12.6 1.9 18.2.1.1 0 .1.1 0 .2-3 1.2-5.6 1.8-8.8 1.7H82c0 .2.1.3.1.5 0 .1-.2.1-.3 0-.1-.2-.1-.4-.1-.5-.5 0-.9 0-1.4-.1 0 .2 0 .4-.1.6 0 .1-.2.1-.2 0 0-.2 0-.4.1-.6-.5 0-1-.1-1.5-.1-.1.3-.2.6-.4.9-.1.1-.3.1-.3-.1 0-.3 0-.6.1-.8-.4 0-.8-.1-1.2-.1 0 .1-.1.3-.1.4-.1.2-.2.5-.3.6-.1.1-.3 0-.3-.1 0-.3.1-.5.2-.8 0-.1.1-.2.1-.3-.5-.1-.9-.1-1.4-.2-.1.1-.2.3-.3.4-.2.2-.4.5-.6.7-.1.1-.3 0-.2-.1.1-.3.3-.6.5-.8.1-.1.1-.2.2-.3-.8-.1-1.6-.3-2.3-.5-.4-.1-.5-.5-.3-.8.1-.2.2-.3.3-.5-.9 0-1.8-.1-2.5-.4-.4.2-.4-.1-.2-.1z" fill="#2e0914" stroke-width="none" opacity="1" stroke="none"></path></g></g></g><g id="svga-group-eyes-right-move" transform="matrix(1,0,0,1,0,0)"><g id="svga-group-eyes-right" transform="matrix(1,0,0,1,0,0)"><g id="svga-group-eyesback-right"><path id="SvgjsPath18234" d="M108.3 99.7s3.6 1.3 5.4 1.5 4.8.3 8.2-.1 5.6-1.1 5.6-1.1-1.3-3-4-5c-2.8-1.9-6.2-2.4-9-1.6-2.7.8-4.9 3.3-5.3 4.5l-.9 1.8z" fill="#ffffff" stroke-width="none" opacity="1"></path></g><g id="svga-group-eyesiriswrapper-right" transform="matrix(1,0,0,1,0,0)"><g id="svga-group-eyesiriscontrol-right" transform="matrix(1,0,0,1,0,0)"><g id="svga-group-eyesiris-right" transform="matrix(1,0,0,1,0,0)"><path id="SvgjsPath18192" d="M118 91c3 0 5.4 2.4 5.4 5.4s-2.4 5.4-5.4 5.4-5.4-2.4-5.4-5.4S115 91 118 91z" fill="#9fae70" stroke-width="none" opacity="1"></path><path id="SvgjsPath18193" d="M118 91.3c2.8 0 5.2 2.3 5.2 5.2s-2.3 5.2-5.2 5.2c-2.8 0-5.2-2.3-5.2-5.2s2.4-5.2 5.2-5.2m0-.5c-3.1 0-5.7 2.6-5.7 5.7s2.6 5.7 5.7 5.7 5.7-2.6 5.7-5.7c0-3.2-2.5-5.7-5.7-5.7z" fill="#7c8f40" stroke-width="none" opacity="1"></path><path id="SvgjsPath18194" d="M115.1 98c0 1.3.5 2.5 1.4 3.4.5.2 1 .2 1.5.2 2.8 0 5.2-2.3 5.2-5.2 0-1.1-.3-2-.9-2.8-.7-.3-1.4-.6-2.3-.6-2.7 0-4.9 2.2-4.9 5z" fill="#b2bd8d" stroke-width="none" opacity="1"></path><path id="SvgjsPath18195" d="M118 93.6c1.5 0 2.8 1.3 2.8 2.8s-1.3 2.8-2.8 2.8-2.8-1.3-2.8-2.8 1.3-2.8 2.8-2.8z" fill="#000000" stroke-width="none" opacity="1"></path><path id="SvgjsPath18196" d="M116.8 93.5c.8 0 1.4.6 1.4 1.4s-.6 1.4-1.4 1.4-1.4-.6-1.4-1.4.7-1.4 1.4-1.4zm2.7 4c.5 0 .9.4.9.9s-.4.9-.9.9-.9-.4-.9-.9.4-.9.9-.9z" fill="#ffffff" stroke-width="none" opacity="1"></path></g></g></g><g id="svga-group-eyesfront-right"><path id="SvgjsPath18244" d="M118.3 85.5c-6.1 0-11 5.6-11 12.5s4.9 12.5 11 12.5 11-5.6 11-12.5-5-12.5-11-12.5zm3.5 15.6c-3.4.4-6.4.2-8.2.1s-5.4-1.5-5.4-1.5.4-.6.8-1.8c.5-1.2 2.6-3.7 5.3-4.5 2.7-.8 6.2-.4 9 1.6 2.8 1.9 4 5 4 5s-2.1.7-5.5 1.1z" fill="#b2713b" stroke-width="none" opacity="1" stroke="none"></path><path id="SvgjsPath18247" d="M107.5 99.2c1.7-4 4.8-7.2 9.3-7.8 4.8-.6 9.3 2.5 11.2 6.8 0 .1.2 0 .2-.1-1.8-4.4-6.3-7.3-11.1-7-4.4.3-8.8 3.6-9.6 8.1-.1 0-.1 0 0 0z" fill="#a35e26" stroke-width="none" opacity="1" stroke="none"></path><path id="SvgjsPath18248" d="M130.4 98.6c-.9 0-1.8.1-2.7.2-.3-.5-.6-.9-.9-1.4.9-.4 1.7-.9 2.4-1.5.1-.1 0-.3-.1-.2-.9.3-1.8.8-2.6 1.3-.3-.4-.6-.8-1-1.1.7-.5 1.4-1 1.9-1.7.1-.1 0-.3-.2-.2-.7.4-1.4 1-2 1.6-.5-.4-.9-.8-1.5-1.2.6-.7 1.1-1.4 1.7-2.1.1-.1-.1-.3-.2-.2-.7.6-1.3 1.3-1.8 2.1-.3-.2-.7-.4-1.1-.6.3-.5.6-1 .9-1.6.1-.2-.1-.3-.2-.2-.5.4-.8 1-1 1.6-.5-.2-.9-.4-1.4-.5.2-.6.4-1.1.5-1.7 0-.2-.1-.4-.2-.2-.2.6-.4 1.2-.5 1.9-.5-.2-1.1-.3-1.7-.3.1-.5.2-1 .2-1.5 0-.2-.2-.2-.3 0-.2.5-.2 1-.2 1.5-.4 0-.7-.1-1.1-.1-4.9-.1-8 2.8-9.5 7.3-.1.3.3.3.4.1 1.7-4.4 5.2-6.9 10-6.3 3.9.4 6.8 2.8 8.5 6.1-5.7 1.3-12.6 1.9-18.2.1-.1 0-.1.1 0 .2 3 1.2 5.6 1.8 8.8 1.7h.7c0 .2-.1.3-.1.5 0 .1.2.1.3 0 .1-.2.1-.4.1-.5.5 0 .9 0 1.4-.1 0 .2 0 .4.1.6 0 .1.2.1.2 0 0-.2 0-.4-.1-.6.5 0 1-.1 1.5-.1.1.3.2.6.4.9.1.1.3.1.3-.1 0-.3 0-.6-.1-.8.4 0 .8-.1 1.2-.1 0 .1.1.3.1.4.1.2.2.5.3.6.1.1.3 0 .3-.1 0-.3-.1-.5-.2-.8 0-.1-.1-.2-.1-.3.5-.1.9-.1 1.4-.2.1.1.2.3.3.4.2.2.4.5.6.7.1.1.3 0 .2-.1-.1-.3-.3-.6-.5-.8-.1-.1-.1-.2-.2-.3.8-.1 1.6-.3 2.3-.5.4-.1.5-.5.3-.8-.1-.2-.2-.3-.3-.5.9 0 1.8-.1 2.5-.4.4.2.4-.1.2-.1z" fill="#2e0914" stroke-width="none" opacity="1" stroke="none"></path></g></g></g><g id="svga-group-facehighlight-single"></g><g id="svga-group-eyebrows-left-move" transform="matrix(1,0,0,1,0,0)"><g id="svga-group-eyebrows-left-rotate" transform="matrix(1,0,0,1,0,0)"><g id="svga-group-eyebrows-left" transform="matrix(1,0,0,1,0,0)"><path id="SvgjsPath18300" d="M69.1 85.4c.3-.2.7-.3 1.2-.4.4-.1.9-.2 1.4-.3.6-.1 1.2-.2 1.8-.2 1.6-.6 3.7-.6 5.3-.5.6-.1 1.2-.1 1.8-.1 1.4-.1 2.9-.1 4.3.1h2c1.8 0 3.6-.1 5.3.3.1-.2.3 0 .3.2V84.8c0 .1 0 .1-.1.2-.1.9-.4 1.7-.7 2.5-.1.3-.4.4-.7.3l-.9-.3c-.9.1-1.9-.1-2.8-.2-.3-.1-.6-.1-1-.1 0 0-.1.1-.2.1-.6 0-1.2-.1-1.8-.2-1.1.2-2.3 0-3.4-.2-.1 0-.2 0-.2-.1 0 .1-.1.1-.1.1-1.6.1-3.7.1-5.4-.5-1.3.2-2.8.2-4-.2-.1 0-.1-.1-.2-.2-.5.1-1 .1-1.4-.1-.1 0-.2 0-.3-.1-.4 0-.4-.3-.2-.4z" fill="#2a232b" stroke-width="none" opacity="1"></path><path id="SvgjsPath18301" d="M88.3 84.6c1.2.6 2 1.8 2.5 2.9.2-.8.2-1.5.3-2.3 0-.2.3-.2.3-.1.3.9 0 1.9-.5 2.7-.1.1-.2.1-.2 0 0 0-.1 0-.1-.1-.8-1.1-1.7-2-2.6-2.9 0-.1.1-.3.3-.2zm-7-.4c2.2.3 4.4 1.5 6 3.1.1.1 0 .3-.2.2-1.8-1.4-3.7-2.2-5.9-2.9-.1-.2-.1-.5.1-.4zm-1.4.2c1.9.1 3.7 1.4 4.8 2.8.1.1 0 .2-.1.1-1.4-1.3-2.9-2-4.7-2.6-.2-.1-.2-.4 0-.3zm-4.9-.3c1.8.2 3.5 1.2 4.9 2.3.1.1 0 .3-.2.2-1.5-1.1-3.1-1.6-4.8-2.2-.1 0-.1-.3.1-.3zm-4.9 1c2.1-.2 4.1.6 6.1 1.3.2.1.1.4-.1.3-2-.7-3.9-1.2-6-1.4-.1 0-.1-.1 0-.2z" fill="#3a353a" stroke-width="none" opacity="1"></path><path id="SvgjsPath18302" d="M92 86c.2-.7.2-1.3.3-2 0-.2.2-.2.3 0 .4 1.4-.1 3.1-1 4.2-.2.3-.6-.1-.5-.3.4-.7.7-1.3.9-1.9zm-25.4 0h.2c0 .1.1.2.2.2 3.8.6 7.8.7 11.6 1.1 2 .2 3.9.3 5.9.5 1.9.2 4 .5 5.9.4.1.1.2.1.2 0h.1c.2 0 .3-.4.1-.4-.1 0-.2-.1-.3-.1-.9-1.3-2.1-2.5-3.4-3.3 1.5.1 2.9.2 4.4.2.1 0 .2-.2 0-.2-4-1.1-8.4-1-12.6-.8-4 .2-8.7.5-12.4 2-.2 0-.2.5.1.4zM90 87.5c-.6-.1-1.1-.2-1.7-.2-1.3-1.5-2.9-2.7-4.8-3.2 1 0 2 .1 3 .2 1.3.9 2.5 2 3.5 3.2zm-10.7-1c-.2 0-.3 0-.5-.1 0 0 0-.1-.1-.1-1.1-.8-2.3-1.5-3.6-2 1.3-.2 2.5-.3 3.8-.3 1.4-.1 2.8-.1 4.2 0-.1.1-.1.2 0 .3 1.6.9 3 1.8 4.4 2.9-.8-.1-1.6-.1-2.4-.2-.4 0-.9-.1-1.3-.1-1.3-1.2-2.8-2.1-4.4-2.5-.1 0-.2.2-.1.2 1.4.7 2.7 1.4 3.9 2.3-1.2-.1-2.5-.2-3.9-.4zM69 85.6c1.2-.3 2.4-.6 3.6-.8.5-.1 1-.2 1.5-.2 1.5.5 2.9 1 4.2 1.8-3.1-.3-6.2-.7-9.3-.8z" fill="#1b141c" stroke-width="none" opacity="1"></path></g></g></g><g id="svga-group-eyebrows-right-move" transform="matrix(1,0,0,1,0,0)"><g id="svga-group-eyebrows-right-rotate" transform="matrix(1,0,0,1,0,0)"><g id="svga-group-eyebrows-right" transform="matrix(1,0,0,1,0,0)"><path id="SvgjsPath18303" d="M130.9 85.4c-.3-.2-.7-.3-1.2-.4-.4-.1-.9-.2-1.4-.3-.6-.1-1.2-.2-1.8-.2-1.6-.6-3.7-.6-5.3-.5-.6-.1-1.2-.1-1.8-.1-1.4-.1-2.9-.1-4.3.1h-2c-1.8 0-3.6-.1-5.3.3-.1-.2-.3 0-.3.2V84.8c0 .1 0 .1.1.2.1.9.4 1.7.7 2.5.1.3.4.4.7.3l.9-.3c.9.1 1.9-.1 2.8-.2.3-.1.6-.1 1-.1 0 0 .1.1.2.1.6 0 1.2-.1 1.8-.2 1.1.2 2.3 0 3.4-.2.1 0 .2 0 .2-.1 0 .1.1.1.1.1 1.6.1 3.7.1 5.4-.5 1.3.2 2.8.2 4-.2.1 0 .1-.1.2-.2.5.1 1 .1 1.4-.1.1 0 .2 0 .3-.1.4 0 .4-.3.2-.4z" fill="#2a232b" stroke-width="none" opacity="1"></path><path id="SvgjsPath18304" d="M111.7 84.6c-1.2.6-2 1.8-2.5 2.9-.2-.8-.2-1.5-.3-2.3 0-.2-.3-.2-.3-.1-.3.9 0 1.9.5 2.7.1.1.2.1.2 0 0 0 .1 0 .1-.1.8-1.1 1.7-2 2.6-2.9 0-.1-.1-.3-.3-.2zm7-.4c-2.2.3-4.4 1.5-6 3.1-.1.1 0 .3.2.2 1.8-1.4 3.7-2.2 5.9-2.9.1-.2.1-.5-.1-.4zm1.4.2c-1.9.1-3.7 1.4-4.8 2.8-.1.1 0 .2.1.1 1.4-1.3 2.9-2 4.7-2.6.2-.1.2-.4 0-.3zm4.9-.3c-1.8.2-3.5 1.2-4.9 2.3-.1.1 0 .3.2.2 1.5-1.1 3.1-1.6 4.8-2.2.1 0 .1-.3-.1-.3zm4.9 1c-2.1-.2-4.1.6-6.1 1.3-.2.1-.1.4.1.3 2-.7 3.9-1.2 6-1.4.1 0 .1-.1 0-.2z" fill="#3a353a" stroke-width="none" opacity="1"></path><path id="SvgjsPath18305" d="M108 86c-.2-.7-.2-1.3-.3-2 0-.2-.2-.2-.3 0-.4 1.4.1 3.1 1 4.2.2.3.6-.1.5-.3-.4-.7-.7-1.3-.9-1.9zm25.4-.5c-3.8-1.5-8.4-1.8-12.4-2-4.1-.2-8.6-.3-12.6.8-.1 0-.1.2 0 .2 1.5 0 2.9-.1 4.4-.2-1.4.8-2.6 2-3.4 3.3-.1 0-.2 0-.3.1-.3.1-.2.4.1.4h.1c.1.1.2.1.2 0 2 .1 4-.2 5.9-.4 2-.2 3.9-.3 5.9-.5 3.8-.3 7.8-.5 11.6-1.1.1 0 .2-.1.2-.2h.2c.4.2.4-.3.1-.4zm-19.9-1.3c1-.1 2-.1 3-.2-1.9.5-3.6 1.7-4.8 3.2-.6.1-1.2.1-1.7.2 1-1.1 2.2-2.2 3.5-3.2zm3.2 2.7c1.2-.9 2.6-1.6 3.9-2.3.1-.1 0-.2-.1-.2-1.7.4-3.2 1.4-4.4 2.5-.4 0-.9.1-1.3.1-.8.1-1.6.1-2.4.2 1.4-1.1 2.8-2 4.4-2.9.1-.1.1-.2 0-.3 1.4-.1 2.8-.1 4.2 0 1.3.1 2.5.2 3.8.3-1.3.4-2.5 1.1-3.6 2 0 0 0 .1-.1.1-.2 0-.3 0-.5.1-1.3.2-2.6.3-3.9.4zm5-.5c1.3-.8 2.7-1.4 4.2-1.8.5.1 1 .1 1.5.2 1.2.2 2.4.5 3.6.8-3.1.1-6.2.5-9.3.8z" fill="#1b141c" stroke-width="none" opacity="1"></path></g></g></g><g id="svga-group-nose-single-move" transform="matrix(1,0,0,1,0,0)"><g id="svga-group-nose-single" transform="matrix(1,0,0,1,0,0)"><path id="SvgjsPath18279" d="M94.94 88.27c1.09.9 1.93 1.85 2.34 3.25.46 1.58.01 2.89-.24 4.43-.13.83-.12 1.6.01 2.43.3 1.82.37 3.1-.45 4.84-.89 1.9-1.83 3.6-1.99 5.74-.16 2.17.41 4.19 1.48 6.07.08.15.3.02.23-.13-1.42-3.01-1.47-6.54-.07-9.57.83-1.8 1.93-3.43 1.69-5.5-.18-1.62-.5-2.94-.16-4.61.18-.87.35-1.73.26-2.63-.18-1.86-1.29-3.63-2.92-4.55-.15-.08-.32.12-.18.23z" fill="#843e04" stroke-width="none" opacity="1" transform="translate(0 2)" stroke="none"></path><path id="SvgjsPath18280" d="M93.24 112.44c-1.27 1.59-2.06 6.22.65 7.01 1.79.52 2.16-2.61 4-1.23.99.74 1.24 2.28 2.78 2.12 1.1-.12 1.64-1.17 2.46-1.75 1.49-1.06 2.77 1.2 4.24.13 2.19-1.59.45-5.37-1.21-6.58-.31-.23-.67.27-.41.53 1.04 1.01 2.38 2.98 1.66 4.56-.88 1.93-2.26.03-3.42.11-1.92.13-2.62 3.5-4.74 1.47-.84-.8-1.73-2.54-3.19-1.71-.17.1-.3.26-.43.4-.16.23-.31.48-.43.73-1.44.21-2.24-.2-2.38-1.24-.48-1.46.09-3.07.65-4.41.07-.13-.14-.25-.23-.14z" fill="#843e04" stroke-width="none" opacity="1" transform="translate(0 2)" stroke="none"></path><path id="SvgjsPath18281" d="M105.73 88.66c-3.59 2.68-1.04 6.83-1.81 10.38-.03.14.16.23.23.1.63-1.1.51-2.29.3-3.5-.48-2.75-.43-4.56 1.48-6.72.11-.13-.04-.37-.2-.26z" fill="#843e04" stroke-width="none" opacity="1" transform="translate(0 2)" stroke="none"></path><path id="SvgjsPath18282" d="M103.91 102.3c.7 2.53.9 4.93 1.01 7.53 0 .11.18.15.2.03.41-2.5-.08-5.28-1.03-7.61-.04-.11-.21-.07-.18.05z" fill="#843e04" stroke-width="none" opacity="1" transform="translate(0 2)" stroke="none"></path><path id="SvgjsPath18283" d="M104.48 108.47c-.12-1.87-.5-4.29-1.95-5.6-.25-.23-.69-.08-.68.28.03 1.79.74 3.49.74 5.31 0 1.52-.87 3.56-.29 4.98.12.3.45.5.76.31 1.55-.93 1.52-3.67 1.42-5.28z" fill="#ba7b47" stroke-width="none" opacity="1" transform="translate(0 2)" stroke="none"></path></g></g><g id="svga-group-hair-front" transform="matrix(1,0,0,1,0,0)"><path id="SvgjsPath18348" d="M105.8 52.5s-.9 15.7-17.9 18.5c-12.8 2.1-27.8 6.8-25.7 20.6 0 0-2.7-.5-4.3-4.3S53.1 66.8 64 54.1s24.8-17.9 42.3-13.6c0 0 15.7 0 26.6 15s11.2 33.6 4.8 40c0 0 3.4-12.5-11.2-18.8C113 71 104 63.6 105.8 52.5z" fill="#2a232b" stroke-width="none" opacity="1" stroke="none"></path><path id="SvgjsPath18349" d="M107.2 44.8s-.9 14.6 7.3 21S133.4 76 136.6 79s3.4 7.1 3.4 7.1 1.6-4.8-2-8.9-18.7-9.2-23.5-14.8c-4.8-5.4-5.9-11.7-7.3-17.6zm2.1.8s3.7 9.1 8.7 13.9 13.3 8.7 16.2 10.5 5.3 5.5 5.3 5.5-.5-2.8-5.9-8-12.1-7.7-17.6-13.2-6.7-8.7-6.7-8.7zm-.5-3.8s10.5 2 18 9.2c7.5 7.3 10.5 14.9 11.9 19.2 0 0-6.8-11.6-13.9-18.3-7.1-6.7-16-10.1-16-10.1zM60.7 87.7s-.9-8 5.7-13c6.6-5 19-3.9 26.2-8.7 7.1-4.8 10.7-11.9 12.1-18.5 0 0-4.8 14.4-27.4 20.5S60.7 87.7 60.7 87.7zM58.1 79s.7-9.6 10.9-13.3c10.1-3.7 21-6.9 27.2-11.8s7.7-10 7.7-10-7 9.1-25 14.8S59.7 69.6 58.1 79zM63 60.5s5.3-11.6 17.6-16 21-2.5 21-2.5-24.7-.2-38.6 18.5z" fill="#3a353a" stroke-width="none" opacity="1" stroke="none"></path></g><g id="svga-group-glasses-single-move" transform="matrix(1,0,0,1,0,0)"><g id="svga-group-glasses-single" transform="matrix(1,0,0,1,0,0)"></g></g></g></g></g><rect id="svga-credit-rect" width="200" height="15" x="0" y="185" fill="#ecf0f1" opacity="0.5" style="display: none;"></rect><text id="svga-credit-text" font-family="Avenir Next, Roboto, Helvetica, Arial, sans-serif" font-size="10px" text-anchor="start" font-weight="400" size="10px" anchor="start" weight="400" fill="#333333" x="33.43669891357422" y="182.60824704170227" style="display: none;"><tspan id="SvgjsTspan17688" dy="13" x="33.43669891357422">Created on AvatarMaker.com</tspan></text></g></svg>