<svg xmlns="http://www.w3.org/2000/svg" version="1.1" width="600px" height="600px" viewBox="0 0 200 200" style="overflow:hidden!important;"><defs id="SvgjsDefs19212"></defs><g id="svga-group-wrapper"><g id="svga-group-backs-single"><path id="SvgjsPath19897" d="M0 0h200v200H0V0z" fill="#f1d4af" stroke-width="none" opacity="1"></path><path id="SvgjsPath19898" d="M100 124.2c-13.3 0-24.2-10.8-24.2-24.2S86.7 75.8 100 75.8s24.2 10.8 24.2 24.2-10.9 24.2-24.2 24.2zm0-42.4c-10 0-18.2 8.2-18.2 18.2s8.2 18.2 18.2 18.2 18.2-8.2 18.2-18.2S110 81.8 100 81.8zm0 57.4c-21.6 0-39.2-17.6-39.2-39.2S78.4 60.8 100 60.8s39.2 17.6 39.2 39.2-17.6 39.2-39.2 39.2zm0-72.4c-18.3 0-33.2 14.9-33.2 33.2s14.9 33.2 33.2 33.2 33.2-14.9 33.2-33.2-14.9-33.2-33.2-33.2zm0 87.5c-29.9 0-54.3-24.4-54.3-54.3S70.1 45.7 100 45.7 154.3 70 154.3 100s-24.4 54.3-54.3 54.3zm0-102.6c-26.6 0-48.3 21.7-48.3 48.3 0 26.6 21.7 48.3 48.3 48.3 26.6 0 48.3-21.7 48.3-48.3 0-26.6-21.7-48.3-48.3-48.3zm0 116.4c-37.6 0-68.1-30.6-68.1-68.1S62.4 31.9 100 31.9s68.1 30.6 68.1 68.1-30.5 68.1-68.1 68.1zm0-130.2c-34.2 0-62.1 27.9-62.1 62.1s27.9 62.1 62.1 62.1 62.1-27.9 62.1-62.1-27.9-62.1-62.1-62.1zm0 146.2c-46.4 0-84.1-37.7-84.1-84.1S53.6 15.9 100 15.9s84.1 37.7 84.1 84.1-37.7 84.1-84.1 84.1zm0-162.2c-43.1 0-78.1 35-78.1 78.1s35 78.1 78.1 78.1 78.1-35.1 78.1-78.1-35-78.1-78.1-78.1zm0 90c-6.6 0-11.9-5.4-11.9-11.9 0-6.6 5.4-11.9 11.9-11.9 6.6 0 11.9 5.4 11.9 11.9 0 6.6-5.3 11.9-11.9 11.9zm0-17.8c-3.3 0-5.9 2.7-5.9 5.9 0 3.3 2.7 5.9 5.9 5.9 3.3 0 5.9-2.7 5.9-5.9 0-3.3-2.6-5.9-5.9-5.9zM0 146.7v12.8c9.9 16.6 23.9 30.6 40.5 40.5h12.8C29.9 189 11 170.1 0 146.7zm200 0c-11 23.4-29.9 42.3-53.3 53.3h12.8c16.6-9.9 30.6-23.9 40.5-40.5v-12.8zm0-93.4V40.5C190.1 23.9 176.1 9.9 159.5 0h-12.8C170.1 11 189 29.9 200 53.3zm-200 0C11 29.9 29.9 11 53.3 0H40.5C23.9 9.9 9.9 23.9 0 40.5v12.8zm200 36.3C195.1 42.5 157.6 4.9 110.4 0H89.6C42.5 4.9 4.9 42.5 0 89.6v20.8c4.9 47.1 42.5 84.7 89.6 89.6h20.8c47.1-4.9 84.7-42.4 89.6-89.6V89.6zM100 194.5c-52.1 0-94.5-42.4-94.5-94.5S47.9 5.5 100 5.5s94.5 42.4 94.5 94.5-42.4 94.5-94.5 94.5zM0 176.2v9.5c4.4 5.1 9.1 9.9 14.3 14.3h9.5c-9-6.8-17-14.8-23.8-23.8zm200 0c-6.8 8.9-14.8 16.9-23.8 23.8h9.5c5.1-4.4 9.9-9.1 14.3-14.3v-9.5zM0 23.8c6.8-9 14.8-17 23.8-23.8h-9.5C9.1 4.4 4.4 9.1 0 14.3v9.5zm200 0v-9.5c-4.4-5.1-9.1-9.9-14.3-14.3h-9.5c9 6.8 17 14.8 23.8 23.8z" fill="#e2bd8d" stroke-width="none" opacity="1"></path></g><g id="svga-group-humanwrap-move" transform="matrix(1,0,0,1,0,0)"><g id="svga-group-humanwrap" transform="matrix(1,0,0,1,0,0)"><g id="svga-group-hair-back-move" transform="matrix(1,0,0,1,0,0)"><g id="svga-group-hair-back" transform="matrix(1,0,0,1,0,0)"></g></g><g id="svga-group-humanbody-back"><path id="SvgjsPath19613" d="M166.5 181.1c-10.9-6.6-27.6-8.4-35-12.1-4.9-2.5-9.1-4.7-8.9-17.8s1.9-42.4 1.9-42.4H75.4s1.6 29.4 1.9 42.4-4.2 15.6-8.9 17.8c-7.4 3.5-24.1 5.4-35 12.1-10.8 6.6-10 18.9-10 18.9v19.7h153.3V200c-.1 0 .7-12.3-10.2-18.9z" fill="#cb8d60" stroke-width="none" opacity="1" stroke="none"></path></g><g id="svga-group-chinshadow-single"><path id="SvgjsPath19855" d="M75.7 162.4c5.4 3.4 13.9 4.6 24.3 4.6 10.4.1 18.9-1.1 24.3-4.5-1.1-2.5-1.8-6-1.7-11.3.2-13.1 1.9-42.4 1.9-42.4H75.4s1.6 29.4 1.9 42.4c.1 5.2-.5 8.7-1.6 11.2z" fill="#ac642f" stroke-width="none" opacity="0.65" stroke="none"></path></g><g id="svga-group-humanbody-front"><path id="SvgjsPath19614" d="M78.7 156.8c.5 4.8 1.7 9.4 3.1 13.9.8 2.3 1.6 4.6 2.6 6.9.8 2 1.7 4.2 3.1 5.9.3.4 1 0 .9-.5-.5-2.2-1.6-4.3-2.4-6.4-.9-2.2-1.7-4.4-2.5-6.6-1.5-4.4-2.8-8.9-4.1-13.3-.2-.4-.8-.3-.7.1zm41.3-1c-1.3 8.2-3.9 16.1-5.4 24.2-.1.4.4.5.6.2 3.1-7.7 4.1-16.1 5.1-24.3-.1-.2-.3-.2-.3-.1zm-25.8 11.9c-.9 3.6 1.9 8.6 6.2 7.6.5-.1.4-.8 0-1-1.4-.5-2.9-.9-3.9-2.1-1.1-1.2-1.5-2.9-1.4-4.5 0-.4-.8-.5-.9 0z" fill="#ac642f" stroke-width="none" opacity="1" stroke="none"></path><path id="SvgjsPath19615" d="M177.3 219.7c-.1-6.6-.3-13.1-.3-19.7l-.3-.3c.1 0 .1 0 .2.1s.1.2.1.1v-1.4c0-.5-.1-.9-.1-1.4-.1-.9-.3-1.9-.5-2.8-.5-1.8-1.1-3.6-2-5.3-1.7-3.4-4.4-6.2-7.7-8.1-3.6-2.2-7.6-3.8-11.6-5.1-4-1.3-8.1-2.4-12.1-3.5-4-1.2-8.1-2.2-11.8-4.2-1.9-1-3.6-2.1-4.8-3.6-1.2-1.6-1.9-3.5-2.3-5.5-.8-4-.4-8.2-.3-12.4l.7-12.6 1.5-25.2.1-1.4h-1.4c-8.2 0-16.4 0-24.6.1l-24.6.3h-.9l.1.9c.8 11.9 1.6 23.8 2.1 35.7.1 3 .3 6 .2 8.9-.1 2.9-.4 5.9-1.6 8.6-.6 1.3-1.4 2.5-2.4 3.5s-2.3 1.8-3.6 2.4c-2.6 1.3-5.4 2.2-8.3 3-5.8 1.5-11.6 2.8-17.3 4.7-2.8.9-5.7 2-8.4 3.4-1.3.7-2.7 1.4-4 2.4-1.3.9-2.4 1.9-3.5 3.1-2.1 2.3-3.6 5.2-4.5 8.1-.5 1.5-.8 3-1 4.6-.1.8-.1 1.6-.1 2.4v2.3l-.2 17.9v1.3h1.4l38.3.2c12.8.1 25.5.1 38.3 0 12.8-.1 25.6-.1 38.3-.3 12.8-.2 25.6-.5 38.3-.7h.6v-.5zm-77.2-1.6H61.8l-37 .2-.1-16.6v-2.2c0-.7 0-1.4.1-2.1.1-1.4.4-2.8.8-4.2.8-2.7 2.1-5.3 3.9-7.5.9-1.1 2-2.1 3.1-2.9 1.1-.9 2.4-1.6 3.7-2.3 2.6-1.4 5.3-2.5 8.1-3.5 5.6-2 11.4-3.4 17.1-5.1 2.9-.8 5.8-1.7 8.5-3.1 1.3-.7 2.7-1.5 3.8-2.6 1.1-1.1 2-2.4 2.6-3.9 1.2-2.9 1.5-5.9 1.6-8.9 0-3-.1-6-.2-9l-1.3-34.8 23.5.4c7.7.1 15.4.1 23.1.1-.4 7.9-.8 15.9-1.1 23.8-.2 4.2-.2 8.4-.3 12.6 0 4.2-.2 8.5.8 12.8.5 2.1 1.3 4.2 2.8 6 1.4 1.7 3.4 2.9 5.3 3.8 3.9 1.9 8 2.8 12.1 3.8s8.2 2 12.2 3.3c4 1.3 7.9 2.8 11.5 5 3.2 1.9 5.8 4.7 7.5 8 .9 1.6 1.5 3.4 1.9 5.2.2.9.4 1.8.4 2.7.1.5.1.9.1 1.4V200l-.3 19c-12.6-.2-25.1-.5-37.7-.7-12.7-.1-25.5-.1-38.2-.2z" fill="#9d521b" stroke-width="none" opacity="1" stroke="none"></path></g><g id="svga-group-clothes-single"><path id="SvgjsPath19755" d="M100.8 184.4c-1.1-3-8.2-7.8-13.2-10.6s-7-4.9-10-8.8c-1.8-3.6-1-8.9-1-8.9-.1-4.7-.6-9.5-.9-14.7-8.2-1.1-13.1 3.7-14 4.6-6.5 6.3-3.1 8.5-5.7 11.5-9.2 2.1-7.1 14.2-10.7 15-8.7 1.9-21.2 7-24.2 21 0 0-1.6 9.2-1.6 26.7h160.7c0-17.5-1.6-26.7-1.6-26.7-3.2-15.2-17.6-19-26.1-21.4-1.4-.6.2-5.2-2.5-10.5-1.4-2.7-3.9-6.5-9.3-7.8 0 0-1.2-6.6-5.4-9.9-4.2-3.3-11.2-2.5-11.2-2.5s-.3 14.1-.3 16.1c0 3.2-.2 4.9-1.6 6.6s-4.4 3.9-6.9 7.5-10.1 7.5-11.7 9c-1.4 1.4-2.8 3.8-2.8 3.8z" fill="#591956" stroke-width="none" opacity="1"></path><path id="SvgjsPath19756" d="M105.6 187.4c-.6.6-1.7 3.4-1.8 5.7s1.8 11.5 2.1 13.4-1 7.4-1 8.5 2.8 2.8 3.1 1.7c.3-1.1 1.2-8.4.2-10.9s-2.2-10.1-2.2-11.6 1.1-5.6 1.6-6.5c0 0 .2-.8-.6-.9-.8-.1-1.4.6-1.4.6z" fill="#d6d6d6" stroke-width="none" opacity="1"></path><path id="SvgjsPath19757" d="m95.6 186.8.1-.2s1.8-1.3 1.9.9c0 0-1.2 2.8-1.2 4.8s2.2 11.9 2.5 14.1-2.7 10.4-3.1 10.5-2.1-.9-2.6-1.3c-.4-.4 2.5-6.9 2.8-9.9.3-2.9-.4-8.7-1.2-12.2-.8-3.5.4-5.9.8-6.6v-.1z" fill="#d6d6d6" stroke-width="none" opacity="1"></path><path id="SvgjsPath19758" d="M181.4 204.3c-.2-2.6-.4-5.2-.7-7.9l-.2-2-.1-1v-.3c0-.1 0-.2-.1-.3l-.1-.5c-.3-1.4-.7-2.7-1.2-4-1.1-2.6-2.6-5-4.4-7.1-1.9-2.1-4.1-3.8-6.5-5.2-4.6-2.7-9.6-4.2-14.5-5.5v-.1c-.1-.4-.1-.9-.1-1.4-.1-1-.1-2-.3-3.1-.3-2.1-1.1-4.2-2.1-6-1-1.8-2.4-3.6-4.1-4.9-1.5-1.2-3.2-2-5-2.6-.4-1.4-.8-2.8-1.4-4.1-.7-1.6-1.6-3.1-2.9-4.4-1.3-1.4-3.4-2.5-5-3-5.1-1.2-8.6-.4-8.6-.4s-1.2 9.6-2.9 22.5c0 0-3.9 4.9-5.3 6.8-.4.4-.7 1-1.1 1.4-.2.2-.3.4-.5.6l-.6.6c-.8.8-1.7 1.5-2.6 2.2-1.8 1.4-3.8 2.7-5.7 4-.5.3-1 .7-1.4 1.1-.5.4-.8.9-1.2 1.3-.4.5-.7.9-1 1.4l-.5.8-.2.4-.1.1-.2-.3-.3-.6c-.2-.4-.5-.7-.8-1l-1.8-1.8c-1.3-1.1-2.6-2.2-4-3.2s-2.8-1.9-4.2-2.8c-1.4-.9-2.9-1.7-4.2-2.7-2.7-2-4.5-4.6-6.6-7.1-1.1-1.3-1.7-3.5-1.9-4.9-.1-1 .6-10.8-.2-17.9 0-.4-.7-.9-5.6-1.1-5 .1-8.8 3.3-10.4 4.9-1.5 1.6-3.1 3.3-3.9 5.6-.4 1.1-.5 2.4-.7 3.4-.1.9-.3 1.4-.7 1.9-1.7.4-3.3 1.3-4.5 2.5-1.4 1.4-2.3 3-2.9 4.7-.7 1.7-1.1 3.4-1.5 4.9-.2.8-.5 1.5-.8 2.1-.1.3-.3.4-.4.5 0 0-.1 0-.1.1l-.6.1c-3.3.8-6.6 1.9-9.8 3.4-3.1 1.6-6 3.6-8.4 6.2-2.4 2.6-4.2 5.7-5.3 9-.3.8-.5 1.7-.7 2.5l-.1.7c0 .1 0 .2-.1.4v.3l-.2 1.3c-.2 1.7-.3 3.4-.5 5-.5 6.7-.6 13.4-.5 20.1 0 .4.1 1.3.5 1.3 13.4-.2 160.9.2 160.9.2.8 0 1.5-.7 1.5-1.5-.1-5-.2-10.3-.6-15.6zm-27.8-33.4zm-28.8-26.1c1 .6 4.7 2.5 6 5.1.1.8.2 1.8 0 2.6s-.6 1.5-1.1 2.3c-2.1 2.6-6.1 6.3-6.5 6.8 5.1-8.8 1.6-16.8 1.6-16.8zm-50.4 17.7c.9 1.4 4 4.3 5 5.5-.4-.3-3.9-3-4.3-3.2-1.2-.8-1.8-1.7-2.7-2.9-1.8-2.2-2.7-5.1-3.4-8-.3-1.4-.6-2.9.3-3.8 2.2-1.5 5.9-2 6.1-2.1.2 2.7-3.2 5.8-3.1 8.5-.1.3-.1.4-.1.7v.8c.1.5.2 1 .3 1.4.3.7 1.4 2.3 1.9 3.1zM48 171.8c.5-.9.8-1.8 1-2.6.5-1.7.8-3.2 1.4-4.7.5-1.5 1.3-2.8 2.3-3.8s2.3-1.7 3.7-2c.2 0 .3-.1.5-.2.1 1.1.2 2.2.4 3.3.3 1.7.7 3.4 1.4 5 .3.9.8 1.6 1.2 2.4.5.7 1 1.5 1.5 2.2 2.3 2.8 5.1 4.8 8.2 6.4 3.1 1.6 6.3 2.8 9.7 3.4-3.1-1.4-6.1-3-8.9-4.8-1.4-.9-2.8-1.8-4-2.9-1.3-1.1-2.5-2.2-3.4-3.4-.5-.6-1-1.3-1.4-1.9-.4-.7-.8-1.4-1.1-2.1-.7-1.4-1.1-3.1-1.6-4.6-.4-1.4-.7-2.9-.9-4.3.1-.2-.8-5.1 4.4-9.9 1.4-1.5 3-2.8 4.6-3.8 4.2-2.4 6.8-1.4 8.1-1.2.1 2 .2 3.1.3 5.1-.3.1-4.2 1-4.5 1.1-.7.3-1.5.5-2.2 1.1-.7.5-1.1 1.5-1.2 2.3-.1.9 0 1.7.1 2.5.4 3.1 1.3 6.3 3.3 8.9 1 1.3 2.3 2.4 3.6 3.2l3.9 2.4c1.3.8 2.6 1.5 3.9 2.2.8.6 1.5 1.2 2.3 1.7 1.4 1 2.9 1.8 4.4 2.6 1.4.8 2.9 1.7 4.3 2.6s2.8 1.9 4.1 2.9c.7.5 1.3 1.1 1.9 1.7.3.3.6.6.8.9.1.2.2.3.3.5l.2.3c.1.1.2.3.3.4 0 0 .1 0 .2-.1v-.1l.1-.1.1-.2.2-.4.5-.7c.3-.5.7-.9 1.1-1.4.4-.4.8-.9 1.2-1.2.4-.3.9-.7 1.4-1 2-1.2 4-2.4 5.9-3.8 1-.7 1.9-1.4 2.8-2.2.2-.2.4-.4.7-.6.2-.2.4-.4.6-.7.4-.5.7-.9 1.1-1.4 1.5-1.7 3.2-3.3 4.9-4.9l2.6-2.4c.7-.7 3.2-2.8 3.6-3.2 1.5-1.3 2.8-2.7 3.8-4.5 1-1.8.9-4 .2-6.1-1.1-2.4-5.6-5-6.9-5.8l-.1-2.5c.2.1 4.4-.9 8.1 1.4 2.5 1.6 4.6 5.3 5.3 6.7.6 1.4 1.1 2.9 1.4 4.4.1.5.5.9 1 1.1.1 0 .1 0 .2.1-.2 2-.6 4-1.4 5.8-.6 1.5-1.3 2.9-2.3 4-1 1.2-2.2 2.3-3.4 3.3-.6.5-1.2 1-1.8 1.6l-1.9 1.5c-1.3 1-2.6 2-3.9 2.9-2.6 1.9-5.3 3.8-7.9 5.8 3.1-1.3 6-2.8 8.8-4.5 2.8-1.7 5.6-3.6 8.1-5.8.6-.6 1.3-1.1 1.8-1.7l.9-.9.8-1c1.1-1.4 1.8-3 2.3-4.7.6-2 .8-4 .7-6.1 1.4.5 2.6 1.1 3.7 2.1 1.4 1.1 2.4 2.6 3.3 4.2.9 1.6 1.5 3.3 1.7 5.1.1.9.2 1.8.2 2.8 0 .5 0 1 .1 1.6 0 .3.1.6.2 1.1.1.2.2.5.4.7l.1.1-1.4 1.4c-.9.8-1.9 1.6-2.8 2.4-1.9 1.6-3.9 3.1-5.9 4.5-2 1.4-4 2.9-6.1 4-1.1.6-2.1 1.1-3.2 1.5-1.1.4-2.3.8-3.5 1.1-2.4.7-4.8 1.3-7.2 1.8-2.4.6-4.8 1.1-7.2 1.5l-3.6.6c-.6.1-1.2.1-1.7.1-.6 0-1.1-.2-1.6-.4l-.2-.1c.3-1.1.6-2.3 1-3.3.1-.2 0-.5-.1-.7s-.4-.3-.7-.3c-.5 0-.9.3-1.2.6.3-.4.8-.6 1.2-.6.2 0 .5.1.6.3.1.2.2.4.1.7-.5 1.2-.8 2.4-1.2 3.7-.3 1.2-.6 2.6-.4 3.9.2 2.6.6 5.1 1.1 7.7.1.6.3 1.3.4 1.9l.3.9c.1.3.2.6.2.9.2 1.2.2 2.5.2 3.8-.1 1.3-.2 2.6-.3 3.8-.1.6-.2 1.3-.3 1.9 0 .1-.1.3-.1.4-.1 0-.4 0-.6-.1-.5-.2-1-.6-1.3-1-.1-.1-.1-.2-.2-.3v-.3c0-.3.1-.6.1-.9.2-1.3.4-2.5.6-3.8.1-.6.2-1.3.2-1.9 0-.6 0-1.4-.1-2l-.8-3.8c-.5-2.5-1.1-5.1-1.4-7.6-.1-.6-.1-1.3-.1-1.9 0-.5.1-.9.2-1.4 0 0 .1-.4.1-.5.2-.6.3-1.2.6-1.9-.2.6-.4 1.2-.6 1.9 0 .1-.1.3-.1.4-1-.6-2.1-.9-3.3-1.1-1.3-.2-2.5-.3-3.8-.5.2-.8.4-1.5.7-2.2 0-.2-.1-.5-.2-.7s-.2-.4-.5-.6c-.5-.2-1 0-1.4.3.4-.2.9-.4 1.3-.2s.5.8.5 1.2c-.5 1.2-1 2.4-1.2 3.8-.1.6-.2 1.4-.1 2 .1.7.2 1.3.3 2 .4 2.6.9 5.2 1.4 7.8l.3 1.9c.1.6.2 1.3.2 1.9-.1 1.2-.4 2.5-.8 3.7-.4 1.2-.8 2.5-1.2 3.7-.2.6-.5 1.2-.7 1.8-.1.1-.1.2-.2.4-.2-.1-.4-.1-.7-.3-.3-.1-.6-.3-.8-.5-.1-.1-.2-.2-.4-.3l-.1-.1c0-.2.1-.5.2-.8l.3-.9 1.3-3.7c.4-1.3.8-2.5 1-3.9.2-1.4.1-2.7 0-4-.2-2.6-.7-5.2-1.2-7.8-.6-1.8-.6-3.9-.1-5.7h.1s0-.1-.1-.1c.2-.6.4-1.2.7-1.8-.3.5-.6 1.1-.8 1.7-.5-.6-.8-1.4-.6-1.9.2-.6.8-1 1.6-.9.7 0 1.4.4 2 .9.3.3.5.6.6 1 .1.3-.1.7-.5 1 .2 0 .5-.1.7-.3s.3-.5.3-.7c0-.5-.2-1-.5-1.4-.6-.8-1.5-1.4-2.5-1.5-.5 0-1.1.1-1.6.4s-.8.8-.8 1.4c-.1 1.1.6 1.8 1.4 2.2-.1.4-.2.7-.3 1.1l-5.5-.7c-2.6-.4-5.2-.6-7.8-1-2.6-.4-5.2-.8-7.7-1.3-1.3-.2-2.5-.5-3.7-.9-1.2-.3-2.4-.9-3.6-1.4-2.4-1-4.7-2.3-6.9-3.5-2.3-1.3-4.5-2.6-6.7-4-1.1-.7-2.2-1.4-3.2-2.2l-1.5-1.2-.6-.6c-.1-1 .1-1.3.3-1.6zm52 47.5-20.1.2-20.1.1c-13.2.1-26.3 0-39.5-.2.1-6.4.4-12.9 1.1-19.3.2-1.6.4-3.3.6-4.9l.2-1.2v-.3c0-.1 0-.2.1-.3l.1-.6c.2-.8.4-1.5.7-2.3 1.1-3 2.8-5.7 5-8s4.9-4.1 7.8-5.5c2.9-1.4 6-2.5 9.1-3.2l.6-.1c.4-.1.7-.2 1-.5.2-.1.3-.2.4-.4.5.8 1.2 1.4 1.9 2.1 1 .9 2 1.8 3 2.6 2.1 1.6 4.2 3.1 6.5 4.6 2.2 1.4 4.5 2.7 6.9 3.9 1.2.6 2.4 1.1 3.8 1.5 1.3.4 2.6.7 3.9 1 5.2 1 10.4 1.6 15.7 1.9 2.2.1 3.4.2 5.5.2-.1 1.2 0 2.5.2 3.7.5 2.6.8 5.2.9 7.8.1 1.3.1 2.6-.1 3.9-.2 1.2-.6 2.5-1 3.7l-1.3 3.7c-.1.3-.2.6-.3 1-.1.3-.2.6-.2 1.1v.3c0 .1.1.2.1.2l.1.1c.1.1.2.1.2.2.1.1.3.2.4.3.3.2.6.4.9.5.3.2.6.3 1.1.4h.4c.2-.1.2-.1.3-.2.1-.1.2-.2.2-.3.1-.2.2-.3.2-.5.3-.6.5-1.2.7-1.9.4-1.2.8-2.5 1.2-3.8.3-1.3.7-2.6.8-4 0-.8-.2-1.4-.3-2-.1-.6-.2-1.3-.4-1.9-.5-2.6-1.1-5.1-1.6-7.7-.1-.6-.2-1.3-.3-1.9-.1-.6-.1-1.3 0-1.9 0-.2.1-.4.1-.6 2.4.1 4.9-.1 7.2.7-.1.5-.2.9-.2 1.4-.1.6 0 1.3.1 1.9.3 2.6.7 5.1 1.1 7.7l.6 3.8c.2 1.2-.1 2.5-.3 3.7l-.7 3.8c-.1.3-.1.6-.1 1 0 .1 0 .5.1.7.1.2.2.4.3.5.5.6 1.1 1 1.7 1.3.3.1.7.3 1.3.2.3-.1.6-.4.7-.6.1-.2.1-.4.1-.5.1-.7.2-1.3.3-2 .2-1.3.2-2.6.3-3.9 0-1.3 0-2.6-.3-3.9-.1-.3-.2-.7-.3-1l-.3-.9c-.2-.6-.4-1.2-.5-1.9-.6-2.5-1.1-5-1.5-7.6-.2-1-.1-2.1.2-3.1.6.3 1.3.5 1.9.6.3.1.7.1 1 .1h1c1.3 0 2.5-.2 3.8-.3 5-.6 9.9-1.6 14.7-2.9 1.2-.4 2.4-.7 3.6-1.2 1.2-.4 2.4-1 3.5-1.7 2.2-1.3 4.2-2.8 6.1-4.4 1.9-1.6 3.8-3.2 5.6-5 .9-.9 1.8-1.8 2.6-2.8.4-.5.8-1 1.2-1.6.2.1.4.3.6.4.1 0 .1.1.2.1 5 1.4 9.9 2.9 14.2 5.5 4.3 2.5 7.7 6.2 9.6 10.7.4 1.1.8 2.3 1.1 3.5l.1.4v.4l.1.9.2 1.9c.3 2.6.5 5.1.7 7.7.3 4.7.5 9.4.5 14.1l-38.6.2c-13.2.2-26.6.4-40 .6zm4.7-30.4c-.3-.4-.4-.8-.4-1.1 0-.4.1-.7.3-1 .4-.5 1.2-.7 1.9-.6.7.1 1.5.5 1.8 1.1.2.3.2.6.1 1s-.4.7-.7 1.1c.4-.1.8-.4 1.1-.9.3-.4.3-1.1.1-1.6-.4-1-1.4-1.6-2.4-1.8-.5-.1-1-.1-1.5.1s-1 .5-1.2 1c-.2.4-.3 1-.2 1.5.3.6.7 1 1.1 1.2zM41 209.2c-.7-2.7-1.6-5.3-2.8-7.8-1.2-2.5-2.7-4.9-4.5-7-1.8-2.1-3.8-4.1-6.2-5.4 1.1.8 2.1 1.8 3 2.8 1 1 1.8 2 2.6 3.1 1.6 2.2 3 4.5 4.2 7 .6 1.2 1.2 2.4 1.6 3.7.5 1.2.9 2.6 1.4 3.8.4 1.3.7 2.6 1.1 3.9.3 1.3.6 2.7.9 4-.1-1.4-.3-2.7-.5-4.1-.2-1.3-.4-2.6-.8-4zm125.6-13.9c-1.8 1.9-3.3 4.1-4.5 6.4-1.2 2.3-2.2 4.8-3 7.3-.4 1.2-.6 2.5-1 3.8l-.6 3.9c.4-1.2.7-2.5 1.1-3.7.4-1.2.8-2.5 1.2-3.7.2-.6.5-1.2.7-1.8s.5-1.2.8-1.8c.5-1.2 1.1-2.3 1.7-3.5 1.2-2.2 2.6-4.4 4.2-6.4.8-1 1.7-1.9 2.6-2.9.9-.9 1.9-1.8 3-2.4-2.4 1.1-4.4 2.9-6.2 4.8z" fill="#3a0538" stroke-width="none" opacity="1"></path></g><g id="svga-group-head" transform="matrix(1,0,0,1,0,0)"><g id="svga-group-ears-left-move" transform="matrix(1,0,0,1,0,0)"><g id="svga-group-ears-left" transform="matrix(1,0,0,1,0,0)"><path id="SvgjsPath19771" d="M62 92.9c-.2-.3-3.3-4.3-5.9-6.7-2.6-2.4-3.4-2.4-4.6-.9-1.3 1.5-2.9 9.1-2.5 12.4.4 3.4 3.6 8.7 5.2 11.7 1.7 3 3.3 6.7 5.1 6.3 1.9-.4 4.4-4.6 5.7-7.7 1.3-3.1.5-10.8-3-15.1z" fill="#cb8d60" stroke-width="none" opacity="1" stroke="none"></path><path id="SvgjsPath19772" d="M65.8 102c.1.9.2 1.7.2 2.6s0 1.7-.2 2.6c-.1.4-.2.9-.3 1.3-.1.4-.3.7-.4 1.1-.3.7-.6 1.4-1 2.1-.7 1.3-1.5 2.6-2.6 3.6-.5.5-1.1 1-1.8 1.3-.4.1-.9.1-1.3 0-.4-.2-.8-.5-1.1-.8-1.2-1.3-1.9-2.8-2.7-4.3-.7-1.5-1.5-2.9-2.2-4.3-.7-1.5-1.5-2.9-2.1-4.4-.3-.8-.7-1.5-.9-2.3-.3-.8-.5-1.6-.6-2.5-.2-1.7 0-3.4.1-5 .2-1.6.5-3.2.8-4.8.2-.8.4-1.6.8-2.3l.3-.6c.1-.2.3-.4.4-.5.2-.3.5-.6.9-.8.3-.2.8-.3 1.2-.3.4.1.8.3 1.1.5.7.4 1.2 1 1.8 1.5 2.2 2.2 4 4.8 5.9 7.2 1.9 2.4 3.2 5.7 3.7 9.1zM55.7 86.4c-1.1-.9-2.4-1.9-3.1-1.2-.2.1-.4.4-.6.6l-.3.3c-.1.1-.1.3-.2.4-.3.6-.5 1.3-.8 2-.5 1.4-.9 2.9-1.1 4.5-.3 1.5-.5 3.1-.4 4.7.1.8.3 1.6.6 2.3.3.8.6 1.5.9 2.2.7 1.5 1.5 2.8 2.3 4.2.8 1.4 1.7 2.7 2.5 4.1.4.7.8 1.4 1.2 2s.8 1.3 1.3 1.7c.5.4.9.6 1.3.4.5-.2.9-.6 1.4-1.1.9-1 1.6-2.1 2.3-3.4.4-.6.7-1.3 1-1.9.2-.3.3-.7.4-1l.2-.5c0-.2.1-.3.1-.5.3-1.4.4-3 .3-4.6s-.4-3.2-.9-4.8c-.5-1.6-1.2-3-2.2-4.2-1.9-2.1-4-4.3-6.2-6.2z" fill="#bc7746" stroke-width="none" opacity="1" stroke="none"></path><path id="SvgjsPath19773" d="M51.2 99.4c-.3-2.3-.5-7.8.8-9.6 2.2-2.9 6 6.4 6.9 9.3 0 .1.1.2.1.3.2.3-.1.7-.4.6-.4-.2-.9-.6-1.3-.8-1.1-.5-1.6.5-1.3 1.8.4 1.8 1.4 2.9 2.2 4.3.1.2 0 .4-.2.3-1.6-.9-3.5-4.5-3.1-6.6.3-2 1.9-1.8 3.1-.8-.7-1.7-1.5-3.3-2.5-4.8-.6-.9-1.2-2-2.2-2.2-1.2-.2-1 .3-1.2 1.8-.8 4.8-.3 10.4 2.5 14.5.1.1 0 .2-.1.1-1.8-2.3-3-4.9-3.3-8.2z" fill="#ac642f" stroke-width="none" opacity="1" stroke="none"></path></g></g><g id="svga-group-ears-right-move" transform="matrix(1,0,0,1,0,0)"><g id="svga-group-ears-right" transform="matrix(1,0,0,1,0,0)"><path id="SvgjsPath19774" d="M138 92.9c.2-.3 3.3-4.3 5.9-6.7 2.6-2.4 3.4-2.4 4.6-.9 1.3 1.5 2.9 9.1 2.5 12.4s-3.6 8.7-5.2 11.7c-1.7 3-3.3 6.7-5.1 6.3-1.9-.4-4.4-4.6-5.7-7.7s-.5-10.8 3-15.1z" fill="#cb8d60" stroke-width="none" opacity="1" stroke="none"></path><path id="SvgjsPath19775" d="M138 92.9c1.9-2.4 3.8-5 5.9-7.2.5-.5 1.1-1.1 1.8-1.5.3-.2.7-.4 1.1-.5.4-.1.9.1 1.2.3.3.2.6.5.9.8.1.1.2.3.4.5l.3.6c.3.7.6 1.5.8 2.3.4 1.6.7 3.2.8 4.8.2 1.6.3 3.3.1 5-.1.9-.4 1.7-.6 2.5-.3.8-.6 1.6-.9 2.3-.7 1.5-1.4 3-2.1 4.4-.8 1.5-1.5 2.9-2.2 4.3-.8 1.4-1.4 3-2.7 4.3-.3.3-.7.6-1.1.8-.4.2-.9.2-1.3 0-.8-.3-1.3-.8-1.8-1.3-1-1.1-1.8-2.3-2.6-3.6-.4-.7-.7-1.4-1-2.1-.2-.4-.3-.7-.4-1.1-.1-.4-.3-.8-.3-1.3-.1-.9-.2-1.7-.2-2.6s.1-1.7.2-2.6c.4-3.4 1.7-6.7 3.7-9.1zm.1.1c-1 1.2-1.7 2.7-2.2 4.2-.5 1.6-.8 3.2-.9 4.8-.1 1.6 0 3.2.3 4.6 0 .2.1.3.1.5l.2.5c.1.3.3.7.4 1 .3.7.6 1.3 1 1.9.7 1.2 1.5 2.4 2.3 3.4.4.5.9.9 1.4 1.1.4.2.8 0 1.3-.4s.9-1 1.3-1.7c.4-.6.8-1.3 1.2-2 .8-1.4 1.7-2.8 2.5-4.1.8-1.4 1.6-2.8 2.3-4.2.4-.7.7-1.5.9-2.2.3-.8.5-1.6.6-2.3.1-1.6-.1-3.2-.4-4.7-.3-1.5-.7-3-1.1-4.5-.2-.7-.5-1.4-.8-2-.1-.1-.1-.3-.2-.4-.1-.1-.1-.2-.3-.3-.2-.2-.4-.5-.6-.6-.7-.6-2 .4-3.1 1.2-2.2 1.5-4.3 3.7-6.2 6.2z" fill="#bc7746" stroke-width="none" opacity="1" stroke="none"></path><path id="SvgjsPath19776" d="M148.8 99.4c.3-2.3.5-7.8-.8-9.6-2.2-2.9-6 6.4-6.9 9.3 0 .1-.1.2-.1.3-.2.3.1.7.4.6.4-.2.9-.6 1.3-.8 1.1-.5 1.6.5 1.3 1.8-.4 1.8-1.4 2.9-2.2 4.3-.1.2 0 .4.2.3 1.6-.9 3.5-4.5 3.1-6.6-.3-2-1.9-1.8-3.1-.8.7-1.7 1.5-3.3 2.5-4.8.6-.9 1.2-2 2.2-2.2 1.2-.2 1 .3 1.2 1.8.8 4.8.3 10.4-2.5 14.5-.1.1 0 .2.1.1 1.8-2.3 3-4.9 3.3-8.2z" fill="#ac642f" stroke-width="none" opacity="1" stroke="none"></path></g></g><g id="svga-group-faceshape-wrap" transform="matrix(1,0,0,1,0,0)"><g id="svga-group-faceshape-single"><path id="SvgjsPath19845" d="M143.6 82.2v-.3C142.3 52 122.5 35.3 100 35.3S57.8 52.1 56.5 82.1v.3c0 1.8.3 11.9 2.6 24.5 2.6 13.9 7.9 28.3 11.5 35.9 3.5 7.7 14.6 10.1 29.4 10.1s25.8-2.4 29.4-10.1c3.5-7.7 8.9-22 11.5-35.9 2.3-12.7 2.7-22.9 2.7-24.7z" fill="#cb8d60" stroke-width="none" opacity="1" stroke="none"></path><path id="SvgjsPath19846" d="M70.6 142.8c3.5 7.7 14.6 10.1 29.4 10.1s25.8-2.4 29.4-10.1c3.5-7.7 8.9-22 11.5-35.9 2.3-12.7 2.7-22.9 2.7-24.7v-.3C142.3 52 122.5 35.3 100 35.3S57.8 52.1 56.5 82.1v.3c0 1.8.3 11.9 2.6 24.5 2.6 13.9 7.9 28.3 11.5 35.9zM58.1 75.5c.3-1.7.5-3.4.9-5l.7-2.5c.2-.8.4-1.7.7-2.4l.9-2.4c.2-.4.3-.8.5-1.2l.6-1.1 1.1-2.3c.4-.8.9-1.5 1.3-2.2.5-.7.9-1.4 1.4-2.1l1.6-2 .8-1 .9-.9 1.8-1.8c.6-.6 1.3-1.1 1.9-1.6.7-.5 1.2-1.1 2-1.6 1.4-.9 2.7-1.9 4.2-2.6 2.9-1.7 6-2.7 9.2-3.7 6.4-1.6 13.1-1.8 19.6-.7 6.4 1.3 12.7 3.8 18 7.9 5.3 4.1 9.6 9.5 12.4 15.8 2.8 6.2 4.7 13.3 4.9 20.2-.1 6.9-1.1 13.6-2.4 20.4-1.2 6.8-3.3 13.4-5.6 19.8-2.4 6.4-5 12.8-7.9 19-.2.4-1 2-2.5 3.3-1.1.9-2.3 1.7-3.7 2.4-2.8 1.2-6 2-9.3 2.4-6.6.9-13.5.9-20.2.4-3.3-.2-6.6-.7-9.7-1.6-3.1-.9-5.9-2.2-7.8-4.3-.4-.5-.9-1.1-1.2-1.7l-1.1-2.3c-.7-1.5-4.6-11.1-5.8-14.3-2.3-6.5-4.4-13-5.8-19.7-1.5-6.6-2.5-13.5-2.8-20.4-.3-3.4.1-6.8.4-10.2z" fill="#9d521b" stroke-width="none" opacity="1" stroke="none"></path></g></g><g id="svga-group-mouth-single-move" transform="matrix(1,0,0,1,0,0)"><g id="svga-group-mouth-single" transform="matrix(1,0,0,1,0,0)"><path id="SvgjsPath19935" d="M88.41 126.92c1.99 3.72 6.55 5.56 10.64 5.71 4.32.17 10.29-1.51 13.17-4.89.35-.41-.09-.98-.59-.82-1.89.64-3.52 1.88-5.35 2.66-2.01.86-4.21 1.45-6.42 1.57-4.41.23-7.92-1.55-10.92-4.61-.23-.22-.69.09-.53.38z" fill="#bc7746" stroke-width="none" opacity="1" transform="translate(0 2)" stroke="none"></path><path id="SvgjsPath19936" d="M96.23 130.28c3.55.91 9.28.24 11.77-2.7.21-.25.01-.77-.37-.68-1.75.39-3.29 1.35-5 1.85-2.09.61-4.21.75-6.39.94-.34.03-.33.5-.01.59z" fill="#d3986e" stroke-width="none" opacity="1" transform="translate(0 2)" stroke="none"></path><path id="SvgjsPath19937" d="M94.82 121.9c-1.73-.21-2.43-.06-4.11.75s-2.5.96-3.93.56c-1.5-.42-2.02-2.2-2.02-2.2-.52 0-.65 1.62.65 2.77s5.54 1.43 8.33 1.32c3.47-.13 5.4-.17 5.4-.17h1.36s1.92.04 5.4.17c2.79.1 7.04-.17 8.33-1.32s1.17-2.77.65-2.77c0 0-.52 1.78-2.02 2.2-1.44.4-2.25.25-3.93-.56s-2.38-.96-4.11-.75c-.86.1-3.06.8-5.12.8-1.42 0-4.02-.69-4.88-.8z" fill="#9D6D5F" stroke-width="none" opacity="1" transform="translate(0 2)" stroke="none"></path></g></g><g id="svga-group-eyes-left-move" transform="matrix(1,0,0,1,0,0)"><g id="svga-group-eyes-left" transform="matrix(1,0,0,1,0,0)"><g id="svga-group-eyesback-left"><path id="SvgjsPath19803" d="M87.1 98.5s.3.9 1.3.7c1-.2 1.1-2.3 1-2.9-.1-.6-.5-3-1.7-4.2-1.2-1.2-3.1-1.7-3.1-1.7l-13.8.6s-1.1 3.4.3 5c1.3 1.7 4 3.3 6.9 3.3 2.9.1 6.7-.1 9.1-.8z" fill="#ffffff" stroke-width="none" opacity="1"></path></g><g id="svga-group-eyesiriswrapper-left" transform="matrix(1,0,0,1,0,0)"><g id="svga-group-eyesiriscontrol-left" transform="matrix(1,0,0,1,0,0)"><g id="svga-group-eyesiris-left" transform="matrix(1,0,0,1,0,0)"><path id="SvgjsPath19859" d="M80.1 88.1c3 0 5.5 2.4 5.5 5.5S83.1 99 80.1 99s-5.5-2.4-5.5-5.5 2.4-5.4 5.5-5.4z" fill="#8ab42d" stroke-width="none" opacity="1"></path><path id="SvgjsPath19860" d="M80.1 87.8c-3.2 0-5.7 2.6-5.7 5.7 0 3.2 2.6 5.7 5.7 5.7 3.2 0 5.7-2.6 5.7-5.7s-2.6-5.7-5.7-5.7zm4.7 7.7c-.6-.3-1.2-.6-1.9-.8.1-.2.2-.5.2-.8.7.1 1.3.1 2 .1.1.5-.1 1-.3 1.5zm-.3.6c-.5-.4-1.1-.8-1.7-1.1 0-.1.1-.1.1-.2l1.8.9c0 .2-.1.3-.2.4zm.1-5.1c-.6.1-1.3.4-1.8.8 0-.1-.1-.1-.1-.2.2-.2.5-.3.7-.5.3-.2.6-.5.9-.7 0 .2.2.4.3.6zm.3.8c-.7.2-1.3.3-1.9.6 0-.1-.1-.2-.1-.3.3-.1.6-.3.9-.4.3-.1.7-.2 1-.4 0 .2.1.4.1.5zm-1.7 1.7c0-.3-.1-.6-.1-.8.7-.1 1.3-.3 1.9-.5.1.4.2.9.2 1.4-.6-.1-1.3-.1-2-.1zm.8-3.3c-.3.2-.6.5-.9.7-.2.2-.5.3-.7.5l-.3-.3c.4-.5.8-1.1 1.1-1.7.3.3.6.5.8.8zm-3.6 6.5c.2 0 .5-.1.7-.2.1.3.3.7.4 1 .1.3.2.6.4.8-.4.2-.9.3-1.4.3 0-.6 0-1.3-.1-1.9zm1.4-8c.4.2.9.4 1.3.7-.4.5-.8 1.1-1.2 1.6-.1-.1-.2-.1-.3-.2.1-.7.2-1.5.2-2.1zm-1.5-.3c.4 0 .8.1 1.1.2-.1.5-.1 1-.2 1.5 0 .2-.1.3-.1.5-.2-.1-.4-.1-.6-.2 0-.7-.1-1.4-.2-2zm1.6 9c-.2-.3-.3-.7-.5-1 .1 0 .1-.1.2-.1.1.3.3.6.5.9.2.3.3.6.5.9-.1.1-.2.1-.3.2-.1-.4-.3-.6-.4-.9zm.4-.4c-.2-.3-.3-.6-.5-.9.1-.1.2-.1.3-.2.3.6.7 1.1 1.2 1.6-.1.1-.3.2-.4.3-.2-.2-.5-.5-.6-.8zm-2.1-8.6c-.1.6-.1 1.3-.1 2h-.4c0-.2-.1-.4-.1-.6-.1-.4-.1-.9-.2-1.4.2 0 .4-.1.6-.1.1 0 .1 0 .2.1zm-2.8.7c.3.6.7 1.2 1.1 1.7-.1.1-.2.1-.2.2-.1-.1-.2-.3-.4-.4-.3-.4-.6-.8-1-1.1.2-.2.3-.3.5-.4zm2 1.3c-.1 0-.2 0-.2.1-.2-.7-.4-1.3-.6-1.9.2-.1.4-.1.7-.2-.1.7-.1 1.4.1 2zm-.5.2s-.1 0-.1.1c-.3-.6-.7-1.2-1.1-1.7.2-.1.5-.2.7-.3.1.6.2 1.3.5 1.9zm-.5 5.6c.1 0 .1.1.2.1-.1.2-.2.3-.2.5-.2.4-.5.9-.6 1.3l-.6-.3c.3-.3.5-.7.8-1 .1-.2.3-.4.4-.6zm.4.7c.1-.1.1-.3.2-.4h.1c-.3.6-.5 1.3-.6 1.9-.2-.1-.3-.1-.5-.2.3-.4.5-.9.8-1.3zm.6-.3c.1 0 .2 0 .3.1-.2.6-.2 1.3-.3 2-.2 0-.5-.1-.7-.1.3-.7.5-1.4.7-2zm-2.7-7c.2.4.5.7.8 1 .2.2.3.4.4.6-.1.1-.3.2-.4.4-.5-.4-1.1-.8-1.7-1.1.4-.4.6-.7.9-.9zm-1.1 6.5 1.5-.9c.1 0 .1-.1.2-.1.1.1.2.3.3.4-.5.4-1 1-1.4 1.4-.3-.2-.4-.5-.6-.8zm-.5-1.1c.4-.1.8-.3 1.1-.4.2-.1.5-.2.7-.3 0 .2.1.3.2.5-.1.1-.2.1-.3.2-.5.3-.9.6-1.4 1-.1-.4-.2-.7-.3-1zm-.2-1.5c0-.2 0-.3.1-.5.6.2 1.3.3 2 .3v.5c-.3.1-.6.2-.9.4-.3.1-.7.2-1 .4-.2-.3-.2-.7-.2-1.1zm.3-1.6c.4.2.9.4 1.3.6.2.1.3.2.5.2 0 .1-.1.2-.1.3-.2 0-.3-.1-.5-.1-.5-.1-1-.2-1.5-.1l.3-.9zm.6-1.3c.5.4 1 .9 1.6 1.2-.1.2-.2.3-.3.5-.1 0-.2-.1-.3-.1-.5-.2-1.1-.4-1.6-.6.2-.4.4-.7.6-1zm.5 6.5c.5-.4 1.1-.9 1.5-1.4l.3.3c-.2.2-.3.4-.4.6-.3.3-.5.7-.8 1-.2-.1-.4-.3-.6-.5zm3.5 1.6c.1-.7.2-1.3.2-2h.2c-.1.7-.1 1.4 0 2h-.4zm3.7-1.3c-.4-.5-.9-1-1.3-1.5.2-.2.4-.4.5-.6.5.4 1.1.8 1.7 1.2-.3.2-.6.6-.9.9z" fill="#699507" stroke-width="none" opacity="1"></path><path id="SvgjsPath19861" d="M80.1 90.6c1.6 0 2.9 1.3 2.9 2.9s-1.3 2.9-2.9 2.9-2.9-1.3-2.9-2.9 1.2-2.9 2.9-2.9z" fill="#000000" stroke-width="none" opacity="1"></path><path id="SvgjsPath19862" d="M78.4 91c.6 0 1.1.5 1.1 1.1s-.5 1.1-1.1 1.1-1.1-.5-1.1-1.1.5-1.1 1.1-1.1zm3.6 4.1c.4 0 .6.3.6.6s-.3.6-.6.6-.6-.3-.6-.6.3-.6.6-.6z" fill="#ffffff" stroke-width="none" opacity="1"></path></g></g></g><g id="svga-group-eyesfront-left"><path id="SvgjsPath19811" d="M69.4 94.6c0 6.4 4.7 11.5 10.6 11.5s10.6-5.2 10.6-11.5S85.9 83.1 80 83.1s-10.6 5.1-10.6 11.5zM71 96c-1.3-1.7-.3-5-.3-5l13.8-.7s1.9.5 3.1 1.7 1.6 3.6 1.7 4.2 0 2.7-1 2.9c-1 .2-1.3-.7-1.3-.7-2.4.8-6.2 1-9.2.9S72.4 97.7 71 96z" fill="#cb8d60" stroke-width="none" opacity="1" stroke="none"></path><path id="SvgjsPath19812" d="M66.8 92.4c1.1-.4 2.2-.6 3.3-.8-1.6 2.6 1.1 6.1 3.5 7.2 3.8 1.8 9.4 1.4 13.4 0v.1c.6.6 1.6 1.1 2.3.3.7-.8.4-2.6.3-3.5-.3-2-1.5-4.2-3.3-5.1 1 0 1.9.1 2.8.5.6.3.7.5 1.4.7h.1c1-3.5-8-2.3-9.4-2.2-3.1.1-6.1.4-9.2.6-1.9.1-4.2 0-5.5 1.6-.3.2-.1.7.3.6zm4.3-.9c2.7-.3 5.4-.3 8.1-.5 1.9-.1 3.7-.2 5.6-.3 1.7.5 3 1.6 3.6 3.3.4 1.1 1.4 5.3-1 4.6.1 0 .2-.1.3-.1.3-.1.2-.5-.1-.5-3.6.7-7.3 1.5-11 .7-1.8-.4-3.6-1.1-4.7-2.7-1.2-1.5-1-2.8-.8-4.5z" fill="#582311" stroke-width="none" opacity="1" stroke="none"></path></g></g></g><g id="svga-group-eyes-right-move" transform="matrix(1,0,0,1,0,0)"><g id="svga-group-eyes-right" transform="matrix(1,0,0,1,0,0)"><g id="svga-group-eyesback-right"><path id="SvgjsPath19804" d="M112.9 98.5s-.3.9-1.3.7c-1-.2-1.1-2.3-1-2.9.1-.6.5-3 1.7-4.2 1.2-1.2 3.1-1.7 3.1-1.7l13.8.7s1.1 3.4-.3 5c-1.3 1.7-4 3.3-6.9 3.3-2.9 0-6.7-.2-9.1-.9z" fill="#ffffff" stroke-width="none" opacity="1"></path></g><g id="svga-group-eyesiriswrapper-right" transform="matrix(1,0,0,1,0,0)"><g id="svga-group-eyesiriscontrol-right" transform="matrix(1,0,0,1,0,0)"><g id="svga-group-eyesiris-right" transform="matrix(1,0,0,1,0,0)"><path id="SvgjsPath19863" d="M119.9 88.1c3 0 5.5 2.4 5.5 5.5S123 99 119.9 99s-5.5-2.4-5.5-5.5 2.5-5.4 5.5-5.4z" fill="#8ab42d" stroke-width="none" opacity="1"></path><path id="SvgjsPath19864" d="M119.9 87.8c-3.2 0-5.7 2.6-5.7 5.7 0 3.2 2.6 5.7 5.7 5.7s5.7-2.6 5.7-5.7c.1-3.1-2.5-5.7-5.7-5.7zm4.8 7.7c-.6-.3-1.2-.6-1.9-.8.1-.2.2-.5.2-.8.7.1 1.3.1 2 .1 0 .5-.1 1-.3 1.5zm-.3.6c-.5-.4-1.1-.8-1.7-1.1 0-.1.1-.1.1-.2l1.8.9c0 .2-.1.3-.2.4zm.1-5.1c-.6.1-1.3.4-1.8.8 0-.1-.1-.1-.1-.2.2-.2.5-.3.7-.5.3-.2.6-.5.9-.7 0 .2.1.4.3.6zm.3.8c-.7.2-1.3.3-1.9.6 0-.1-.1-.2-.1-.3.3-.1.6-.3.9-.4.3-.1.7-.2 1-.4 0 .2.1.4.1.5zm-1.7 1.7c0-.3-.1-.6-.1-.8.7-.1 1.3-.3 1.9-.5.1.4.2.9.2 1.4-.6-.1-1.3-.1-2-.1zm.8-3.3c-.3.2-.6.5-.9.7-.2.2-.5.3-.7.5l-.3-.3c.4-.5.8-1.1 1.1-1.7.3.3.6.5.8.8zm-3.6 6.5c.2 0 .5-.1.7-.2.1.3.3.7.4 1 .1.3.2.6.4.8-.4.2-.9.3-1.4.3 0-.6 0-1.3-.1-1.9zm1.4-8c.4.2.9.4 1.3.7-.4.5-.8 1.1-1.2 1.6-.1-.1-.2-.1-.3-.2.1-.7.2-1.5.2-2.1zm-1.5-.3c.4 0 .8.1 1.1.2-.1.5-.1 1-.2 1.5 0 .2-.1.3-.1.5-.2-.1-.4-.1-.6-.2 0-.7-.1-1.4-.2-2zm1.6 9c-.2-.3-.3-.7-.5-1 .1 0 .1-.1.2-.1.1.3.3.6.5.9.2.3.3.6.5.9-.1.1-.2.1-.3.2-.2-.4-.3-.6-.4-.9zm.4-.4c-.2-.3-.3-.6-.5-.9.1-.1.2-.1.3-.2.3.6.7 1.1 1.2 1.6-.1.1-.3.2-.4.3-.2-.2-.5-.5-.6-.8zm-2.1-8.6c-.1.6-.1 1.3-.1 2h-.4c0-.2-.1-.4-.1-.6-.1-.4-.1-.9-.2-1.4.2 0 .4-.1.6-.1.1 0 .1 0 .2.1zm-2.8.7c.3.6.7 1.2 1.1 1.7-.1.1-.2.1-.2.2-.1-.1-.2-.3-.4-.4-.3-.4-.6-.8-1-1.1.2-.2.3-.3.5-.4zm2 1.3c-.1 0-.2 0-.2.1-.2-.7-.4-1.3-.6-1.9.2-.1.4-.1.7-.2-.2.7-.1 1.4.1 2zm-.5.2s-.1 0-.1.1c-.3-.6-.7-1.2-1.1-1.7.2-.1.5-.2.7-.3.1.6.2 1.3.5 1.9zm-.5 5.6c.1 0 .1.1.2.1-.1.2-.2.3-.2.5-.2.4-.5.9-.6 1.3l-.6-.3c.3-.3.5-.7.8-1 .1-.2.3-.4.4-.6zm.3.7c.1-.1.1-.3.2-.4h.1c-.3.6-.5 1.3-.6 1.9-.2-.1-.3-.1-.5-.2.4-.4.6-.9.8-1.3zm.7-.3c.1 0 .2 0 .3.1-.2.6-.2 1.3-.3 2-.2 0-.5-.1-.7-.1.2-.7.5-1.4.7-2zm-2.7-7c.2.4.5.7.8 1 .2.2.3.4.4.6-.1.1-.3.2-.4.4-.5-.4-1.1-.8-1.7-1.1.4-.4.6-.7.9-.9zm-1.1 6.5 1.5-.9c.1 0 .1-.1.2-.1.1.1.2.3.3.4-.5.4-1 1-1.4 1.4-.3-.2-.5-.5-.6-.8zM115 95c.4-.1.8-.3 1.1-.4.2-.1.5-.2.7-.3 0 .2.1.3.2.5-.1.1-.2.1-.3.2-.5.3-.9.6-1.4 1-.1-.4-.2-.7-.3-1zm-.2-1.5c0-.2 0-.3.1-.5.6.2 1.3.3 2 .3v.5c-.3.1-.6.2-.9.4-.3.1-.7.2-1 .4-.2-.3-.2-.7-.2-1.1zm.3-1.6c.4.2.9.4 1.3.6.2.1.3.2.5.2 0 .1-.1.2-.1.3-.2 0-.3-.1-.5-.1-.5-.1-1-.2-1.5-.1.1-.3.1-.6.3-.9zm.6-1.3c.5.4 1 .9 1.6 1.2-.1.2-.2.3-.3.5-.1 0-.2-.1-.3-.1-.5-.2-1.1-.4-1.6-.6.2-.4.4-.7.6-1zm.5 6.5c.5-.4 1.1-.9 1.5-1.4l.3.3c-.2.2-.3.4-.4.6-.3.3-.5.7-.8 1-.2-.1-.4-.3-.6-.5zm3.5 1.6c.1-.7.2-1.3.2-2h.2c-.1.7-.1 1.4 0 2h-.4zm3.7-1.3c-.4-.5-.9-1-1.3-1.5.2-.2.4-.4.5-.6.5.4 1.1.8 1.7 1.2-.3.2-.6.6-.9.9z" fill="#699507" stroke-width="none" opacity="1"></path><path id="SvgjsPath19865" d="M119.9 90.6c1.6 0 2.9 1.3 2.9 2.9s-1.3 2.9-2.9 2.9-2.9-1.3-2.9-2.9 1.3-2.9 2.9-2.9z" fill="#000000" stroke-width="none" opacity="1"></path><path id="SvgjsPath19866" d="M118.3 91c.6 0 1.1.5 1.1 1.1s-.5 1.1-1.1 1.1-1.1-.5-1.1-1.1.5-1.1 1.1-1.1zm3.6 4.1c.4 0 .6.3.6.6s-.3.6-.6.6-.6-.3-.6-.6.3-.6.6-.6z" fill="#ffffff" stroke-width="none" opacity="1"></path></g></g></g><g id="svga-group-eyesfront-right"><path id="SvgjsPath19813" d="M120 83.1c-5.9 0-10.6 5.2-10.6 11.5s4.7 11.5 10.6 11.5 10.6-5.2 10.6-11.5-4.8-11.5-10.6-11.5zm2 16.3c-2.9.1-6.8-.2-9.2-.9 0 0-.3.9-1.3.7-1-.2-1.1-2.3-1-2.9s.5-3 1.7-4.2 3.1-1.7 3.1-1.7l13.8.7s1.1 3.4-.3 5c-1.2 1.6-3.8 3.2-6.8 3.3z" fill="#cb8d60" stroke-width="none" opacity="1" stroke="none"></path><path id="SvgjsPath19816" d="M133.6 91.7c-1.3-1.6-3.6-1.4-5.5-1.6-3.1-.2-6.1-.5-9.2-.6-1.4-.1-10.4-1.3-9.4 2.2h.1c.6-.2.7-.3 1.4-.7.9-.5 1.8-.6 2.8-.5-1.8.9-3 3-3.3 5.1-.1.9-.5 2.7.3 3.5.7.8 1.7.3 2.3-.3v-.1c4 1.4 9.5 1.8 13.4 0 2.3-1.1 5.1-4.6 3.5-7.2 1.1.2 2.2.4 3.3.8.3.2.5-.3.3-.6zm-5.4 4.3c-1.1 1.5-2.9 2.3-4.7 2.7-3.7.8-7.4 0-11-.7-.3-.1-.4.4-.1.5.1 0 .2.1.3.1-2.4.7-1.4-3.5-1-4.6.7-1.7 1.9-2.9 3.6-3.3 1.9.1 3.7.2 5.6.3 2.7.1 5.4.2 8.1.5.1 1.7.3 3-.8 4.5z" fill="#582311" stroke-width="none" opacity="1" stroke="none"></path></g></g></g><g id="svga-group-facehighlight-single"></g><g id="svga-group-eyebrows-left-move" transform="matrix(1,0,0,1,0,0)"><g id="svga-group-eyebrows-left-rotate" transform="matrix(1,0,0,1,0,0)"><g id="svga-group-eyebrows-left" transform="matrix(1,0,0,1,0,0)"><path id="SvgjsPath19731" d="M68.1 81c.2-.2.4-.5.6-.7.1-.2.2-.4.4-.6.3-.4.6-.7 1-1 .2-.2.6-.3.8-.1.3-.3.7-.5 1.1-.7 1.2-.7 2.4-1.3 3.8-1.2 1.2-.3 2.5-.2 3.6-.2 1.7 0 3.4.2 5 .8 1 .3 3 1.3 4 2.5 1.2.6 2.1 1.6 2.3 3.1.2 1.5-1 2.5-2.3 3-1.7.6-3.2-.1-4.6-1-.8-.5-1.6-.9-2.5-1.4-1.5-.4-3-.6-4.6-.8-.6-.1-1.1-.2-1.7-.3h-.1c-.1.1-.2.2-.4.3-.4.2-.9.4-1.5.5-1.2.5-2.4 1-3.5 1.6-.2.1-.3.1-.5.1-.3.4-.7.7-1.3.5-.4-.1-.6-.4-.7-.8-.2-.1-.4-.4-.5-.7 0-1 1-2.1 1.6-2.9z" fill="#a46c47" stroke-width="none" opacity="1"></path><path id="SvgjsPath19732" d="M84 77.8c2.6 1.4 3.5 5 3.5 7.8 0 .2-.4.3-.4.1-.3-1.4-.5-2.8-1-4.1-.5-1.3-1.3-2.4-2.3-3.5-.1-.2 0-.4.2-.3zm4.1 7.9c.4-.8.8-1.5 1-2.4.1-.9.1-1.7-.1-2.6 0-.2.2-.3.3-.2 1 1.6.7 4.3-.9 5.4-.2.2-.4 0-.3-.2zm-11.8-8.6c.3.1.6.2.8.4 0-.1.1-.1.2-.1 3 .2 5.5 4.2 5.7 6.8 0 .3-.4.3-.5.1-.6-1.4-1.2-2.8-2.1-4-.6-.7-1.2-1.2-1.9-1.7 1 1.1 1.6 2.6 1.8 3.9 0 .2-.3.3-.3.1-.4-1.1-.9-2.1-1.6-3-.7-.8-1.5-1.4-2.3-2.2-.2-.1 0-.3.2-.3zm-3.4.8c2.3-.1 4.4 2.5 4.7 4.5.1.3-.3.5-.5.2-.7-.9-1-2-1.8-2.8-.7-.7-1.7-1.1-2.5-1.6-.2 0-.1-.3.1-.3zm-2.5 2c1.9-.2 3.8 1.1 4.7 2.5.1.2-.1.3-.3.2-.6-.6-1.3-1.2-2.1-1.6-.8-.4-1.6-.5-2.5-.8-.1 0 0-.3.2-.3zm-1.2 2.4c1.1-.1 2 .3 2.8 1.1.1.1 0 .2-.1.2-.8-.6-1.7-.9-2.6-.9-.2-.2-.2-.4-.1-.4z" fill="#b38160" stroke-width="none" opacity="1"></path><path id="SvgjsPath19733" d="M91 84.6c1-1.4.6-3.9-.6-5.1-.2-.2-.5.1-.4.3.1.1.1.2.2.4-.4-.6-.8-1.1-1.3-1.6-3.4-3.2-8.6-3.5-13-2.8-4.2.7-8.1 2.9-9.3 7.2v.2c-.1 0-.2.1-.2.2-.8 1.3.4 2.8 1.8 2.9 1 .1 2-.4 2.8-.9 1.3-.7 2.6-1.3 4-1.6 3-.5 5.5.5 8.1 1.8 1.6.8 3.3 1.5 5.2 1.1 1.5-.4 2.4-1.1 2.7-2.1zm-7.4-7.3c.7 1.5 1.3 3 1.7 4.6.3 1.1.4 2.3.5 3.4-.6-.2-1.2-.4-1.7-.7.3-2.7-.8-5.6-2.5-7.7.7.1 1.4.2 2 .4zm-8.1 5.1c-.3-1.1-.8-2-1.5-2.9-.4-.5-.9-1.1-1.5-1.6.8-.3 1.6-.6 2.5-.7.9.7 1.7 1.3 2.4 2.1.8 1 1.5 2.1 2 3.2-.3-.1-.5-.1-.8-.2-1 0-2.1 0-3.1.1zm-4-4c.6.6 1.3 1 1.9 1.7.6.7 1.1 1.6 1.5 2.4-.5.1-.9.2-1.4.3-.6-.7-1.2-1.4-1.9-1.9-.6-.4-1.3-.9-2-1.2.6-.5 1.2-.9 1.9-1.3zm-4.4 4.8c.4-1.2 1.1-2.2 1.9-3 .7.4 1.5.7 2.1 1.2.7.5 1.3 1.1 1.8 1.7-.8.3-1.5.7-2.3 1.1-.9.5-3.9 1.9-3.6-.6 0-.1 0-.2-.1-.2l.2-.2zm14-6.3c.8 1.2 1.4 2.4 1.8 3.7.4 1.2.5 2.4.6 3.7-1.2-.6-2.3-1.2-3.6-1.5-.6-2.1-2-4.3-3.8-5.7 1-.1 1.9-.2 2.9-.2h2.1zm8.8 7.2c-.6 1.4-2 1.6-3.3 1.4.1-2.7-1-5.8-2.3-8.1.7.2 1.3.4 1.9.7 1.8 1 4.8 3.6 3.7 6z" fill="#955932" stroke-width="none" opacity="1"></path></g></g></g><g id="svga-group-eyebrows-right-move" transform="matrix(1,0,0,1,0,0)"><g id="svga-group-eyebrows-right-rotate" transform="matrix(1,0,0,1,0,0)"><g id="svga-group-eyebrows-right" transform="matrix(1,0,0,1,0,0)"><path id="SvgjsPath19734" d="M131.9 81c-.2-.2-.4-.5-.6-.7-.1-.2-.2-.4-.4-.6-.3-.4-.6-.7-1-1-.2-.2-.6-.3-.8-.1-.4-.3-.7-.5-1.1-.7-1.2-.7-2.4-1.3-3.8-1.2-1.2-.3-2.5-.2-3.6-.2-1.7 0-3.4.2-5 .8-1 .3-3 1.3-4 2.5-1.2.6-2.1 1.6-2.3 3.1-.2 1.5 1 2.5 2.3 3 1.7.6 3.2-.1 4.6-1 .8-.5 1.6-.9 2.5-1.4 1.5-.4 3-.6 4.6-.8.6-.1 1.1-.2 1.7-.3h.1c.1.1.2.2.4.3.4.2.9.4 1.5.5 1.2.5 2.4 1 3.5 1.6.2.1.4.1.5.1.3.4.7.7 1.3.5.4-.1.6-.4.7-.8.2-.1.4-.4.5-.7 0-1-1-2.1-1.6-2.9z" fill="#a46c47" stroke-width="none" opacity="1"></path><path id="SvgjsPath19735" d="M116 77.8c-2.6 1.4-3.5 5-3.5 7.8 0 .2.4.3.4.1.3-1.4.5-2.8 1-4.1.5-1.3 1.3-2.4 2.3-3.5.1-.2 0-.4-.2-.3zm-4.1 7.9c-.4-.8-.8-1.5-1-2.4-.1-.9-.1-1.7.1-2.6 0-.2-.2-.3-.3-.2-1 1.6-.7 4.3.9 5.4.2.2.4 0 .3-.2zm11.8-8.6c-.3.1-.6.2-.8.4 0-.1-.1-.1-.2-.1-3 .2-5.5 4.2-5.7 6.8 0 .3.4.3.5.1.6-1.4 1.2-2.8 2.1-4 .6-.7 1.2-1.2 1.9-1.7-1 1.1-1.6 2.6-1.8 3.9 0 .2.3.3.3.1.4-1.1.9-2.1 1.6-3 .7-.8 1.5-1.4 2.3-2.2.2-.1 0-.3-.2-.3zm3.4.8c-2.3-.1-4.4 2.5-4.7 4.5-.1.3.3.5.5.2.7-.9 1-2 1.8-2.8.7-.7 1.7-1.1 2.5-1.6.2 0 .1-.3-.1-.3zm2.5 2c-1.9-.2-3.8 1.1-4.7 2.5-.1.2.1.3.3.2.6-.6 1.3-1.2 2.1-1.6.8-.4 1.6-.5 2.5-.8.1 0 .1-.3-.2-.3zm1.2 2.4c-1.1-.1-2 .3-2.8 1.1-.1.1 0 .2.1.2.8-.6 1.7-.9 2.6-.9.2-.2.2-.4.1-.4z" fill="#b38160" stroke-width="none" opacity="1"></path><path id="SvgjsPath19736" d="M111.7 86.7c1.8.4 3.5-.3 5.2-1.1 2.6-1.3 5.1-2.3 8.1-1.8 1.5.2 2.7.8 4 1.6.9.5 1.8 1 2.8.9 1.4-.1 2.6-1.6 1.8-2.9l-.2-.2V83c-1.2-4.3-5.1-6.6-9.3-7.2-4.4-.7-9.5-.4-13 2.8-.5.4-.9 1-1.3 1.6.1-.1.1-.2.2-.4.1-.3-.2-.5-.4-.3-1.2 1.1-1.6 3.6-.6 5.1.3 1 1.2 1.7 2.7 2.1zm4.7-9.4c.7-.2 1.3-.3 2-.3-1.7 2.1-2.8 5-2.5 7.7-.5.2-1.1.5-1.7.7.2-1.2.2-2.3.5-3.4.4-1.7 1-3.2 1.7-4.7zm5 5.2c-.3 0-.5.1-.8.2.6-1.2 1.2-2.2 2-3.2.7-.8 1.6-1.5 2.4-2.1.8.2 1.7.4 2.5.7-.6.4-1.1 1-1.5 1.6-.7.9-1.2 1.8-1.5 2.9-1-.3-2.1-.3-3.1-.1zm9-2.8c-.7.3-1.4.8-2 1.2-.7.6-1.4 1.2-1.9 1.9-.5-.1-.9-.2-1.4-.3.4-.8.9-1.7 1.5-2.4s1.2-1.1 1.9-1.7c.7.4 1.3.8 1.9 1.3zm2.5 3.6c-.1.1-.1.1-.1.2.3 2.5-2.6 1.1-3.6.6-.7-.4-1.5-.8-2.3-1.1.6-.6 1.2-1.2 1.8-1.7.6-.5 1.4-.8 2.1-1.2.8.8 1.5 1.8 1.9 3 .2.1.2.1.2.2zm-11.8-6.4c.9 0 1.9.1 2.9.2-1.8 1.3-3.2 3.6-3.8 5.7-1.3.3-2.4.9-3.6 1.5.1-1.2.2-2.5.6-3.7.4-1.3 1.1-2.5 1.8-3.7h2.1zm-7.2 1.3c.6-.3 1.2-.6 1.9-.7-1.4 2.3-2.5 5.3-2.3 8.1-1.4.2-2.7 0-3.3-1.4-1.2-2.5 1.8-5.1 3.7-6z" fill="#955932" stroke-width="none" opacity="1"></path></g></g></g><g id="svga-group-beardwrap" transform="matrix(1,0,0,1,0,0)"><g id="svga-group-beard-single-move" transform="matrix(1,0,0,1,0,0)"><g id="svga-group-beard-single" transform="matrix(1,0,0,1,0,0)"></g></g></g><g id="svga-group-mustache-single-move" transform="matrix(1,0,0,1,0,0)"><g id="svga-group-mustache-single" transform="matrix(1,0,0,1,0,0)"><path id="SvgjsPath19951" d="M100.57 116.45c-7.61-.2-16.24 1.11-26.35 7.42 0 0 3.53 2.23 7.79 2.97s13.08.84 18.56-2.97c0 0 5.76 3.5 11.13 4.18 8.07 1.02 17.07-3.25 17.07-3.25s-10.94-7.88-28.2-8.35z" fill="#a46c47" stroke-width="none" opacity="1"></path><path id="SvgjsPath19952" d="M128.91 124.6c-3.54-2.39-7.65-4.17-11.77-5.25-.17-.04-.23.2-.07.26 3.93 1.44 7.55 3.17 11.2 5.18-.62.24-1.24.47-1.86.7-3.16-1.69-6.51-3.19-9.99-4.1-.22-.06-.29.25-.09.33 3.23 1.2 6.4 2.43 9.48 3.98-1.73.61-3.47 1.12-5.25 1.48-4.23-1.21-7.79-2.96-11.37-5.67-.11-.08-.24.09-.14.18 2.77 2.7 6.52 4.75 10.35 5.69-1.55.25-3.14.37-4.79.3-1.23-.05-2.41-.21-3.56-.46-.88-.52-1.74-1.02-2.51-1.74-.92-.85-1.55-1.85-2.27-2.86-.11-.16-.42-.07-.34.14.6 1.51 1.92 3.01 3.42 4.03-1.29-.36-2.55-.81-3.81-1.29-.2-.18-.41-.35-.6-.54-.56-.58-1-1.25-1.5-1.89-.09-.12-.31.01-.25.15.27.65.7 1.28 1.2 1.84-.97-.39-1.94-.78-2.92-1.17-.01-.01 0-.02-.01-.03-.02-.02-.02-.04-.04-.06a.305.305 0 0 0-.09-.13c-.22-.34-.31-.71-.39-1.11-.03-.14-.22-.12-.26 0-.13.4-.05.79.14 1.13-.03.01-.06.03-.08.05-3.19.93-6.67 1.92-10.18 2.47 3.61-.99 7.04-2.74 9.82-5.15.15-.13-.05-.39-.21-.28-4.53 3.17-9.04 5.08-14.44 5.86-.92.01-1.83-.04-2.73-.13 2.48-.32 5.04-1.55 7.13-2.54.14-.07.04-.31-.11-.25-2.7 1.07-5.96 2.54-8.93 2.49-.82-.17-1.61-.41-2.4-.69 3.64-.73 7.31-2.12 10.41-4.12.22-.14.03-.46-.2-.34-3.58 1.83-7.09 3.22-10.98 4.19-1-.42-1.97-.94-2.91-1.59 3.21-1.82 6.49-3.16 10.05-4.19.15-.04.09-.26-.06-.23-3.78.68-7.45 2.22-10.65 4.33-.2.13-.04.42.16.35 6.63 5.62 19.19 4.21 26.48.36 1.87 1.06 3.8 1.92 5.77 2.6.01 0 .02.01.03.02h.02c7.28 2.49 15.1 2.24 22.18-1.78.24-.15.14-.49-.08-.52z" fill="#955932" stroke-width="none" opacity="1"></path></g></g><g id="svga-group-nose-single-move" transform="matrix(1,0,0,1,0,0)"><g id="svga-group-nose-single" transform="matrix(1,0,0,1,0,0)"><path id="SvgjsPath19907" d="M102.45 100.66c.12 1.28.05 5.25.48 6.39.43 1.14.81 1.43 2 .43s2.34-.57 3.05 1c.72 1.57 1.34 4.34.38 6.2-.95 1.86-1.86.57-2.77.52-.91-.05-1.96.72-2.24 2.29-.29 1.57-.91 4.05-2.48 4.34s-3.24-1-3.86-2.62c-.62-1.62-.76-4.44-1.76-4.86-1-.43-2.77 1.05-3.29.95-.52-.1-1.05-3.1-.76-5.15.29-2.05.67-3.05 2.24-3.15 1.57-.1 2.36 1.82 2.87 1.51.51-.32.75-1.46.89-2.89s-.1-3.72-.14-4.58c-.05-.86 1.1-2.19 2.77-2.19 1.67-.01 2.53.76 2.62 1.81z" fill="#cb8d60" stroke-width="none" opacity="1" transform="translate(0 1)" stroke="none"></path><path id="SvgjsPath19908" d="M95.45 108.01c.11.11.47.55.58.66.04.04.08.04.13.04-.12.36-.25.73-.4 1.1-.1.24.29.39.42.18 2.18-3.58 1.35-7.86.86-11.78-.61-4.9.04-9.15 1.26-13.88.02-.08-.1-.13-.13-.06-1.75 3.52-2.16 7.85-1.85 11.72.34 4.3 1.18 8.3-.05 12.41-.69-1.49-2.79-2.57-4.15-1.24-1.68 1.63-1.47 5.74-.84 7.75.08.26.54.23.5-.07-.18-1.62-.39-3.14-.14-4.77.06-.41.12-.84.25-1.24.29-.93.34-.97 1.37-1.35 1.13-.44 1.36-.28 2.19.53z" fill="#9d521b" stroke-width="none" opacity="1" transform="translate(0 1)" stroke="none"></path><path id="SvgjsPath19909" d="M97.19 116.41c.16.16.39.03.41-.17.3-2.38-3.97-3.61-5.11-1.55-.1.18.06.38.26.34.94-.2 1.74-.63 2.71-.21.74.32 1.17 1.04 1.73 1.59z" fill="#9d521b" stroke-width="none" opacity="1" transform="translate(0 1)" stroke="none"></path><path id="SvgjsPath19910" d="M104.81 114.92c-.65.22-1.31.72-1.4 1.43-.03.24.31.34.46.19.4-.39.69-.79 1.28-.91.46-.1.96.17 1.38-.03.1-.05.14-.18.12-.28-.2-.7-1.32-.58-1.84-.4z" fill="#9d521b" stroke-width="none" opacity="1" transform="translate(0 1)" stroke="none"></path><path id="SvgjsPath19911" d="M108.1 107.93c-1.02-1.89-2.69-1.75-3.75.07-.07.12.09.25.19.15.89-.88 2.22-1.16 3.04.09.38.58.58 1.39.72 2.06.32 1.6-.01 2.99-.3 4.56-.05.27.33.48.48.2 1.13-2.13.74-5.07-.38-7.13z" fill="#9d521b" stroke-width="none" opacity="1" transform="translate(0 1)" stroke="none"></path><path id="SvgjsPath19912" d="M102.81 106.05c-.08-3.69.08-7.29.65-10.95.01-.07-.09-.11-.11-.03-1.24 3.55-1.51 7.32-.69 11 .02.09.16.07.15-.02z" fill="#9d521b" stroke-width="none" opacity="1" transform="translate(0 1)" stroke="none"></path><path id="SvgjsPath19913" d="M103.19 117c-.36 1.79-.83 4.54-3.14 4.5-.87-.02-1.04-.18-1.59-.8-.36-.41-.66-.87-.95-1.33-.56-.89-1.02-1.85-1.36-2.84-.05-.16-.28-.09-.25.07.38 1.99 1.7 6.22 4.39 5.98 2.37-.2 4.03-3.49 3.32-5.59-.05-.18-.37-.22-.42.01z" fill="#9d521b" stroke-width="none" opacity="1" transform="translate(0 1)" stroke="none"></path><path id="SvgjsPath19914" d="M107.18 109.2c-.8-.84-2.02-1.05-2.81-.13-.18.21-.01.6.29.5.58-.18 1.39.22 1.67.72.4.72.09 1.54.38 2.26.12.32.59.56.86.23.78-.96.43-2.72-.39-3.58z" fill="#d3986e" stroke-width="none" opacity="1" transform="translate(0 1)" stroke="none"></path><path id="SvgjsPath19915" d="M102.78 110.71c-.06-2.52-.74-5.04-1.22-7.5-.57-2.89.87-5.37 1.05-8.22.17-2.63-.32-5.27-1-7.8-.12-.46-.75-.25-.69.19.42 2.93 1.12 5.91.64 8.88-.35 2.2-1.31 4.26-1.54 6.49-.24 2.38.21 4.85.14 7.24-.04 1.19.01 2.38-.04 3.57-.06 1.26-.36 2.54.07 3.75.17.48.88.82 1.27.33 1.36-1.7 1.38-4.81 1.32-6.93z" fill="#d3986e" stroke-width="none" opacity="1" transform="translate(0 1)" stroke="none"></path></g></g><g id="svga-group-hair-front" transform="matrix(1,0,0,1,0,0)"><path id="SvgjsPath19963" d="M99.9 58.5s-7.8-3.9-12.3-4.1C79.9 54.1 77.4 84 77.4 84s-3.8-13.2-.7-26.6c0 0-4.5 7.2-5.2 24.5 0 0-5.8-11.7-.2-27.5 0 0-6 8.3-7.3 37.7 0 0-1.5-6.9-1.5-9.9 0 0-2.3 16.2-1.3 24.5 0 0-2.5-4.5-3.6-10.6s-.8-9.3-.8-9.3-1 2.5-1.5 6.6c0 0-3.3-8.1-.7-20.7 0 0-3.5 8.6-4.3 14.4 0 0-1.3-5.6 1-16.1s7.2-18.3 7.2-18.3-3.1 3.6-7.3 10.9c0 0 1.1-13.5 15-24.9S86.8 31 86.8 31s-1.7-1.8-10.6-.2c0 0 5.8-3.1 14.6-3 8.8.2 10.9 5.1 10.9 5.1s3.8-4.3 12.4-5.8c0 0-2.5 2.1-3.3 3 0 0 4.3-1 11.9.3 0 0-3.6.3-4.6.8 0 0 7.1-.2 15.7 6.3s13.1 17 14.4 23.7c0 0-4.1-8.4-7.9-11.6 0 0 6.6 9.9 8.8 22.2l-2.3-3s2 8.3 1 17.5l-1.8-3.8s-.2 8.6-3.6 14.4l-.3-3.5s-.8 8.1-2.1 11.1c0 0 .2-17.4-1.7-24.7 0 0-.2 3.5-.5 6.1 0 0-1.7-12.9-4-16.1 0 0 .5 1.8-1.2 7.9 0 0-1.2-11.3-5.1-19.9 0 0 .3 12.4-.8 18.7 0 0-2.5-19.5-6.6-22.7 0 0 3 14.6-.2 24.7 0 0-1.4-23.6-7.3-24.6-6.1-.6-9 2.3-12.7 4.6z" fill="#a46c47" stroke-width="none" opacity="1" stroke="none"></path><path id="SvgjsPath19964" d="M77.7 83.4c-.1-5.9.4-11.7 2.1-17.4.7-2.5 1.5-5.6 2.9-7.9 3.2-5.1 7.6-4.4 12-2.7.3.1.4-.3.2-.5-5.6-2.9-10.2-2.5-13.1 3.5-3.6 7.6-5 16.6-4.6 24.9.1.4.5.4.5.1zM81 50.9c-6.3 5.7-5.9 15.3-5 23 0 .3.5.3.5 0-.2-8.3-.4-15.8 4.8-22.8.2-.2-.1-.4-.3-.2zm4.3-5C72.4 43.8 69 58.7 70.1 68.3c0 .2.2.2.2 0-.7-9.8 2.5-23.1 14.9-22 .2 0 .3-.3.1-.4zm15.2 11.6c6.7-3.8 13.7-6.3 16.8 3.5 1.8 5.7 2 11.5 2.2 17.4 0 .3.6.4.6.1 1-6.8.6-18.5-4.7-23.6-4.6-4.6-11.2-1-15.3 2.3-.2.1.2.5.4.3zm18.9-4c4.5 8.2 6.3 15.5 7 24.8 0 .4.5.4.6 0 .9-8.6-2.1-18.2-7.2-25.1-.2-.2-.6.1-.4.3zm6.7 3.1c3.4 6.9 4.7 13.4 6.4 20.7.1.2.4.2.4-.1.3-7.2-2.7-14.9-6.4-20.9-.2-.2-.5 0-.4.3zm-26.2-4.1c-2-2.8-4.9-5.3-8.3-6.4-.2-.1-.4.3-.2.4 3.1 1.6 5.8 3.4 7.9 6.3.4.2.8 0 .6-.3zm.8-5.5c-4.1-8.5-15.1-10.7-23.2-7.1-10.4 4.6-15.2 16-15.1 26.8 0 .3.5.3.5 0 .9-9.5 4.1-19.1 12.6-24.4 8.7-5.4 18.9-3.4 24.8 4.9.2.3.6.1.4-.2zM57.1 78.1c-1.1 7.7-.5 15.6 2.5 22.8.1.3.5.1.5-.2-1.9-7.5-3-14.7-2.5-22.5.1-.3-.4-.4-.5-.1zm4 27.2c-.1-6.1 0-12.1 0-18.2 0-.3-.5-.4-.5-.1-.9 6-.8 12.3 0 18.4 0 .3.5.2.5-.1zm-9.6-43.8C54.3 54.2 58 47.4 64 42.1c6-5.3 13-8.1 20.6-10.2.2-.1.2-.5-.1-.5C69 33.2 54.7 46.3 51.3 61.5c-.1.1.1.2.2 0zm.3 1.5c2.5-4.3 5.3-7.8 8.8-11.4.2-.3-.1-.8-.4-.5-3.9 2.8-7.2 7.2-9 11.7-.2.2.4.5.6.2zm-1.2 22.9c1.1-10.6 4.4-20.1 9.6-29.3.2-.3-.2-.5-.4-.2-5.9 8.8-9.1 19.1-9.8 29.6-.1.3.6.3.6-.1zm51.2-51c1.2-1.5 2.6-2.9 4.3-4 1.7-1.1 3.6-1.5 5.5-2.1.3-.1.3-.6-.1-.6-4.1-.1-8.2 2.9-10.1 6.4-.1.2.2.5.4.3zm6.6-1.8c17.1-3.6 30.8 12.9 36.2 27.1.1.4.7.2.6-.2-3.8-14.4-20.6-32.6-37-27.6-.4.2-.3.8.2.7zm31.9 28.5c1.6 1.7 3.3 3.4 4.7 5.3 1.3 1.7 2.4 3.6 3.8 5.3.2.2.5 0 .4-.2-1.4-4-5.2-8.1-8.5-10.8-.3-.2-.7.2-.4.4zm2.8 3.1c3.6 7.4 4 13.7 3.7 21.8 0 .3.4.3.5.1 2.4-7.1.3-16-3.7-22.1-.3-.4-.7-.2-.5.2zm-5.3 12.4c2.3 8.7 2.7 17.2 2.2 26.2 0 .3.6.4.6.1 1.4-8.8.3-17.9-2.4-26.4 0-.2-.4-.1-.4.1zM102 49.5c8.8-11.4 22.7-5.1 28.8 5.1.2.3.6 0 .4-.3-5.2-11-22.1-17.7-29.7-5.1-.1.4.3.6.5.3zm-.9-9.3c-.8-1.2-2-2.5-3.4-3-.2-.1-.3.2-.2.4.6.5 1.3.8 1.9 1.3.6.5 1 1 1.5 1.5.1.1.3-.1.2-.2zm37 25.1c2.7 6.8 3.6 13.8 4 21.1 0 .3.5.3.5 0 .4-7.4-1.3-14.4-4.1-21.2-.1-.2-.5-.1-.4.1z" fill="#955932" stroke-width="none" opacity="1" stroke="none"></path><path id="SvgjsPath19965" d="M98.1 54.6c-5.3-8.5-17.3-8.2-22.7-.1-.1.1.1.3.2.2 6.2-7.3 15.9-6.8 22 .3.2.3.7-.1.5-.4zM81.2 56c-2.6 4.5-3.8 9.4-3.3 14.6 0 .3.4.3.4 0 .1-5 1.1-9.9 3.2-14.5.1-.1-.2-.2-.3-.1zm17.3-7.7c-4.7-8.9-15.9-9.5-23.5-3.9C64.8 52 63.6 66.2 63.6 77.9c0 .3.4.3.5 0 .7-9.3.9-19.1 6.2-27.2 6.2-9.6 21.4-14.1 27.9-2.1.1.1.5-.1.3-.3zm-5.4-11c-7-2.5-15.3-1.5-20.8 3.7-.2.2.1.5.3.4 6.4-4 13-5.8 20.4-3.7.2.1.3-.3.1-.4zm-4.7-3.9c-1.8-.5-3.8-.5-5.6.3-.2.1-.1.4.1.3 1.8-.5 3.5-.7 5.3-.2.4.1.5-.3.2-.4zm13.9 20.1c4.9-3.9 10.2-5.2 16.3-4.6.4 0 .4-.5.1-.6-5.9-1.6-12.6.5-16.9 4.7-.3.3.2.8.5.5zm2.2-4.6c1.6-1.4 3.3-1.9 5.3-2.3.2-.1.2-.4-.1-.4-2.1 0-4.1 1.1-5.6 2.5-.2.1.2.4.4.2zm0-6.7c5.2-4.3 11.5-4.8 17.7-2.5.3.1.6-.4.2-.6-5.9-3.4-13.5-1.9-18.3 2.7-.2.3.2.6.4.4zm5.1-6c1.3-.9 2.9-1.2 4.5-1 .3 0 .3-.4.1-.5-1.7-.4-3.4.1-4.8 1.1-.3.2-.1.6.2.4zm27.9 24.3c4.4 9.2 5.4 17.8 6 27.8 0 .2.3.3.4.1 1.5-9.5-1.4-19.8-5.9-28.1-.2-.3-.6-.1-.5.2zm5.1-3c.4 1.4.7 3.1 1.4 4.4.1.3.5.1.5-.2-.2-1.5-.9-2.9-1.4-4.3-.2-.3-.6-.2-.5.1zM59.7 91c-.1-2.9-.1-5.8-.2-8.7 0-.2-.2-.2-.2 0 0 2.9.1 5.8.2 8.7-.1.2.2.2.2 0z" fill="#b38160" stroke-width="none" opacity="1" stroke="none"></path></g><g id="svga-group-glasses-single-move" transform="matrix(1,0,0,1,0,0)"><g id="svga-group-glasses-single" transform="matrix(1,0,0,1,0,0)"></g></g></g></g></g><rect id="svga-credit-rect" width="200" height="15" x="0" y="185" fill="#ecf0f1" opacity="0.5" style="display: none;"></rect><text id="svga-credit-text" font-family="Avenir Next, Roboto, Helvetica, Arial, sans-serif" font-size="10px" text-anchor="start" font-weight="400" size="10px" anchor="start" weight="400" fill="#333333" x="33.43669891357422" y="182.60824704170227" style="display: none;"><tspan id="SvgjsTspan19265" dy="13" x="33.43669891357422">Created on AvatarMaker.com</tspan></text></g></svg>