<svg xmlns="http://www.w3.org/2000/svg" version="1.1" width="600px" height="600px" viewBox="0 0 200 200" style="overflow:hidden!important;"><g id="svga-group-wrapper"><g id="svga-group-backs-single"><path id="SvgjsPath13644" d="M0 0h200v200H0V0z" fill="#ece5ce" stroke-width="none" opacity="1"></path><path id="SvgjsPath13645" d="M0 0v10.1L76.5 100 0 0zm0 34.1V50l76.5 58.3L0 34.1zm0 37.1v13.6l76.5 33.4L0 71.2zM38.3 0H21.1l67.2 108.3L38.3 0zm36.3 0H61l27.2 90L74.6 0zM0 108.3v9.9l76.5 9.9L0 108.3zM0 144v13.6l76.5-22.1L0 144zm0 35.7V200l88.3-64.5L0 179.7zM38.3 200h16.4l26.5-42.4L38.3 200zm85.2-100L200 10.1V0l-76.5 100zM200 50V34.1l-76.5 74.2L200 50zm0 34.8V71.2l-76.5 47L200 84.8zM178.9 0h-17.2l-50 108.3L178.9 0zM139 0h-13.6l-13.6 90L139 0zm61 118.2v-9.9L123.5 128l76.5-9.8zm0 39.4V144l-76.5-8.5 76.5 22.1zm0 42.4v-20.3l-88.3-44.2L200 200zm-54.7 0h16.4l-43-42.4 26.6 42.4zM111.7 0H88.3L100 100 111.7 0zM76.5 200h11.7l6.4-58.5L76.5 200zm35.2 0h11.7l-18.2-58.5 6.5 58.5zm-17 0h10.6l-5.3-42.4-5.3 42.4z" fill="#ddd1ab" stroke-width="none" opacity="1"></path></g><g id="svga-group-humanwrap-move" transform="matrix(1,0,0,1,0,0)"><g id="svga-group-humanwrap"><g id="svga-group-hair-back-move" transform="matrix(1,0,0,1,0,0)"><g id="svga-group-hair-back"><path id="SvgjsPath13910" d="M121 39.3s4.6-18-21.5-18.6c0 0-6.7-6.5-20.5-1.7 0 0-12.7.4-19.8 11.7 0 0-15 6.3-15.9 32.4 0 0-5.2 12.7 4.4 33.8s.4 39.5-4.4 48-7.3 26.7 6.9 36.8 10.4 21.7 9.4 24.4c0 0 12.5-5 13.4-12.7s-3.1-6.5-1.7-12.1 7.1-5.4 10.2-14.4c3.1-9 0-23-1.9-31.5s-5.4-42.8 3.8-55.1 25.3-23 30.7-28.4c5.4-5.4 6.9-12.6 6.9-12.6z" fill="#2c2219" stroke-width="none" opacity="1"></path><path id="SvgjsPath13911" d="M101.4 30s-1.1-14.2-20.7-10.3S57 51 59.1 62.7c0 0 .4-24.5 11.5-34.3s26.3-7.6 30.8 1.6z" fill="#3b3128" stroke-width="none" opacity="1"></path><path id="SvgjsPath13912" d="M83.5 37.7S82 35.1 85 31.6c3-3.5 15.7-4.9 21.4-2.7s4.8 3.7 5 4.7c0 0-18-.3-27.9 4.1z" fill="#000000" stroke-width="none" opacity="1"></path></g></g><g id="svga-group-humanbody-back"><path id="SvgjsPath13723" d="m168.5 219.5-1.7-21.5s.7-9-8.8-15.3-23.4-10.1-29.5-14.2c-6.1-4.1-9.2-4.5-9-16.9s.9-40.3.9-40.3H79.6s.7 27.9.9 40.3c.2 12.4-2.9 12.8-9 16.9-6.1 4.1-20 7.9-29.5 14.2S33.2 198 33.2 198l-1.6 21.5h136.9z" fill="#ffd0bc" stroke-width="none" opacity="1"></path></g><g id="svga-group-chinshadow-single"><path id="SvgjsPath13719" d="M83.1 156.9c5 5.2 12.1 7.4 16.9 7.4s12-2.1 16.9-7.4c.86-.92 1.73-1.91 2.61-2.96-.02-.73-.02-1.5-.01-2.34.2-12.4.9-40.3.9-40.3H79.6s.7 27.9.9 40.3c.01.85.01 1.64-.01 2.38.88 1.04 1.76 2.01 2.61 2.92z" fill="#e09879" stroke-width="none" opacity="0.65"></path></g><g id="svga-group-humanbody-front"><path id="SvgjsPath13724" d="M73.8 175.9c5.1 2.9 11.8 5.2 17.6 5.7.4 0 .4-.6.1-.7-2.8-1.1-5.9-1.7-8.8-2.6-2.9-.9-5.8-2-8.8-2.7-.1-.1-.3.2-.1.3zm35.2 6.2c5.3-.6 11.3-3 15.9-5.8.3-.2.1-.6-.2-.5-2.6.9-5.2 2-7.8 2.9-2.6.9-5.4 1.5-8 2.5-.5.1-.5.9.1.9z" fill="#e09879" stroke-width="none" opacity="1"></path><path id="SvgjsPath13725" d="m168.4 219.4-2.1-21.4c0-2.2-.5-4.5-1.5-6.6-.9-2.1-2.3-3.9-3.9-5.5s-3.5-2.8-5.5-4c-2-1.2-4.1-2.2-6.2-3.1-4.2-1.9-8.6-3.6-12.9-5.4-2.2-.9-4.3-1.9-6.4-3-1.1-.6-2.1-1.2-3-1.9-1-.6-2-1.2-3-1.9s-2-1.5-2.8-2.6c-.8-1-1.3-2.2-1.7-3.4-.7-2.4-.8-4.8-.8-7.2 0-4.7.2-9.4.3-14.1.2-9.4.6-18.7.9-28l.6.6-20.4-.2-20.4-.1.3-.3.7 28c.1 4.7.3 9.3.4 14 0 2.4-.1 4.7-.8 7.1-.3 1.2-.9 2.3-1.6 3.3-.8 1-1.7 1.8-2.7 2.5s-2 1.3-2.9 2c-.9.6-1.9 1.3-3 1.9-2.1 1.2-4.2 2.1-6.4 3.1-4.3 1.9-8.6 3.6-12.8 5.6-2.1 1-4.2 2.1-6.1 3.2-2 1.2-3.8 2.4-5.4 4-1.6 1.6-2.9 3.4-3.8 5.4-.4 1-.8 2.1-1 3.1-.2 1.1-.4 2.2-.3 3.2v.2l-1.5 21.5-1-1.1 34 .1c11.3 0 22.7.1 34.1.2l34.2.3 34.4.5zm.2.2-34 .4-34.2.3c-11.4.1-22.9.2-34.4.2l-34.4.1h-1.1l.1-1.1 1.7-21.5v.1c-.1-5.1 2.2-9.8 5.7-13.3 1.7-1.7 3.8-3.1 5.8-4.3 2-1.2 4.2-2.2 6.3-3.2 4.3-2 8.7-3.7 13-5.4 2.1-.9 4.3-1.8 6.3-2.9 1-.5 1.9-1.1 3-1.8 1-.6 2-1.2 2.9-1.9.9-.6 1.8-1.4 2.4-2.2.7-.9 1.2-1.9 1.5-2.9.6-2.1.8-4.5.8-6.8 0-4.6-.1-9.3-.2-14l-.6-28v-.3h.3l20.4-.1 20.4-.2h.6v.6c-.1 9.3-.2 18.7-.4 28-.1 4.7-.2 9.4-.2 14 .1 2.3.2 4.6.8 6.7.3 1.1.8 2 1.4 2.9.6.8 1.4 1.6 2.4 2.2.9.6 1.9 1.3 2.9 1.9 1 .7 1.9 1.3 2.9 1.8 2 1.1 4.1 2.1 6.3 3 4.3 1.8 8.6 3.6 12.9 5.6 2.1 1 4.2 2.1 6.2 3.3 2 1.2 4 2.6 5.7 4.3 3.4 3.4 5.6 8.1 5.4 13v-.1l1.4 21.6zm-112.8-.4 1.9-13.8.1 13.8h-2zm88.6 0-1.9-13.8-.1 13.8h2z" fill="#d17f5b" stroke-width="none" opacity="1"></path></g><g id="svga-group-clothes-single"><path id="SvgjsPath13878" d="m122.4 220 2.7-26.8s-14.3 16-25 19.1c0 0-16.5-9.3-26.3-19.1l3.9 26.8h44.7z" fill="#efefef" stroke-width="none" opacity="1"></path><path id="SvgjsPath13879" d="M125.3 192.9c-.2-.2-.4-.1-.6 0a147.859 147.859 0 0 1-11.5 10.9c-2 1.7-4.1 3.3-6.3 4.8-2.2 1.4-4.5 2.7-6.9 3.5-2.3-1.3-4.6-2.7-6.9-4.2-2.3-1.5-4.5-3-6.7-4.6-4.4-3.2-8.6-6.6-12.4-10.4-.1-.1-.2-.1-.3-.1-.2 0-.3.2-.3.4.6 4.5 1.2 8.9 1.8 13.4.6 4.5 1.2 8.9 1.9 13.4 0 .2.3.4.5.4h11.3l11.2-.1 11.2-.1 11.1-.2 1.6-13.3 1.5-13.5c0-.1-.1-.2-.2-.3zm-1.9 13.5-1.1 13.5-11.3-.2-11.2-.1-11.2-.1H77.9c-.6-4.3-1.3-8.6-1.9-13-.6-4.1-1.2-8.2-1.9-12.3 3.7 3.5 7.8 6.6 11.9 9.5 2.2 1.6 4.5 3.1 6.8 4.5s4.6 2.9 7 4.3h.1c2.6-.8 4.9-2 7.2-3.4s4.4-3 6.5-4.6c2.1-1.7 4.1-3.4 6-5.3 1.6-1.5 3.2-3.2 4.7-4.8-.2 4-.5 8-.9 12z" fill="#3a0538" stroke-width="none" opacity="1"></path><path id="SvgjsPath13880" d="M75.7 167.9s1.2-3.7 1.7-6.4c.6-2.7.4-9.3.4-9.3s-1.9 4.1-4.6 6.4-13.2 9.1-13.2 9.1l2.3 1.6S37.7 178 36 179.2c-1.7 1.2-1.9 3.7-1.9 3.7l-2.1.6c-4.1 16.8-4.1 36.6-4.1 36.6h54.5s-2.3-16.6-3.3-23c-.9-6.5-3.4-29.2-3.4-29.2zm92.7 15.5-2.1-.6s-.2-2.5-1.9-3.7c-1.7-1.2-26.3-9.9-26.3-9.9l2.3-1.6s-10.4-6.8-13.2-9.1c-2.7-2.3-4.6-6.4-4.6-6.4s-.2 6.6.4 9.3 1.7 6.4 1.7 6.4-2.5 22.6-3.5 29c-1 6.4-3.3 23-3.3 23h54.5c0 .2 0-19.5-4-36.4z" fill="#591956" stroke-width="none" opacity="1"></path><path id="SvgjsPath13881" d="M140.3 179c-1.8-1.9-4.2-3.2-6.2-5-2-1.8-3.6-3.9-5.4-5.9-.2-.2-.6.1-.4.3 1.3 2.5 3.1 4.7 5.1 6.7 1.7 1.7 3.9 3.9 6.3 4.7-5.2 9.5-8.4 21.2-9.6 31.9 0 .2.3.3.4.1 1.2-5.5 2.2-11 3.9-16.4 1.6-5.4 4.1-10.4 6.1-15.7.1-.1 0-.2-.1-.3.1-.1 0-.2-.1-.4zm-2-11.9c-2.1-1.2-4.3-2.2-6.3-3.6-2.2-1.5-4.2-3.3-6.1-5.2-.2-.2-.4.1-.2.2 3.1 3.9 7.5 7.8 12.4 9.1.3.2.5-.3.2-.5zm18.9 10.5c-5.7-2.4-11.6-4.6-17.5-6.4-.2-.1-.3.2-.1.3 3.5 1.7 7.1 3.3 10.7 4.8 4.6 1.9 10.2 3.1 12.7 7.8.2.4.8.1.7-.3-.6-3.5-3.5-5-6.5-6.2zm9.5 8.4c-.1-.4-.7-.3-.7.1.7 5.4 1.9 10.6 2.5 16 .6 5.4.4 10.9 1.1 16.2 0 .4.5.4.6 0 1.2-9.9-.4-22.8-3.5-32.3zm-92.6-16.9c.5-1 .6-2.2.8-3.3.3-1.2.7-2.4 1-3.6.1-.2-.2-.3-.3-.1-.7 1-1.1 2.1-1.6 3.2-.4 1.1-.9 2.4-.8 3.6.1.4.7.7.9.2zm-.3 1.6c0-.1-.2-.1-.2 0-.1 6.5 1.2 13.2 2.2 19.7 1 7.1 2.1 14.3 4 21.3 0 .1.1 0 .1 0-.7-6.6-1.8-13.1-2.8-19.6-1.2-7-1.5-14.4-3.3-21.4zm-5.1 0c-2.8 3.1-5.4 5.9-8.8 8.3-.4.3-.3.9.1 1 1.4 4.4 3.4 8.5 4.8 12.9 1.4 4.5 2.3 9.2 3.5 13.7.1.3.5.2.5-.1-.5-8.7-3.2-19.2-7.9-26.7 3.3-2.3 6.5-5.2 8.4-8.7 0-.4-.4-.7-.6-.4zm-32.6 11.1c1.3 5.7 3.9 11.4 5.9 16.9.1.3.5.2.5-.1-1.1-5.6-2.6-12.2-5.6-17.1-.4-.4-.9-.1-.8.3z" fill="#682865" stroke-width="none" opacity="1"></path><path id="SvgjsPath13882" d="M80.7 200.4c-.3-2.2-.6-4.3-.9-6.5-1.1-8.6-2.2-17.3-3.4-25.9.4-1.2.7-2.5 1-3.7.1-.3.2-.6.2-.9.3-.4.9-1.1 1.3-2 .6-1.4 1.1-3.8 1.2-6.2s0-4.8 0-4.8-2.4 1.1-2.5 1.8c-.9 1.8-1.9 3.4-3.2 4.9-1.2 1.5-2.9 2.6-4.5 3.8-3 2.1-6 4.1-9.2 6-.3.2-.6.3-.9.5l-.1.1c-.2.2-.1.5.1.6.4.3.8.6 1.2.8l.2.2c-4.8 1.6-9.6 3.2-14.4 4.9-2.5.9-5.1 1.8-7.6 2.8l-1.9.8-1 .4c-.3.2-.7.3-1 .6-.7.5-1.2 1.2-1.5 1.9-.2.5-.4 1.1-.5 1.6l-1.6.4c-.3.1-.5.3-.6.6-1.4 6-2.2 12.2-2.8 18.3-.2 3.1-.5 6.1-.5 9.2 0 1.5-.1 3.1-.1 4.6v4.6l27 .6 13.8.2c4.6.1 9.2.1 13.8.1h.2c.6-.1 1-.6.9-1.2l-1.8-13-.9-6.1zM28 219.9c.1-.1 0-.3.1-.5v-.6l.1-1.1.1-2.3c.1-1.5.2-3.1.4-4.6.3-3.1.6-6.1 1-9.1s.9-6.1 1.4-9.1c.5-2.9 1.1-5.7 1.8-8.5l1.6-.4h.1c.5 1.2 1.1 2.4 1.5 3.7l.9 2.2.8 2.3c1 3 1.9 6.1 2.6 9.2.8 3.1 1.4 6.2 2 9.4.3 1.6.5 3.2.7 4.8.2 1.4.4 2.9.5 4.4l-15.6.2zm41-.8-13.5.2-12 .3c0-3.1-.2-6.2-.6-9.2-.4-3.2-1-6.4-1.7-9.5-.8-3.1-1.7-6.2-2.9-9.2-1-2.8-2.3-5.4-3.8-8 .2-.1.4-.4.4-.6.1-1.1.6-2.3 1.4-2.9.2-.2.4-.2.7-.4l.9-.4 1.9-.8 7.5-2.9 15-5.7c1.2.6 2.5 1.1 3.9 1.5-.5.4-1 .9-1.5 1.3-1.2 1-2.5 2-3.7 3-1.3.9-2.6 1.8-3.9 2.6-.4.2-.5.7-.4 1.1 1.3 3.3 2.6 6.6 3.8 9.9 1.2 3.3 2.3 6.7 3.5 10.1 1.1 3.4 2.1 6.8 3.1 10.2.9 3.1 1.6 6.3 2.4 9.5-.2-.1-.3-.1-.5-.1zm.6 0c-.3-3.3-.7-6.5-1.3-9.7-.7-3.5-1.5-7-2.5-10.5s-2.1-6.9-3.3-10.3c-1.2-3.1-2.4-6.2-3.8-9.3 1.2-.8 2.2-1.6 3.3-2.5 1.2-1 2.4-2.1 3.6-3.3 2.3-2.3 4.5-4.6 6.5-7.1-1.9 1.7-3.7 3.3-5.6 4.9-1.2-.9-2.4-1.6-3.7-2.3 0 0 0-.1-.1-.1l-1.1-.7c-.2-.1-.4-.3-.7-.4.1-.1.2-.1.3-.2 3-2 6-4.1 9-6.2 1.6-1.2 3.3-2.3 4.7-3.8 1-1.2 1.9-2.5 2.7-3.8 0 2.2-.1 4.4-.3 6.5-.2 1.3-.5 2.5-.9 3.8-.4 1.3-.8 2.5-1.2 3.8v.2c.8 8.7 1.8 17.4 2.8 26.1.2 2.2.5 4.4.8 6.5l.9 6.5 1.7 11.8c-4 0-7.9 0-11.8.1zm102.9-8.3c-.1-3.1-.3-6.1-.6-9.2-.5-6.1-1.4-12.3-2.8-18.3-.1-.3-.3-.5-.6-.6l-1.6-.4c-.1-.6-.2-1.1-.5-1.6-.3-.7-.8-1.4-1.5-1.9-.3-.3-.7-.4-1.1-.6l-1-.4-1.9-.8c-2.5-1-5.1-1.9-7.6-2.8-4.8-1.7-9.6-3.3-14.4-4.9l.2-.2c.4-.3.8-.5 1.2-.8.2-.1.3-.4.1-.6 0-.1-.1-.1-.1-.1-.3-.2-.6-.4-.9-.5-3.1-1.9-6.2-3.9-9.1-6-1.6-1.2-3.3-2.3-4.5-3.8-1.3-1.5-2.3-3.2-3.2-4.9 0-.1-.1-.1-.1-.1-.5-.6-2.4-1.1-2.4-1.1-.1 2.9-.1 7.4.5 9.7.4 1.7 1.8 3.6 2.4 4.5.3 1 .5 2 .8 2.9-1.2 8.6-2.3 17.2-3.4 25.9-.3 2.2-.6 4.3-.9 6.5l-1 6.5-1.8 13c-.1.6.3 1.1.9 1.2h.2c4.6 0 9.2 0 13.8-.1l13.8-.2 27-.6c.1-.3 0-.5.1-.6v-4c.1-2.1.1-3.6 0-5.1zm-53.4 8.1 1.7-11.8.9-6.5c.3-2.2.6-4.3.8-6.5 1-8.7 1.9-17.4 2.8-26.1v-.2c-.4-1.2-.8-2.5-1.2-3.8-.3-1.3-.7-2.5-.9-3.8-.2-2.1-.3-4.3-.3-6.5.8 1.4 1.7 2.6 2.7 3.8 1.3 1.6 3.1 2.7 4.7 3.8 3 2.1 6 4.1 9 6.2.1.1.2.1.3.2-.2.1-.4.3-.7.4l-1.1.7-.1.1c-1.3.7-2.5 1.4-3.7 2.3-1.9-1.6-3.8-3.2-5.6-4.9 2 2.5 4.2 4.9 6.5 7.1 1.1 1.1 2.3 2.2 3.6 3.3 1.1.9 2.1 1.7 3.3 2.5-1.4 3.1-2.6 6.1-3.8 9.3-1.2 3.4-2.4 6.8-3.3 10.3-1 3.4-1.8 7-2.5 10.5-.6 3.2-1.1 6.5-1.3 9.7-4 0-7.9 0-11.8-.1zm25.8.4-13.5-.2h-.5c.8-3.2 1.5-6.3 2.4-9.5.9-3.4 2-6.9 3.1-10.2 1.1-3.4 2.2-6.8 3.5-10.1 1.2-3.3 2.5-6.7 3.9-9.9.2-.4 0-.9-.4-1.1-1.3-.7-2.6-1.6-3.9-2.6-1.3-.9-2.5-1.9-3.7-3-.5-.4-1-.9-1.5-1.3 1.3-.4 2.6-1 3.9-1.5l15 5.7 7.5 2.9 1.9.8.9.4c.3.1.5.2.7.4.8.6 1.3 1.8 1.4 2.9 0 .3.2.5.4.6-1.4 2.6-2.7 5.2-3.8 8-1.2 3-2.1 6.1-2.9 9.2-.7 3.1-1.4 6.3-1.7 9.5-.4 3.1-.6 6.1-.6 9.2l-12.1-.2zm12 .3c.2-1.5.3-2.9.6-4.4.2-1.6.5-3.2.7-4.8.6-3.2 1.2-6.3 1.9-9.4.7-3.1 1.6-6.2 2.6-9.2l.8-2.3.9-2.2c.4-1.2 1-2.4 1.5-3.7h.1l1.6.4c.6 2.8 1.3 5.6 1.8 8.5.5 3 1 6 1.4 9.1.4 3 .7 6.1.9 9.1.1 1.5.3 3.1.4 4.6l.1 2.3.1 1.1v.6c0 .2 0 .4.1.5l-15.5-.2z" fill="#3a0538" stroke-width="none" opacity="1"></path></g><g id="svga-group-head" transform="matrix(1,0,0,1,0,0)"><g id="svga-group-ears-left-move" transform="matrix(1,0,0,1,0,0)"><g id="svga-group-ears-left"><path id="SvgjsPath13667" d="M61.4 94.2s-2.5-4.6-5-5.4-4.1.7-3.7 6.2 4.9 21.8 9.9 20.8.9-18.4-1.2-21.6z" fill="#ffd0bc" stroke-width="none" opacity="1"></path><path id="SvgjsPath13668" d="M62.3 96c.3.7.5 1.4.8 2.1.5 1.4.9 2.9 1.3 4.5.4 1.5.7 3.2.9 4.8.1.8.2 1.7.2 2.6s0 1.7-.1 2.6c-.1.8-.3 1.7-.6 2.3-.3.7-.7 1.1-1.2 1.4-.9.5-1.8.4-2.7-.1s-1.7-1.5-2.4-2.5c-.7-1.1-1.3-2.4-1.9-3.7-.6-1.3-1.1-2.8-1.5-4.2-.5-1.4-.9-2.9-1.3-4.4-.4-1.5-.8-3.1-1.1-4.7s-.4-3.4-.3-5.1c.1-.8.3-1.7.7-2.3.3-.6.8-.9 1.2-1.1s.9-.1 1.3-.1c.4.1.9.3 1.3.5.8.5 1.6 1.4 2.4 2.4.7 1 1.4 2 2.1 3.2.3.5.6 1.1.9 1.8zm-3.1-4.7c-.8-.8-1.5-1.5-2.3-1.8s-1.6-.4-2.3-.1c-.4.2-.7.4-.9.8-.3.4-.4 1-.5 1.7-.2 1.4-.1 3 .1 4.5.2 1.6.5 3.1.9 4.7.7 3 1.7 5.9 2.9 8.3.6 1.2 1.2 2.3 1.9 3.3.7.9 1.4 1.7 2.2 2.1.4.2.8.3 1.2.3s.8-.1 1.1-.3c.3-.2.6-.6.8-1 .2-.5.4-1.1.5-1.8.2-1.4.1-2.9 0-4.5s-.4-3.1-.6-4.7c-.3-1.6-.6-3.1-1-4.6s-.9-2.9-1.6-4c-.9-1.1-1.6-2.1-2.4-2.9z" fill="#f0b399" stroke-width="none" opacity="1"></path><path id="SvgjsPath13669" d="M55.4 92.2c2.2 1.4 4.1 5.4 5.1 9.3v.1c0 .3-.2.3-.2.1-.4-1.1-.8-1.1-1.4 0-.1.7-.1 1.4.1 2.2.1.7.4 1.3.6 1.9.5 1.1 1.1 2 1.7 2.9.2.3 0 .7-.2.5-1.3-1-3.2-4.4-2.8-7.4.2-1.4.9-2.1 1.5-1.6-.7-2-1.6-3.8-2.6-5.2-.6-.8-1.9-2.6-2.6-2.3-1.2.5-.5 4.5-.4 6.2 0 .3-.2.3-.3.1-.7-2.9-.8-8.3 1.5-6.8z" fill="#e09879" stroke-width="none" opacity="1"></path><path id="SvgjsPath13670" d="M60.6 110c-2.3-.9-3.9-4.5-4.9-8.5-.6-2.4-1.7-8 .5-8 .2 0 .3.5.1.6-2.1 1.1.2 8.6.8 10.4.9 2.5 2.1 4.1 3.5 5.1.1.1.1.5 0 .4z" fill="#e09879" stroke-width="none" opacity="1"></path></g></g><g id="svga-group-ears-right-move" transform="matrix(1,0,0,1,0,0)"><g id="svga-group-ears-right"><path id="SvgjsPath13671" d="M138.6 94.2s2.5-4.6 5-5.4 4.1.7 3.7 6.2c-.5 5.5-4.9 21.8-9.9 20.8-5.1-.9-.9-18.4 1.2-21.6z" fill="#ffd0bc" stroke-width="none" opacity="1"></path><path id="SvgjsPath13672" d="M138.6 94.1c.6-1.2 1.3-2.2 2.1-3.2.7-1 1.5-1.8 2.4-2.4.4-.2.9-.5 1.3-.5.4-.1.9-.1 1.3.1s.9.5 1.2 1.1.6 1.4.7 2.3c.2 1.7 0 3.5-.3 5.1s-.7 3.2-1.1 4.7c-.4 1.5-.8 3-1.3 4.4s-1 2.9-1.5 4.2c-.6 1.3-1.2 2.6-1.9 3.7s-1.5 2-2.4 2.5-1.8.6-2.7.1c-.4-.3-.8-.7-1.2-1.4-.3-.7-.5-1.5-.6-2.3-.1-.9-.1-1.7-.1-2.6s.1-1.7.2-2.6c.2-1.7.5-3.3.9-4.8s.8-3 1.3-4.5c.3-.7.5-1.4.8-2.1l.9-1.8zm.1.1c-.7 1.1-1.1 2.6-1.6 4-.4 1.5-.7 3-1 4.6s-.5 3.1-.6 4.7c-.1 1.5-.2 3.1 0 4.5.1.7.2 1.3.5 1.8.2.5.5.8.8 1s.7.3 1.1.3c.4 0 .8-.1 1.2-.3.8-.4 1.5-1.2 2.2-2.1.7-1 1.3-2.1 1.9-3.3 1.2-2.5 2.2-5.3 2.9-8.3.4-1.5.7-3.1.9-4.7.2-1.5.2-3.2.1-4.5-.1-.7-.3-1.2-.5-1.7-.3-.4-.6-.7-.9-.8-.7-.3-1.6-.2-2.3.1-.8.3-1.6 1-2.3 1.8-1.1.8-1.8 1.8-2.4 2.9z" fill="#f0b399" stroke-width="none" opacity="1"></path><path id="SvgjsPath13673" d="M139.4 110c2.3-.9 3.9-4.5 4.9-8.5.6-2.4 1.7-8-.5-8-.2 0-.3.5-.1.6 2.1 1.1-.2 8.6-.8 10.4-.9 2.5-2.1 4.1-3.5 5.1-.1.1-.1.5 0 .4z" fill="#e09879" stroke-width="none" opacity="1"></path><path id="SvgjsPath13674" d="M144.6 92.2c-2.2 1.4-4.1 5.4-5.1 9.3v.1c0 .3.2.3.2.1.4-1.1.8-1.1 1.4 0 .1.7.1 1.4-.1 2.2-.1.7-.4 1.3-.6 1.9-.5 1.1-1.1 2-1.7 2.9-.2.3 0 .7.2.5 1.3-1 3.2-4.4 2.8-7.4-.2-1.4-.9-2.1-1.5-1.6.7-2 1.6-3.8 2.6-5.2.6-.8 1.9-2.6 2.6-2.3 1.2.5.5 4.5.4 6.2 0 .3.2.3.3.1.7-2.9.8-8.3-1.5-6.8z" fill="#e09879" stroke-width="none" opacity="1"></path></g></g><g id="svga-group-faceshape-wrap"><g id="svga-group-faceshape-single"><path id="SvgjsPath13705" d="M100.06 41.44C78.66 41.44 60.2 56.9 59 85.4c0 0 .35 20.61 3.05 28.21 1 3 11.92 22.35 21.12 32.05 5 5.2 11.95 7.2 16.75 7.2s11.8-2.52 16.7-7.72c9.3-9.8 19.94-28.25 20.94-31.15 2.7-7.7 3.43-28.59 3.43-28.59-1.19-28.4-19.53-43.96-40.93-43.96z" fill="#ffd0bc" stroke-width="none" opacity="1"></path><path id="SvgjsPath13706" d="M100 41.3c-21.4 0-39.8 15.6-41 44.1 0 0 0 20.6 2.7 28.2 1 3 12.2 22.7 21.4 32.4 5 5.2 12.1 7.4 16.9 7.4s12-2.2 16.9-7.4c9.3-9.8 20.4-29.5 21.4-32.4 2.7-7.7 2.7-28.2 2.7-28.2-1.2-28.4-19.6-44.1-41-44.1zm30.1 16 .7 1 .6 1c1.6 2.6 2.9 5.4 3.9 8.3l1.1 3.3s1 4.2 1.3 5.7l.2 1.1.1.6.1.6.1 1.1c0 .4.1.8.1 1.1.1.8.1 1.5.2 2.3l.1 2.2-.1 2.3-.1 2.4c-.1 1.6-.1 3.2-.2 4.7-.2 3.2-.4 6.3-.7 9.4l-.1 1.2c0 .4-.1.8-.2 1.1l-.2 1.1-.2 1.1c-.1.8-.3 1.5-.4 2.2-.1.4-.2.7-.3 1s-.2.7-.3.9l-.4.9c-.1.3-1.2 2.4-1.6 3.1-.4.7-.8 1.4-1.1 2.1l-1.2 2.1c-1.6 2.7-3.2 5.5-4.9 8.1-1.7 2.7-3.4 5.3-5.3 7.9-1.8 2.5-3.7 5.1-5.8 7.4-1 1.1-2.1 2.1-3.2 3-1.2.9-2.5 1.7-3.8 2.3-1.3.7-2.8 1.2-4.2 1.6-1.4.4-2.9.6-4.4.7-1.5 0-3-.1-4.5-.4-1.5-.3-3-.7-4.4-1.3s-2.8-1.3-4.1-2.1c-1.3-.9-2.5-1.8-3.5-2.9l-1.6-1.7-1.5-1.8c-1-1.2-2-2.5-2.9-3.8-1.9-2.5-3.7-5.2-5.4-7.9-1.7-2.7-3.3-5.4-4.8-8.2l-1.1-2.1c-.4-.7-.7-1.4-1.1-2.1s-.7-1.4-1-2.1c-.2-.4-.3-.7-.5-1.1s-.3-.7-.4-1c-.4-1.4-.7-2.9-.9-4.4l-.3-2.4c0-.4-.1-.8-.1-1.2l-.1-1.2c-.2-3.1-.3-6.3-.4-9.5 0-1.6-.1-3.2-.1-4.8V85.5c-.02-3.75.7-7.4.7-7.4l.1-.6.2-1.1c1.1-6 3.1-11.9 6.4-17.2 1.6-2.6 3.5-5.1 5.7-7.3s4.7-4.1 7.5-5.7c.7-.4 1.4-.8 2.1-1.1l1.1-.5s1.8-.7 2.2-.8c0 0 1.9-.6 2.2-.7.4-.1 2.6-.7 3.4-.8l2.4-.4a38.663 38.663 0 0 1 9.6 0l2.4.4c.8.1 3.1.7 3.4.8.4.1.8.2 1.1.3 0 0 1.8.7 2.2.8l2.2.9c.7.3 1.4.7 2.1 1.1 2.7 1.5 5.2 3.5 7.5 5.7.3.3.5.6.8.8.3.3.5.6.8.8l.8.9c.3.3.5.6.7.9.4.7.9 1.3 1.3 2z" fill="#d17f5b" stroke-width="none" opacity="1"></path></g></g><g id="svga-group-mouth-single-move" transform="matrix(1,0,0,1,0,0)"><g id="svga-group-mouth-single"><path id="SvgjsPath13654" d="M84.5 124.5c.2 0 5.6 6.5 8.5 8 2.9 1.4 9 2 12.5.7s9.5-9.1 9.5-9.1-6.4 1.8-9.9 2.2c-3.5.4-11.7-.2-15-.7s-5.6-1.1-5.6-1.1z" fill="#000000" stroke-width="none" opacity="1" transform="translate(0 3)"></path><path id="SvgjsPath13655" d="M90 125.6c-3.3-.5-5.5-1.1-5.5-1.1.1 0 1.7 1.9 3.6 3.8 2.2.9 5.1 2 7.5 2.4 4.6.7 10.4.2 15.2-2.1.3-.1.6-.3.8-.4 1.9-2.1 3.4-4 3.4-4s-6.4 1.8-9.9 2.2c-3.6.3-11.8-.3-15.1-.8z" fill="#ffffff" stroke-width="none" opacity="1" transform="translate(0 3)"></path><path id="SvgjsPath13656" d="M116.9 123.3c-.1-.1-.1-.2-.2-.3-.3-.3-.6-.6-1-.6-.3 0-.5.4-.3.6 0 .1.1.1.1.2-2.4.4-4.8 1.2-7.2 1.6-2.9.5-5.9.6-8.8.7-1.3.1-7.09-.46-8.69-.66-2.4-.4-4.61-.94-7.01-1.24v-.5c-.1-.1-.2-.2-.3-.2-.4 0-.5.3-.7.6-.2.3-.3.6-.4.8-.2.5.4.9.8.4.1-.1.2-.3.3-.4 3.1 2.3 5.2 5.4 8.1 7.7 2.8 2.3 5.8 2.9 9.4 3 3.5.1 6.8-.8 9.2-3.5 1.1-1.2 1.9-2.5 2.9-3.8s2.1-2.3 3.2-3.4c.1.2.2.4.4.5.2.1.4.1.5-.1.3-.2 0-1-.3-1.4zm-6.5 5.1c-2.7 3-5.5 4.3-9.6 4.6s-7.5-.4-10.5-3.3c-1.5-1.4-2.8-3.1-4.4-4.4 1.8.6 3.9.9 5.6 1.2 1.4.3 6.11.92 8.4.9 2.8.1 5.6-.5 8.4-1.1 1.7-.3 3.4-.7 5-1.2-1.1 1-2 2.3-2.9 3.3z" fill="#e2929b" stroke-width="none" opacity="1" transform="translate(0 3)"></path></g></g><g id="svga-group-eyes-left-move" transform="matrix(1,0,0,1,0,0)"><g id="svga-group-eyes-left"><g id="svga-group-eyesback-left"><path id="SvgjsPath13796" d="M92.2 101.8s-.6-1.9-2-3.8-3.3-3.9-6.6-4.5c-3.3-.6-12.1 2.2-12.1 2.2s1.4 1.9 3.1 3.1 6.3 2.9 8.2 2.8c1.9-.1 4.2-.5 5.2-.5 1.2 0 3.2 0 4.2.7z" fill="#ffffff" stroke-width="none" opacity="1"></path></g><g id="svga-group-eyesiriswrapper-left" transform="matrix(1,0,0,1,0,0)"><g id="svga-group-eyesiriscontrol-left" transform="matrix(1,0,0,1,0,0)"><g id="svga-group-eyesiris-left"><path id="SvgjsPath13740" d="M82 91.3c2.8 0 5.2 2.3 5.2 5.2s-2.3 5.2-5.2 5.2-5.2-2.3-5.2-5.2 2.3-5.2 5.2-5.2z" fill="#724f7c" stroke-width="none" opacity="1"></path><path id="SvgjsPath13741" d="M82 92.2c2.3 0 4.2 1.9 4.2 4.2s-1.9 4.2-4.2 4.2-4.2-1.9-4.2-4.2 1.9-4.2 4.2-4.2z" fill="#000000" stroke-width="none" opacity="1"></path><path id="SvgjsPath13742" d="M76.8 96.4c0 .9.2 1.7.6 2.4.8.5 1.6.7 2.6.7 2.7 0 4.9-2.2 4.9-4.9 0-1.2-.4-2.2-1.1-3-.6-.2-1.2-.3-1.8-.3-2.9 0-5.2 2.3-5.2 5.1z" fill="#83678b" stroke-width="none" opacity="1"></path><path id="SvgjsPath13743" d="M77.8 96.4c0 1.2.5 2.3 1.3 3 .3.1.6.1.9.1 2.7 0 4.9-2.2 4.9-4.9 0-.5-.1-1-.2-1.4-.7-.6-1.7-1-2.7-1-2.3 0-4.2 1.9-4.2 4.2z" fill="#1e1e1e" stroke-width="none" opacity="1"></path><path id="SvgjsPath13744" d="M79.7 94.2c.6-.6 1.4-.8 1.9-.4s.4 1.3-.2 1.9-1.4.8-1.9.4-.4-1.3.2-1.9z" fill="#2b2b2b" stroke-width="none" opacity="1"></path></g></g></g><g id="svga-group-eyesfront-left"><path id="SvgjsPath13804" d="M70.7 98c0 6.9 4.9 12.5 11 12.5s11-5.6 11-12.5-4.9-12.5-11-12.5-11 5.6-11 12.5zm.9-2.3s8.8-2.9 12.1-2.2c3.3.6 5.3 2.6 6.6 4.5 1.4 1.9 2 3.8 2 3.8-1-.7-3.1-.7-4.1-.7-1.1 0-3.3.5-5.2.5-1.9.1-6.4-1.7-8.2-2.8-1.9-1.2-3.2-3.1-3.2-3.1z" fill="#ffd0bc" stroke-width="none" opacity="1"></path><path id="SvgjsPath13805" d="M71.4 96c.2.3.4.6.7.9-.8-.2-1.8 0-2.4.5-.1.1 0 .2.1.2.5-.2 1.1-.3 1.7-.3.5 0 .9.2 1.3.4.1.1.2.2.4.3-.6.1-1.1.4-1.4.8-.1.1 0 .3.1.2.5-.3 1.1-.5 1.6-.7 1.7 1.4 3.7 2.4 5.6 3 1.7.5 3.4.8 5.2.6 2.7-.3 5.1-1.4 7.8 0 .1.1.2-.1.1-.2.1 0 .1-.1.1-.2-1.2-4.4-4.7-8.2-9.4-9.1-1.9-.3-3.7 0-5.5.5-1.2-.3-2.1-.9-3.1-1.8-.1-.1-.3 0-.2.2.5.9 1.5 1.6 2.5 1.9-.3.1-.6.2-.8.3-1.8.1-3.2-.6-4.6-1.7-.1-.1-.3.1-.2.2.9 1.1 2.3 1.7 3.7 1.9-.5.2-.9.3-1.4.4-1.9 0-3.5-.6-5.2-1.7-.1-.1-.2.1-.1.2 1 1.1 2.5 1.8 4 1.9-2.3.5-4.4.3-6.8-1.2-.1-.1-.3.1-.2.2 2.2 1.9 4.3 2.4 6.4 2.3zm.5 0c1.3-.1 2.7-.5 4.2-1 3.2-1 7-1.9 10.1-.2 2.8 1.5 4.4 4.1 5.8 6.8-2.9-1.5-5.7-.3-8.8-.5-4.5-.2-8-2.4-11.3-5.1z" fill="#1b2a40" stroke-width="none" opacity="1"></path></g></g></g><g id="svga-group-eyes-right-move" transform="matrix(1,0,0,1,0,0)"><g id="svga-group-eyes-right"><g id="svga-group-eyesback-right"><path id="SvgjsPath13797" d="M107.8 101.8s.6-1.9 2-3.8 3.3-3.9 6.6-4.5c3.3-.6 12.1 2.2 12.1 2.2s-1.4 1.9-3.1 3.1-6.3 2.9-8.2 2.8c-1.9-.1-4.2-.5-5.2-.5-1.2 0-3.2 0-4.2.7z" fill="#ffffff" stroke-width="none" opacity="1"></path></g><g id="svga-group-eyesiriswrapper-right" transform="matrix(1,0,0,1,0,0)"><g id="svga-group-eyesiriscontrol-right" transform="matrix(1,0,0,1,0,0)"><g id="svga-group-eyesiris-right"><path id="SvgjsPath13745" d="M118 91.3c2.8 0 5.2 2.3 5.2 5.2s-2.3 5.2-5.2 5.2-5.2-2.3-5.2-5.2 2.4-5.2 5.2-5.2z" fill="#724f7c" stroke-width="none" opacity="1"></path><path id="SvgjsPath13746" d="M118 92.2c2.3 0 4.2 1.9 4.2 4.2s-1.9 4.2-4.2 4.2-4.2-1.9-4.2-4.2 1.9-4.2 4.2-4.2z" fill="#000000" stroke-width="none" opacity="1"></path><path id="SvgjsPath13747" d="M112.9 96.4c0 .9.2 1.7.6 2.4.8.5 1.6.7 2.6.7 2.7 0 4.9-2.2 4.9-4.9 0-1.2-.4-2.2-1.1-3-.6-.2-1.2-.3-1.8-.3-2.9 0-5.2 2.3-5.2 5.1z" fill="#83678b" stroke-width="none" opacity="1"></path><path id="SvgjsPath13748" d="M113.8 96.4c0 1.2.5 2.3 1.3 3 .3.1.6.1.9.1 2.7 0 4.9-2.2 4.9-4.9 0-.5-.1-1-.2-1.4-.7-.6-1.7-1-2.7-1-2.3 0-4.2 1.9-4.2 4.2z" fill="#1e1e1e" stroke-width="none" opacity="1"></path><path id="SvgjsPath13749" d="M115.8 94.2c.6-.6 1.4-.8 1.9-.4s.4 1.3-.2 1.9-1.4.8-1.9.4-.4-1.3.2-1.9z" fill="#2b2b2b" stroke-width="none" opacity="1"></path></g></g></g><g id="svga-group-eyesfront-right"><path id="SvgjsPath13806" d="M118.3 85.5c-6.1 0-11 5.6-11 12.5s4.9 12.5 11 12.5 11-5.6 11-12.5-5-12.5-11-12.5zm7 13.3c-1.7 1.2-6.3 2.9-8.2 2.8-1.9-.1-4.2-.5-5.2-.5-1.1 0-3.1 0-4.1.7 0 0 .6-1.9 2-3.8s3.3-3.9 6.6-4.5c3.3-.6 12.1 2.2 12.1 2.2s-1.4 1.9-3.2 3.1z" fill="#ffd0bc" stroke-width="none" opacity="1"></path><path id="SvgjsPath13809" d="M134.8 93.7c.1-.1 0-.3-.2-.2-2.4 1.5-4.5 1.7-6.8 1.2 1.5-.1 2.9-.8 4-1.9.1-.1 0-.3-.1-.2-1.6 1.2-3.3 1.8-5.2 1.7-.4-.1-.9-.3-1.4-.4 1.4-.1 2.9-.7 3.7-1.9.1-.1-.1-.3-.2-.2-1.5 1.1-2.8 1.8-4.6 1.7-.3-.1-.6-.2-.8-.3 1-.3 2-1 2.5-1.9.1-.1-.1-.3-.2-.2-1 .9-1.9 1.5-3.1 1.8-1.8-.5-3.6-.8-5.5-.5-4.6.9-8.1 4.6-9.4 9.1 0 .1 0 .2.1.2-.1.1 0 .2.1.2 2.7-1.4 5.1-.3 7.8 0 1.8.2 3.5-.1 5.2-.6 1.9-.6 3.9-1.7 5.6-3 .6.2 1.1.4 1.6.7.1.1.2-.1.1-.2-.4-.4-.9-.7-1.4-.8.1-.1.2-.2.4-.3.4-.2.8-.4 1.3-.4.6 0 1.1.1 1.7.3.1 0 .2-.1.1-.2-.6-.5-1.5-.7-2.4-.5.2-.3.5-.6.7-.9 2.3.1 4.4-.4 6.4-2.3zm-18 7.5c-3.1.2-5.9-1-8.8.5 1.3-2.7 3-5.3 5.8-6.8 3.2-1.7 6.9-.8 10.1.2 1.5.5 2.9.8 4.2 1-3.3 2.6-6.8 4.8-11.3 5.1z" fill="#1b2a40" stroke-width="none" opacity="1"></path></g></g></g><g id="svga-group-facehighlight-single"></g><g id="svga-group-eyebrows-left-move" transform="matrix(1,0,0,1,0,0)"><g id="svga-group-eyebrows-left-rotate" transform="matrix(1,1.7453292519943295e-9,-1.7453292519943295e-9,1,1.4906274259374186e-7,-1.399747446839683e-7)"><g id="svga-group-eyebrows-left"><path id="SvgjsPath13854" d="M69.4 84.4c.2-.2.4-.4.7-.5v-.2c.2-.4.6-.6.9-.7.2-.1.3-.2.5-.3.5-.3 1-.6 1.5-.7h.2c.5-.2 1.1-.3 1.7-.3.9-.6 2.5-.6 3.4-.2.1 0 .1.1.1.1 1.3-.3 2.8 0 4 .3 1.7.4 3.7 1 5.1 2 .7.2 1.3.6 1.9.9 1.2.6 2.6 1.4 3.6 2.3.3.1.6.1.9.2h.1c.2-.1.4.2.2.4-.2.3-.5.5-.8.7.1.1.1.2 0 .3-1.6 2.3-5.7.4-7.3-1.5l-3.3-1.8h-.1c-1 0-2-.4-2.9-.7-1.1-.3-2.2-.5-3.3-.8-.1 0-.2-.1-.2-.2-.7.1-1.3 0-2 0-.5 0-1 0-1.5-.1-.4.2-.7.3-1.1.5-.4.2-1 .4-1.5.4l-.6.3c-.1 0-.2 0-.3-.1v-.1c-.1 0 0-.2.1-.2z" fill="#3b3128" stroke-width="none" opacity="1"></path><path id="SvgjsPath13855" d="M88.4 88.4c.8 0 1.5 0 2.3-.2.8-.2 1.5-.5 2.2-.8.2-.1.3.1.2.2-1.2 1.1-3.1 1.6-4.7 1.2-.3-.1-.3-.4 0-.4zm-1.6-.7c.8-.1 1.6 0 2.4-.1.8-.2 1.4-.6 2.1-1 .2-.1.3.1.2.3-.6.6-1.1 1.1-2 1.3s-1.8.2-2.7-.1c-.1-.1-.1-.4 0-.4zm-5-6.1c1.9.5 2.8 2.7 2.3 4.5-.1.2-.3.1-.3 0 .2-1.8-.6-3.2-2.1-4.2-.1-.2 0-.3.1-.3zm-6.6.2c2.2-.2 4.4 1.2 5.7 2.9.1.1 0 .2-.1.1-1.6-1.6-3.5-2.2-5.6-2.8-.2 0-.1-.2 0-.2zM70 83.5c1.5-1 3.5-.9 5.1-.2.1.1.1.2-.1.2-1.7-.5-3.3-.2-4.9.3-.2 0-.2-.2-.1-.3z" fill="#4a423a" stroke-width="none" opacity="1"></path><path id="SvgjsPath13856" d="M66 86.8c-.3.3.1.7.5.5 5.3-4.5 12.2-3.5 17.9-.3 2.1 1.2 4.3 3.3 6.9 3.1 1.5-.1 3.3-1.2 3.2-2.9 0-.2-.3-.3-.4-.1-.9 2.7-3.1 2.5-5.1 1.6 1.2.1 2.5-.4 3.5-1.1.2-.1 0-.3-.1-.2-1.3.7-2.7.8-4.2.8h-.1c-.2-.1-.5-.3-.7-.4.6-.3 1.1-.7 1.3-1.4.1-.2-.2-.3-.3-.1-.3.5-.8 1-1.3 1.3-.4-.2-.7-.4-1.1-.7-.7-.4-1.5-.9-2.2-1.2.4-1.2.2-2.6-.6-3.5 3.5 1 6.7 2.7 9.7 4.7.2.2.5-.2.2-.4-4.4-3.2-9.8-5.7-15.3-5.8-2 0-3.9.3-5.7 1.1-2 .9-4.4 2.6-5.6 4.6-.3.2-.4.3-.5.4zm17.3-1.2c-.5-.2-1-.5-1.5-.7-.5-1.3-1.5-2.7-2.8-3.3 1.1.1 2.2.2 3.2.5.8 1 1.2 2.1 1.1 3.5zm-4.4-1.7c-.3-.1-.7-.2-1-.2v-.2c-1-1.1-2.4-1.7-3.9-1.6 1.2-.3 2.5-.4 3.7-.4.8.4 1.6.8 2.2 1.4.6.5 1.1 1.2 1.4 1.8-.7-.3-1.5-.5-2.4-.8zm-9.2.5c.7-.7 1.5-1.3 2.5-1.7.5-.2 1-.4 1.6-.6-.1.1 0 .2.1.3 1.4.2 2.6.6 3.8 1.3-2.7-.5-5.6-.3-8 .7z" fill="#2c2219" stroke-width="none" opacity="1"></path></g></g></g><g id="svga-group-eyebrows-right-move" transform="matrix(1,0,0,1,0,0)"><g id="svga-group-eyebrows-right-rotate" transform="matrix(1,1.7453292519943295e-9,-1.7453292519943295e-9,1,1.4922410684903298e-7,-2.0942947287494462e-7)"><g id="svga-group-eyebrows-right"><path id="SvgjsPath13857" d="M130.6 84.4c-.2-.2-.4-.4-.7-.5v-.2c-.2-.4-.6-.6-.9-.7-.2-.1-.3-.2-.5-.3-.5-.3-1-.6-1.5-.7h-.2c-.5-.2-1.1-.3-1.7-.3-.9-.6-2.5-.6-3.4-.2-.1 0-.1.1-.1.1-1.3-.3-2.8 0-4 .3-1.7.4-3.7 1-5.1 2-.7.2-1.3.6-1.9.9-1.2.6-2.6 1.4-3.6 2.3-.3.1-.6.1-.9.2h-.1c-.2-.1-.4.2-.2.4.2.3.5.5.8.7-.1.1-.1.2 0 .3 1.6 2.3 5.7.4 7.3-1.5l3.3-1.8h.1c1 0 2-.4 2.9-.7 1.1-.3 2.2-.5 3.3-.8.1 0 .2-.1.2-.2.7.1 1.3 0 2 0 .5 0 1 0 1.5-.1.4.2.7.3 1.1.5.4.2 1 .4 1.5.4l.6.3c.1 0 .2 0 .3-.1v-.1c.1 0 0-.2-.1-.2z" fill="#3b3128" stroke-width="none" opacity="1"></path><path id="SvgjsPath13858" d="M111.6 88.4c-.8 0-1.5 0-2.3-.2-.8-.2-1.5-.5-2.2-.8-.2-.1-.3.1-.2.2 1.2 1.1 3.1 1.6 4.7 1.2.3-.1.3-.4 0-.4zm1.6-.7c-.8-.1-1.6 0-2.4-.1-.8-.2-1.4-.6-2.1-1-.2-.1-.3.1-.2.3.6.6 1.1 1.1 2 1.3s1.8.2 2.7-.1c.1-.1.1-.4 0-.4zm5-6.1c-1.9.5-2.8 2.7-2.3 4.5.1.2.3.1.3 0-.2-1.8.6-3.2 2.1-4.2.1-.2 0-.3-.1-.3zm6.6.2c-2.2-.2-4.4 1.2-5.7 2.9-.1.1 0 .2.1.1 1.6-1.6 3.5-2.2 5.6-2.8.2 0 .1-.2 0-.2zm5.2 1.7c-1.5-1-3.5-.9-5.1-.2-.1.1-.1.2.1.2 1.7-.5 3.3-.2 4.9.3.2 0 .2-.2.1-.3z" fill="#4a423a" stroke-width="none" opacity="1"></path><path id="SvgjsPath13859" d="M133.7 86.5c-1.2-1.9-3.6-3.6-5.6-4.6-1.8-.8-3.8-1.2-5.7-1.1-5.6.1-10.9 2.6-15.3 5.8-.2.2 0 .6.2.4 3-2 6.2-3.8 9.7-4.7-.8.9-1 2.3-.6 3.5-.8.4-1.5.8-2.2 1.2-.3.2-.7.4-1.1.7-.5-.3-1-.8-1.3-1.3-.1-.1-.3-.1-.3.1.2.7.7 1.1 1.3 1.4-.2.1-.5.3-.7.4h-.1c-1.5 0-2.8-.1-4.2-.8-.2-.1-.3.1-.1.2 1 .7 2.3 1.2 3.5 1.1-2 .9-4.2 1.1-5.1-1.6-.1-.2-.4-.2-.4.1-.1 1.7 1.7 2.8 3.2 2.9 2.6.2 4.8-1.9 6.9-3.1 5.7-3.2 12.6-4.2 17.9.3.3.3.8-.2.5-.5-.3-.2-.4-.3-.5-.4zm-15.9-4.4c1.1-.2 2.1-.4 3.2-.5-1.3.6-2.3 2-2.8 3.3-.5.2-1 .4-1.5.7-.1-1.4.3-2.5 1.1-3.5zm.8 2.7c.4-.7.8-1.3 1.4-1.8.7-.6 1.5-.9 2.2-1.4 1.3 0 2.5.1 3.7.4-1.5-.1-2.9.5-3.9 1.6v.2c-.3.1-.7.1-1 .2-.8.2-1.6.4-2.4.8zm3.8-1.1c1.1-.8 2.4-1.2 3.8-1.3.2 0 .2-.2.1-.3.5.2 1.1.4 1.6.6.9.4 1.7 1.1 2.5 1.7-2.5-1-5.4-1.2-8-.7z" fill="#2c2219" stroke-width="none" opacity="1"></path></g></g></g><g id="svga-group-nose-single-move" transform="matrix(1,0,0,1,0,0)"><g id="svga-group-nose-single"><path id="SvgjsPath13836" d="M96.02 109.21c1.69-1.61 1.56-4.41 1.18-6.64-.35-2-.93-4.01-.64-6.06.24-1.66 1.01-3.15 1.1-4.85.01-.19-.27-.24-.3-.05-.23 1.47-.8 2.8-1.12 4.24-.29 1.3-.26 2.6-.06 3.92.49 3.24 1.52 6.34-.31 9.3-.08.12.06.22.15.14z" fill="#d17f5b" stroke-width="none" opacity="1" transform="translate(0 2)"></path><path id="SvgjsPath13837" d="M106.61 110.83c-.13-.03-.21.16-.09.24 1.2.89 2.29 2.21 1.95 3.99-.26 1.35-1.14 2.09-2.17 2.52.36-.3.73-.58 1.02-.95.3-.38.13-1.17-.41-1.11-.61.07-1.12.37-1.61.76.28-.72.55-1.41.82-2.02.05-.12-.07-.23-.16-.14-2.04 1.99-2.06 6.34-5.05 7.17-3.64 1.01-5.48-3.43-6.21-6.58-.07-.3-.45-.17-.41.13.06.43.14.86.25 1.29-.1-.07-.2-.13-.3-.18-.67-.35-1.41-.39-2.05.05-.39.26-.37 1.08.14 1.18.33.07.67.16.98.31-.55-.04-1.08-.1-1.53-.4-1-.66-1.56-2.08-1.22-3.35.32-1.19 1.15-1.68 2.04-2.21.12-.07.06-.28-.07-.28-1.89-.01-3.04 2.58-2.51 4.44.77 2.7 3.34 2.47 5.34 2.99.04.01.08 0 .12-.01.95 1.88 2.44 3.32 4.52 3.41 2.01.08 3.26-1.38 4.2-3.2.05.03.11.04.17.04.44-.03.81-.29 1.15-.59 3.74.59 4.93-6.7 1.09-7.5z" fill="#d17f5b" stroke-width="none" opacity="1" transform="translate(0 2)"></path><path id="SvgjsPath13838" d="M101.48 91.74c-.28-.31-.74.01-.65.43.26 1.21.75 2.24.78 3.51.04 1.2-.17 2.4-.34 3.58-.25 1.71-.39 3.74.51 5.24.17.28.54.17.56-.17.23-3.89 2.05-9.36-.86-12.59z" fill="#ffd9c9" stroke-width="none" opacity="1" transform="translate(0 2)"></path><path id="SvgjsPath13839" d="M104.16 112.65c-.22-.76-1.16-.95-1.54-.23-.5.97-.38 2.17-.8 3.21-.39.98-1.1 1.53-1.85 2.14-.32.26-.25.73.1.9 2.63 1.23 4.74-3.76 4.09-6.02z" fill="#ffd9c9" stroke-width="none" opacity="1" transform="translate(0 2)"></path></g></g><g id="svga-group-hair-front"><path id="SvgjsPath13906" d="M137.8 95.9s3.1-2.7 4.3-7 0-9.9 0-9.9 1.7-5.1-2.2-13.5c0 0 0-6.5-4.3-11.8 0 0 .5-9.1-11.1-14.9 0 0-2.7-3.4-8.7-3.6 0 0-4.1-3.4-10.3-3.4 0 0-4.3-1.7-8.7 0 0 0-3.4-1-5.8 1 0 0-2.9.5-6 3.4 0 0-3.1-.5-5.5 1.2 0 0-2.4.2-6.7 5S67.5 52 67.5 52s-4.6 1-4.8 9.1c0 0-2.9 2.7-2.9 8.4 0 0-2.4 1.9-1.7 7.9 0 0-1.4 6.5.5 11.8 1.9 5.3 3.1 3.1 3.1 3.1s1.9-2.2 1.9-5.8c0 0 2.9-4.3 2.4-8.4 0 0 2.5-1.9 2.5-4.5 0 0 3.6-2.9 3-5.3 0 0 3.7-.2 5.6-5 0 0 3.2.3 8-3 0 0 14.5 9.2 33 .4 0 0 3.2 3 7.3 2.8 0 0 2.6 7 6.3 7 0 0 2.2 4.6 4.3 4.6 0 0-.5 6.3 1.4 9.9.2.1-.5 8.2.4 10.9zm-37.1-74.1s14.3.7 18.7 12.7c0 0-4-6.6-18.7-12.7zm-42.2 11s-18.8 23.4-2.4 50.4c0 0-5.1-14.7-3.1-28.7 2-14 5.5-21.7 5.5-21.7zm-15.1 34S45.9 79 52 88.6c0 0-9.5-8.6-8.6-21.8z" fill="#3b3128" stroke-width="none" opacity="1"></path><path id="SvgjsPath13907" d="M69.5 142s11.4 14.3 6.2 32.9c-2.8 10.3-2.3 14.1-.8 19 1.6 4.8-8.9 5.6-11.8 8.4-2.9 2.8-4 5-3.6 7.5 0 0-3.3-5 .3-10.7s-10.5-16.6-14.3-21.4c-2.8-3.5-2.6-12.9-1-19.4.1-7.9 2.6-14.9 4.9-15.7.4 0 8.8 3.6 20.1-.6zm-8.1-56.6c0 .5.2 1 .5 1.4.1.1.2 0 .1-.1-.3-.4-.5-.8-.5-1.2 0-.1-.1-.1-.1-.1zm15.2-42.6c.1-.3-.3-.5-.5-.2-3.4 5.2-5.8 16.9 1.1 20.5.3.2.7-.3.4-.5-5.4-5.1-3.4-13.6-1-19.8zM63.7 85.9c-.9-1.9-1.9-3.8-2.4-5.9-.5-1.9-.5-3.8-.8-5.6-.1-.3-.5-.2-.5 0-.9 3.9.8 8.9 3.3 11.9.2.2.5-.1.4-.4zm4.6-12.8c.4.1.8-.3.5-.6-3.8-3.2-3.7-7-4.7-11.5-.1-.5-.7-.3-.8.1-.4 4.2.7 10.1 5 12zm3.6-5c.3.1.7-.2.4-.5-4.4-4.1-3.3-9.8-3.2-15.3 0-.4-.6-.4-.7-.1-1.7 4.6-1.8 13.5 3.5 15.9zm-6.2 9.3c-1.6-2.6-2.2-5.2-2.8-8.1-.1-.3-.5-.2-.6.1-.2 3 1.1 6 2.9 8.4.2.2.7-.1.5-.4zM83 39.8c.1-.2-.2-.4-.4-.2-3.1 4.9-3.8 15.8 1.1 19.9.3.2.7 0 .5-.4-2.5-5.7-3.9-13.4-1.2-19.3zm23-5.3c5.3 9.3 6.6 18.3-1.4 26.3-.3.3.1.7.4.5 11.1-4.7 6.3-19.8 1.2-27-.1-.1-.3 0-.2.2zm30.4 22.4c-.1-.5-.7-.3-.8.1-.3 2.3-.3 4.6-1 6.9-.7 2.2-2 4.2-3.2 6.2-.2.3.2.6.5.4 3.5-3 5.8-9.1 4.5-13.6zm-12.2-13.2c.8 3.1 2 6 2.1 9.3.2 3.2-.4 6.4-1.2 9.5-.1.3.4.6.6.2 2.7-5.8 2.8-14-1-19.3-.2-.2-.6-.1-.5.3zm15.4 23.5c0-.2-.4-.4-.5-.1-.5 2.8-1.1 5.3-2.5 7.8-.1.2.2.5.4.3 1.8-2.2 2.9-5.1 2.6-8zm1.4 11.6c-1.2 1.7-2.1 3.8-3 5.7-.1.3.2.5.4.3 1.3-1.7 2.5-3.8 2.8-5.9.2-.2-.1-.3-.2-.1zm-46.7-39c0-.2-.3-.2-.3 0-.1 7.3 2.1 14.4 5.8 20.6.1.2.4 0 .3-.2-3.5-6.5-5.1-13.1-5.8-20.4zm21.5-2.7c2.1 3.7 3.6 7.4 3.9 11.7.3 3.4-.6 6.6-.9 9.9 0 .3.5.4.6.2 3.8-6.6 1.4-16.4-3.2-22-.2-.3-.5-.1-.4.2zm-25.5-3.3c.1-.3-.4-.5-.5-.2-3.9 7.3-4.1 21.2 3 26.8.3.3.8-.2.5-.5-6.1-6.6-5.9-18.2-3-26.1zm6.9-.7c.5 2 1.4 3.9 2 5.9.6 2 1 4 1.6 6 .1.3.6.3.6-.1-.3-3.9-1.6-8.7-3.9-11.9 0-.2-.3-.2-.3.1z" fill="#2c2219" stroke-width="none" opacity="1"></path><path id="SvgjsPath13908" d="M53.7 120.5s-.5 13-6.8 24.6-5 24.1 2.7 33.7 14.3 14.8 11.8 20c-2.5 5.2-2.3 8.2-2.3 8.2s.7-4.8 4.8-8.9 2.3-8.6-6.2-15.7c-8.4-7.1-13.2-13.7-11.8-22.5 1.4-8.9 7.5-15.7 8.9-21.2 1.4-5.5-1.1-18.2-1.1-18.2zm7.5 16.6s-.5 14.8-4.1 22.8 1.4 15 6.2 19.4c4.8 4.3 6.6 7.7 7.3 10.7.7 3-2.5 5.2-3.6 6.8 0 0 5.5-1.4 5-7.3s-7.5-9.8-10-19.6c-2.6-9.8 2-12.1-.8-32.8zm7.1 7.5s-.5 9.8 2.1 16.2c2.5 6.4 4 13.2 2.4 20.2 0 0 2.2-4 2.6-14.3.5-10.2-3.5-7.5-7.1-22.1z" fill="#3b3128" stroke-width="none" opacity="1"></path><path id="SvgjsPath13909" d="M111.3 36.1c-.2-.2-.6.2-.4.4 2.6 3.6 5 6.6 5.6 11.2.8 5.6-1 11.2-6 14.2-.2.1 0 .3.2.3 9.7-4.5 9.2-20.7.6-26.1zm.8 3.1c-.1-.3-.6-.2-.5.1 2.1 8.4 3.6 18.2-5.5 23.1-.2.1-.1.5.2.5 9.3-4 9-15.7 5.8-23.7zm8.2.8c-.2-.3-.7 0-.5.3 3.4 7 5.8 13.5 2.3 21.1-.2.3.3.6.5.3 4.4-6.8 2.2-15.6-2.3-21.7zm10.1 5.1c-.1-.3-.6-.2-.5.1.4 1.4.8 2.7 1.1 4.1-.9-2.7-2.2-5.2-3.9-7.2-.1-.2-.4 0-.3.2 4.1 7 4.8 13.5 3.4 21.4-.1.4.5.6.6.2.9-2.4 1.4-5 1.3-7.6.1.3.6.2.6-.2.2-3.8-.9-7.6-2.3-11zm-26.2-9.5c-.1-.3-.6-.2-.5.1 1.8 5.6 2.5 11.2 2.4 17 0 .3.4.3.5 0 .8-5.8-.1-11.6-2.4-17.1zm-1 13.5c0-.3-.4-.3-.4 0 0 2.4-.2 4.8-.2 7.1 0 .3.4.3.5.1.4-2.4.4-4.8.1-7.2zM99 60.9c-4.8-7.7-7.1-14.6-6-23.7 0-.2-.2-.2-.3 0-2.1 8-.1 18.1 6 24 .1.1.4-.1.3-.3zm-2.5.6c-3.1-4.2-5.4-8.5-6.1-13.7 0-.3-.5-.2-.5.1.5 5.2 2.4 10.3 6.2 13.9.2.2.6-.1.4-.3zm-9.3-3.7c-3.7-5.5-5-11.4-3.8-18 .1-.3-.3-.4-.4-.1-2 6.3-.7 13.4 3.8 18.4.2.3.6 0 .4-.3zm-8.1 3c-4.9-6.1-3.7-13.1-.6-19.7.1-.2-.2-.5-.4-.2-3.6 6.2-5.4 14.9.7 20.2.2.2.5-.1.3-.3zm58.4 1c0-.3-.6-.4-.6 0 .1 3.2-.6 6.1-1.1 9.2-.1.4.5.7.6.3 1.3-2.9 1.4-6.4 1.1-9.5zm2.3 9.8c0 1.9-.5 3.5-1.1 5.3-.1.3.3.4.4.2 1-1.6 1.3-3.6 1.3-5.5 0-.4-.6-.4-.6 0zM71 49.2c.1-.2-.3-.4-.4-.2-2.2 4.7-1.2 10.1 1 14.6.1.2.5.1.4-.2-1.6-4.8-2.3-9.2-1-14.2zm-5.4 6.3c0-.2-.3-.3-.4 0-.8 4.1 0 8 1.3 11.9.1.2.3.1.3-.1-.8-4-1.7-7.8-1.2-11.8zm-2.9 8.7c0-.3-.5-.3-.5 0-.3 2-.1 4 .7 5.8.1.2.5.1.4-.2-.4-1.8-.7-3.6-.6-5.6zM61 70c0-.3-.4-.3-.5 0-.4 2.8-.1 5.9 1 8.5.1.3.6.1.5-.2-.5-2.8-1-5.5-1-8.3zm34.2-44.6c-12.3-6-27.2 3.4-29.5 16.2-.1.4.4.5.6.2C68.1 36.1 71.4 31 76.6 28c6-3.4 11.8-3.2 18.4-2.1.3.1.6-.4.2-.5zm17.1 5.4c-1.9-2.9-4.9-5.1-8.1-6.6-.3-.1-.5.2-.2.4 3 1.8 5.5 4 8 6.4.2.2.5 0 .3-.2zm-61.6 10c-6.7 9.9-6.1 26-.9 36.3.1.2.4.1.3-.1-4.4-10.7-5.3-25.7.9-36 .1-.2-.2-.4-.3-.2zm15-14.1C55.5 36.8 54.5 52.7 55 66.2c0 .4.5.4.6 0 .9-14.1 1-27.7 10.4-39.2.2-.2-.1-.5-.3-.3zm-6.6 151.2c-2.1-2-4.2-3.7-5.5-6.3-1.7-3.5-1.4-7.5-.5-11.1 1.3-5.5 4.1-10.5 5.3-16 1.1-4.9 1.1-10 0-14.8-.1-.4-.7-.3-.7.1.5 6.4.1 12.5-2.1 18.6-1.7 4.7-4.1 9.2-4.7 14.3-.4 3.8.2 7.8 2.4 10.9 3.2 4.6 10 6.6 10 13.1 0 .1.1.1.1 0 0-3.7-1.8-6.4-4.3-8.8zm11.1-.5c-3.5-7.5-3.8-14-3.4-22.2.2-5.1 0-9.9-2.7-14.3-.1-.2-.5-.1-.4.2 5 12-2.5 25.6 6.1 36.7.2.3.5-.1.4-.4z" fill="#4a423a" stroke-width="none" opacity="1"></path></g><g id="svga-group-glasses-single-move" transform="matrix(1,0,0,1,0,0)"><g id="svga-group-glasses-single"></g></g></g></g></g><rect id="svga-credit-rect" width="200" height="15" x="0" y="185" fill="#ecf0f1" opacity="0.5" style="display: none;"></rect><text id="svga-credit-text" font-family="Avenir Next, Roboto, Helvetica, Arial, sans-serif" font-size="10px" text-anchor="start" font-weight="400" size="10px" anchor="start" weight="400" fill="#333333" x="33.43669891357422" y="182.60824704170227" style="display: none;"><tspan id="SvgjsTspan13643" dy="13" x="33.43669891357422">Created on AvatarMaker.com</tspan></text></g><defs id="SvgjsDefs13595"></defs></svg>