<svg xmlns="http://www.w3.org/2000/svg" version="1.1" xmlns:xlink="http://www.w3.org/1999/xlink" xmlns:svgjs="http://svgjs.com/svgjs" width="1000" height="1000"><rect width="1000" height="1000" rx="150" ry="150" fill="#ffffff"></rect><g transform="matrix(16.666666666666668,0,0,16.666666666666668,100,100)"><svg xmlns="http://www.w3.org/2000/svg" version="1.1" xmlns:xlink="http://www.w3.org/1999/xlink" xmlns:svgjs="http://svgjs.com/svgjs" width="48" height="48"><svg xmlns="http://www.w3.org/2000/svg" height="48" width="48"><path d="M25.5 19.5V6H42v13.5ZM6 25.5V6h16.5v19.5ZM25.5 42V22.5H42V42ZM6 42V28.5h16.5V42Zm3-19.5h10.5V9H9ZM28.5 39H39V25.5H28.5Zm0-22.5H39V9H28.5ZM9 39h10.5v-7.5H9Zm10.5-16.5Zm9-6Zm0 9Zm-9 6Z"></path></svg></svg></g></svg>